%TF.GenerationSoftware,KiCad,Pcbnew,(6.0.1)*%
%TF.CreationDate,2022-02-21T20:45:34-05:00*%
%TF.ProjectId,uv_back,75765f62-6163-46b2-9e6b-696361645f70,rev?*%
%TF.SameCoordinates,Original*%
%TF.FileFunction,Paste,Bot*%
%TF.FilePolarity,Positive*%
%FSLAX46Y46*%
G04 Gerber Fmt 4.6, Leading zero omitted, Abs format (unit mm)*
G04 Created by KiCad (PCBNEW (6.0.1)) date 2022-02-21 20:45:34*
%MOMM*%
%LPD*%
G01*
G04 APERTURE LIST*
G04 Aperture macros list*
%AMRoundRect*
0 Rectangle with rounded corners*
0 $1 Rounding radius*
0 $2 $3 $4 $5 $6 $7 $8 $9 X,Y pos of 4 corners*
0 Add a 4 corners polygon primitive as box body*
4,1,4,$2,$3,$4,$5,$6,$7,$8,$9,$2,$3,0*
0 Add four circle primitives for the rounded corners*
1,1,$1+$1,$2,$3*
1,1,$1+$1,$4,$5*
1,1,$1+$1,$6,$7*
1,1,$1+$1,$8,$9*
0 Add four rect primitives between the rounded corners*
20,1,$1+$1,$2,$3,$4,$5,0*
20,1,$1+$1,$4,$5,$6,$7,0*
20,1,$1+$1,$6,$7,$8,$9,0*
20,1,$1+$1,$8,$9,$2,$3,0*%
G04 Aperture macros list end*
%ADD10RoundRect,0.250000X0.450000X-0.350000X0.450000X0.350000X-0.450000X0.350000X-0.450000X-0.350000X0*%
%ADD11RoundRect,0.250000X-0.350000X-0.450000X0.350000X-0.450000X0.350000X0.450000X-0.350000X0.450000X0*%
%ADD12RoundRect,0.250000X0.250000X2.500000X-0.250000X2.500000X-0.250000X-2.500000X0.250000X-2.500000X0*%
%ADD13RoundRect,0.250000X0.550000X1.250000X-0.550000X1.250000X-0.550000X-1.250000X0.550000X-1.250000X0*%
%ADD14RoundRect,0.150000X0.825000X0.150000X-0.825000X0.150000X-0.825000X-0.150000X0.825000X-0.150000X0*%
%ADD15RoundRect,0.250000X-0.450000X0.350000X-0.450000X-0.350000X0.450000X-0.350000X0.450000X0.350000X0*%
%ADD16R,1.600000X1.000000*%
%ADD17RoundRect,0.250000X0.475000X-0.337500X0.475000X0.337500X-0.475000X0.337500X-0.475000X-0.337500X0*%
G04 APERTURE END LIST*
D10*
%TO.C,R9*%
X102000000Y-102672353D03*
X102000000Y-100672353D03*
%TD*%
D11*
%TO.C,R10*%
X97325000Y-93950000D03*
X99325000Y-93950000D03*
%TD*%
D12*
%TO.C,J8*%
X196000000Y-118750000D03*
X194000000Y-118750000D03*
X192000000Y-118750000D03*
D13*
X198400000Y-116500000D03*
X189600000Y-116500000D03*
%TD*%
D14*
%TO.C,U1*%
X88475000Y-99595000D03*
X88475000Y-100865000D03*
X88475000Y-102135000D03*
X88475000Y-103405000D03*
X83525000Y-103405000D03*
X83525000Y-102135000D03*
X83525000Y-100865000D03*
X83525000Y-99595000D03*
%TD*%
D10*
%TO.C,R11*%
X102050000Y-91650000D03*
X102050000Y-89650000D03*
%TD*%
D15*
%TO.C,R7*%
X138250000Y-112500000D03*
X138250000Y-114500000D03*
%TD*%
D12*
%TO.C,J6*%
X138250000Y-121000000D03*
X136250000Y-121000000D03*
X134250000Y-121000000D03*
D13*
X131850000Y-118750000D03*
X140650000Y-118750000D03*
%TD*%
D12*
%TO.C,J7*%
X209000000Y-118750000D03*
X207000000Y-118750000D03*
X205000000Y-118750000D03*
D13*
X202600000Y-116500000D03*
X211400000Y-116500000D03*
%TD*%
D10*
%TO.C,C3*%
X104750000Y-102646953D03*
X104750000Y-100646953D03*
%TD*%
D16*
%TO.C,SW1*%
X107960000Y-111250000D03*
X113040000Y-111250000D03*
%TD*%
D15*
%TO.C,R8*%
X134250000Y-112500000D03*
X134250000Y-114500000D03*
%TD*%
D12*
%TO.C,J9*%
X150750000Y-121000000D03*
X148750000Y-121000000D03*
X146750000Y-121000000D03*
D13*
X153150000Y-118750000D03*
X144350000Y-118750000D03*
%TD*%
D17*
%TO.C,C4*%
X102025000Y-96037500D03*
X102025000Y-93962500D03*
%TD*%
D12*
%TO.C,J5*%
X100750000Y-121000000D03*
X98750000Y-121000000D03*
X96750000Y-121000000D03*
D13*
X103150000Y-118750000D03*
X94350000Y-118750000D03*
%TD*%
D16*
%TO.C,SW2*%
X70710000Y-111750000D03*
X75790000Y-111750000D03*
%TD*%
D14*
%TO.C,U2*%
X113475000Y-99595000D03*
X113475000Y-100865000D03*
X113475000Y-102135000D03*
X113475000Y-103405000D03*
X108525000Y-103405000D03*
X108525000Y-102135000D03*
X108525000Y-100865000D03*
X108525000Y-99595000D03*
%TD*%
D10*
%TO.C,R1*%
X117500000Y-99250000D03*
X117500000Y-97250000D03*
%TD*%
D11*
%TO.C,C1*%
X78000000Y-99500000D03*
X80000000Y-99500000D03*
%TD*%
D15*
%TO.C,R6*%
X96750000Y-112250000D03*
X96750000Y-114250000D03*
%TD*%
D10*
%TO.C,C5*%
X120750000Y-103750000D03*
X120750000Y-101750000D03*
%TD*%
D12*
%TO.C,J2*%
X75750000Y-121000000D03*
X73750000Y-121000000D03*
X71750000Y-121000000D03*
D13*
X78150000Y-118750000D03*
X69350000Y-118750000D03*
%TD*%
D11*
%TO.C,C2*%
X106250000Y-97000000D03*
X108250000Y-97000000D03*
%TD*%
D12*
%TO.C,J1*%
X113250000Y-121000000D03*
X111250000Y-121000000D03*
X109250000Y-121000000D03*
D13*
X106850000Y-118750000D03*
X115650000Y-118750000D03*
%TD*%
D15*
%TO.C,R5*%
X100750000Y-112250000D03*
X100750000Y-114250000D03*
%TD*%
D10*
%TO.C,R2*%
X117500000Y-103750000D03*
X117500000Y-101750000D03*
%TD*%
D12*
%TO.C,J4*%
X125750000Y-121000000D03*
X123750000Y-121000000D03*
X121750000Y-121000000D03*
D13*
X119350000Y-118750000D03*
X128150000Y-118750000D03*
%TD*%
D12*
%TO.C,J3*%
X88250000Y-121000000D03*
X86250000Y-121000000D03*
X84250000Y-121000000D03*
D13*
X90650000Y-118750000D03*
X81850000Y-118750000D03*
%TD*%
M02*
