%TF.GenerationSoftware,KiCad,Pcbnew,(6.0.1)*%
%TF.CreationDate,2022-02-21T20:45:34-05:00*%
%TF.ProjectId,uv_back,75765f62-6163-46b2-9e6b-696361645f70,rev?*%
%TF.SameCoordinates,Original*%
%TF.FileFunction,Copper,L1,Top*%
%TF.FilePolarity,Positive*%
%FSLAX46Y46*%
G04 Gerber Fmt 4.6, Leading zero omitted, Abs format (unit mm)*
G04 Created by KiCad (PCBNEW (6.0.1)) date 2022-02-21 20:45:34*
%MOMM*%
%LPD*%
G01*
G04 APERTURE LIST*
%TA.AperFunction,ViaPad*%
%ADD10C,0.800000*%
%TD*%
%TA.AperFunction,Conductor*%
%ADD11C,0.250000*%
%TD*%
G04 APERTURE END LIST*
D10*
%TO.N,GND*%
X122325000Y-103725000D03*
X114525000Y-111250000D03*
X104775000Y-97000000D03*
X77250000Y-111750000D03*
X76600000Y-99500000D03*
X111250000Y-116825000D03*
X189750000Y-123475000D03*
X90180000Y-103405000D03*
X95475000Y-93950000D03*
X73750000Y-117250000D03*
%TO.N,+9V*%
X112625000Y-97250000D03*
X117200000Y-79925000D03*
X117250000Y-76350000D03*
X81525000Y-99575000D03*
%TO.N,/VMID*%
X119150000Y-112525000D03*
X105425000Y-105100000D03*
X115300000Y-99600000D03*
%TO.N,Net-(J5-Pad2)*%
X98800000Y-114575000D03*
X150750000Y-114550000D03*
%TD*%
D11*
%TO.N,Net-(J5-Pad2)*%
X98825000Y-114550000D02*
X98800000Y-114575000D01*
X150750000Y-114550000D02*
X98825000Y-114550000D01*
%TO.N,+9V*%
X117250000Y-79875000D02*
X117200000Y-79925000D01*
X117250000Y-76350000D02*
X117250000Y-79875000D01*
%TO.N,/VMID*%
X111750000Y-103150000D02*
X115300000Y-99600000D01*
X111750000Y-105125000D02*
X119150000Y-112525000D01*
X111750000Y-105125000D02*
X111750000Y-103150000D01*
X111725000Y-105100000D02*
X111750000Y-105125000D01*
X105425000Y-105100000D02*
X111725000Y-105100000D01*
%TO.N,+9V*%
X110300000Y-99575000D02*
X112625000Y-97250000D01*
X81525000Y-99575000D02*
X110300000Y-99575000D01*
%TD*%
%TA.AperFunction,Conductor*%
%TO.N,GND*%
G36*
X164292012Y-56790711D02*
G01*
X165146000Y-56805709D01*
X165205540Y-56806755D01*
X165226766Y-56808935D01*
X165237069Y-56810886D01*
X165237071Y-56810886D01*
X165245886Y-56812555D01*
X165252146Y-56811943D01*
X165258353Y-56812963D01*
X165285485Y-56809644D01*
X165303730Y-56808748D01*
X166398920Y-56834499D01*
X166402717Y-56834647D01*
X167149786Y-56874916D01*
X167533699Y-56895611D01*
X167537513Y-56895874D01*
X167751387Y-56913924D01*
X168666209Y-56991131D01*
X168669969Y-56991507D01*
X169173638Y-57049450D01*
X169795167Y-57120952D01*
X169798958Y-57121446D01*
X170919733Y-57284973D01*
X170923508Y-57285582D01*
X171136661Y-57323319D01*
X172038861Y-57483046D01*
X172042556Y-57483758D01*
X172792658Y-57640165D01*
X173151362Y-57714960D01*
X173155092Y-57715797D01*
X174256365Y-57980531D01*
X174260068Y-57981481D01*
X175352793Y-58279502D01*
X175356466Y-58280564D01*
X176396743Y-58598488D01*
X176416551Y-58606431D01*
X176433916Y-58615170D01*
X176442743Y-58616792D01*
X176442745Y-58616793D01*
X176460034Y-58619971D01*
X176477862Y-58624617D01*
X177604740Y-59008234D01*
X177613612Y-59011632D01*
X179841992Y-59963075D01*
X179846030Y-59964884D01*
X181881359Y-60919730D01*
X181886070Y-60922061D01*
X183302206Y-61659987D01*
X190302231Y-65307590D01*
X190304074Y-65308572D01*
X199778196Y-70460917D01*
X207341166Y-74573914D01*
X207360630Y-74586982D01*
X207371269Y-74595664D01*
X207379541Y-74599161D01*
X207396026Y-74606130D01*
X207412481Y-74614559D01*
X208288070Y-75147593D01*
X208291627Y-75149841D01*
X208736231Y-75441500D01*
X209179440Y-75732245D01*
X209182954Y-75734636D01*
X210050623Y-76346659D01*
X210054031Y-76349150D01*
X210337133Y-76563497D01*
X210900574Y-76990101D01*
X210903919Y-76992724D01*
X211728323Y-77661834D01*
X211731578Y-77664568D01*
X212532949Y-78361108D01*
X212536110Y-78363950D01*
X213313565Y-79087158D01*
X213316580Y-79090058D01*
X213621754Y-79393774D01*
X214069195Y-79839077D01*
X214072156Y-79842126D01*
X214799059Y-80616081D01*
X214801913Y-80619223D01*
X214989970Y-80833500D01*
X215473001Y-81383878D01*
X215485784Y-81401239D01*
X215495683Y-81417422D01*
X215495817Y-81417544D01*
X215495914Y-81417702D01*
X215502445Y-81423624D01*
X215502445Y-81423625D01*
X215515793Y-81435730D01*
X215528555Y-81449140D01*
X216177017Y-82239429D01*
X216179681Y-82242790D01*
X216823173Y-83083841D01*
X216825721Y-83087291D01*
X217440216Y-83949756D01*
X217442645Y-83953291D01*
X218027433Y-84836177D01*
X218029740Y-84839793D01*
X218584125Y-85742044D01*
X218586308Y-85745736D01*
X219109672Y-86666346D01*
X219111728Y-86670110D01*
X219603466Y-87608019D01*
X219605392Y-87611851D01*
X220064907Y-88565918D01*
X220066702Y-88569813D01*
X220493481Y-89538969D01*
X220495143Y-89542923D01*
X220888699Y-90526067D01*
X220890225Y-90530076D01*
X221250099Y-91526064D01*
X221251487Y-91530122D01*
X221577231Y-92537711D01*
X221578481Y-92541813D01*
X221869763Y-93559970D01*
X221870872Y-93564114D01*
X222127322Y-94591557D01*
X222128290Y-94595735D01*
X222349627Y-95631327D01*
X222350452Y-95635536D01*
X222536415Y-96678063D01*
X222537096Y-96682297D01*
X222687467Y-97730535D01*
X222688004Y-97734791D01*
X222709132Y-97928866D01*
X222796479Y-98731206D01*
X222802615Y-98787571D01*
X222803004Y-98791815D01*
X222836492Y-99241118D01*
X222881716Y-99847875D01*
X222881962Y-99852156D01*
X222898856Y-100270557D01*
X222924092Y-100895536D01*
X222924687Y-100910275D01*
X222924786Y-100914537D01*
X222926356Y-101163089D01*
X222931473Y-101973491D01*
X222931428Y-101977780D01*
X222903298Y-102992034D01*
X222900854Y-103013474D01*
X222898886Y-103023221D01*
X222898886Y-103023227D01*
X222897109Y-103032027D01*
X222897874Y-103040974D01*
X222897493Y-103047657D01*
X222897519Y-103054361D01*
X222896281Y-103063253D01*
X222897588Y-103072132D01*
X222897588Y-103072135D01*
X222900321Y-103090699D01*
X222901665Y-103108731D01*
X222902549Y-103464594D01*
X222904220Y-104136883D01*
X222904181Y-104140305D01*
X222877953Y-105197989D01*
X222877762Y-105205673D01*
X222877631Y-105209083D01*
X222822162Y-106273344D01*
X222821937Y-106276774D01*
X222737456Y-107339184D01*
X222737136Y-107342606D01*
X222623719Y-108402216D01*
X222623307Y-108405628D01*
X222481025Y-109461793D01*
X222480520Y-109465193D01*
X222309480Y-110517107D01*
X222308882Y-110520491D01*
X222109222Y-111567312D01*
X222108532Y-111570680D01*
X221880384Y-112611700D01*
X221879602Y-112615046D01*
X221638573Y-113587236D01*
X221635269Y-113598347D01*
X221633535Y-113603327D01*
X221629413Y-113611297D01*
X221627693Y-113620106D01*
X221625045Y-113627712D01*
X221622905Y-113635480D01*
X221619318Y-113643707D01*
X221618184Y-113652610D01*
X221615800Y-113661263D01*
X221615654Y-113661223D01*
X221612415Y-113674778D01*
X221303184Y-114542153D01*
X221301430Y-114546783D01*
X220937182Y-115454099D01*
X220935248Y-115458656D01*
X220535633Y-116350973D01*
X220533521Y-116355451D01*
X220456270Y-116511235D01*
X220179318Y-117069735D01*
X220099162Y-117231376D01*
X220096878Y-117235762D01*
X219882085Y-117629271D01*
X219628446Y-118093944D01*
X219625989Y-118098243D01*
X219124194Y-118937376D01*
X219121570Y-118941574D01*
X218587207Y-119760332D01*
X218584420Y-119764424D01*
X218018307Y-120561553D01*
X218015362Y-120565532D01*
X217418363Y-121339817D01*
X217415263Y-121343678D01*
X216788313Y-122093906D01*
X216785064Y-122097642D01*
X216382576Y-122542518D01*
X216129121Y-122822665D01*
X216125740Y-122826257D01*
X215441810Y-123524963D01*
X215438310Y-123528402D01*
X215306838Y-123652558D01*
X214727442Y-124199715D01*
X214723777Y-124203042D01*
X213987127Y-124845876D01*
X213983333Y-124849058D01*
X213790821Y-125004163D01*
X213221981Y-125462470D01*
X213218092Y-125465480D01*
X212722103Y-125833921D01*
X212433198Y-126048531D01*
X212429166Y-126051404D01*
X212141734Y-126247882D01*
X211628087Y-126598993D01*
X211622033Y-126603131D01*
X211617901Y-126605838D01*
X210821169Y-127105698D01*
X210789677Y-127125456D01*
X210785440Y-127127999D01*
X210523602Y-127278272D01*
X209937476Y-127614658D01*
X209933135Y-127617038D01*
X209066672Y-128070029D01*
X209062240Y-128072236D01*
X208965225Y-128118197D01*
X208178651Y-128490837D01*
X208174175Y-128492850D01*
X207368549Y-128836443D01*
X207274847Y-128876406D01*
X207270256Y-128878259D01*
X206356489Y-129226214D01*
X206351888Y-129227862D01*
X205722779Y-129439520D01*
X205425229Y-129539627D01*
X205420507Y-129541114D01*
X204891613Y-129696210D01*
X204482262Y-129816250D01*
X204477508Y-129817543D01*
X203529213Y-130055599D01*
X203524411Y-130056704D01*
X202567486Y-130257325D01*
X202562626Y-130258244D01*
X201598577Y-130421115D01*
X201593711Y-130421839D01*
X200667288Y-130541137D01*
X200645403Y-130542035D01*
X200627203Y-130541196D01*
X200618824Y-130543233D01*
X200607220Y-130543768D01*
X93431649Y-130118637D01*
X72616743Y-130036071D01*
X72614756Y-130036047D01*
X68822880Y-129960712D01*
X68807801Y-129959504D01*
X68773201Y-129954624D01*
X68764316Y-129955916D01*
X68764313Y-129955916D01*
X68747799Y-129958317D01*
X68728768Y-129959625D01*
X68081074Y-129954986D01*
X68075653Y-129954830D01*
X67393314Y-129920543D01*
X67387904Y-129920155D01*
X66707598Y-129856529D01*
X66702234Y-129855909D01*
X66025349Y-129763075D01*
X66020015Y-129762227D01*
X65654285Y-129695922D01*
X65390217Y-129648048D01*
X65368859Y-129642198D01*
X65360654Y-129639153D01*
X65360649Y-129639152D01*
X65352236Y-129636030D01*
X65346458Y-129635620D01*
X65340987Y-129633728D01*
X65318018Y-129632614D01*
X65315140Y-129632474D01*
X65296316Y-129630131D01*
X64851931Y-129540424D01*
X64660688Y-129501818D01*
X64655599Y-129500680D01*
X63991145Y-129337666D01*
X63986107Y-129336319D01*
X63328943Y-129145940D01*
X63323965Y-129144385D01*
X62675275Y-128926986D01*
X62670365Y-128925227D01*
X62031193Y-128681158D01*
X62026361Y-128679197D01*
X61523122Y-128462769D01*
X61397858Y-128408896D01*
X61393130Y-128406746D01*
X60815447Y-128129437D01*
X60796487Y-128118197D01*
X60788963Y-128112795D01*
X60788964Y-128112795D01*
X60781909Y-128107730D01*
X60780848Y-128107357D01*
X60779933Y-128106706D01*
X60771717Y-128103856D01*
X60771713Y-128103854D01*
X60755527Y-128098240D01*
X60738106Y-128090683D01*
X60132646Y-127771803D01*
X60128074Y-127769272D01*
X59751092Y-127550186D01*
X135532730Y-127550186D01*
X135534479Y-127586589D01*
X135545623Y-127818605D01*
X135598050Y-128082169D01*
X135688857Y-128335089D01*
X135691074Y-128339215D01*
X135728518Y-128408901D01*
X135816051Y-128571809D01*
X135818846Y-128575552D01*
X135818848Y-128575555D01*
X135974046Y-128783390D01*
X135974051Y-128783396D01*
X135976838Y-128787128D01*
X135980147Y-128790408D01*
X135980152Y-128790414D01*
X136164367Y-128973028D01*
X136167684Y-128976316D01*
X136171446Y-128979074D01*
X136171449Y-128979077D01*
X136380631Y-129132456D01*
X136384398Y-129135218D01*
X136388529Y-129137392D01*
X136388530Y-129137392D01*
X136618084Y-129258166D01*
X136618090Y-129258168D01*
X136622219Y-129260341D01*
X136626626Y-129261880D01*
X136626633Y-129261883D01*
X136871506Y-129347396D01*
X136875922Y-129348938D01*
X136880515Y-129349810D01*
X137135345Y-129398191D01*
X137135348Y-129398191D01*
X137139934Y-129399062D01*
X137274194Y-129404337D01*
X137403786Y-129409430D01*
X137403792Y-129409430D01*
X137408454Y-129409613D01*
X137490149Y-129400666D01*
X137670932Y-129380867D01*
X137670937Y-129380866D01*
X137675585Y-129380357D01*
X137935457Y-129311938D01*
X138135012Y-129226203D01*
X138178059Y-129207709D01*
X138178062Y-129207707D01*
X138182362Y-129205860D01*
X138186342Y-129203397D01*
X138186346Y-129203395D01*
X138406892Y-129066916D01*
X138406894Y-129066914D01*
X138410875Y-129064451D01*
X138468012Y-129016081D01*
X138612404Y-128893845D01*
X138612406Y-128893843D01*
X138615977Y-128890820D01*
X138793161Y-128688780D01*
X138809776Y-128662950D01*
X138936011Y-128466695D01*
X138936013Y-128466692D01*
X138938536Y-128462769D01*
X139048907Y-128217753D01*
X139121851Y-127959115D01*
X139155764Y-127692536D01*
X139156097Y-127679847D01*
X139157771Y-127615899D01*
X139158249Y-127597647D01*
X139138334Y-127329658D01*
X139127734Y-127282811D01*
X139092127Y-127125456D01*
X139079026Y-127067557D01*
X139063210Y-127026886D01*
X138983322Y-126821453D01*
X138983321Y-126821451D01*
X138981629Y-126817100D01*
X138848282Y-126583791D01*
X138681914Y-126372755D01*
X138486181Y-126188627D01*
X138440124Y-126156676D01*
X138269224Y-126038118D01*
X138269221Y-126038116D01*
X138265382Y-126035453D01*
X138261192Y-126033387D01*
X138261189Y-126033385D01*
X138028555Y-125918663D01*
X138028552Y-125918662D01*
X138024367Y-125916598D01*
X137768432Y-125834672D01*
X137763825Y-125833922D01*
X137763822Y-125833921D01*
X137507809Y-125792227D01*
X137507810Y-125792227D01*
X137503198Y-125791476D01*
X137372896Y-125789771D01*
X137239171Y-125788020D01*
X137239168Y-125788020D01*
X137234494Y-125787959D01*
X136968221Y-125824197D01*
X136963731Y-125825506D01*
X136963725Y-125825507D01*
X136853957Y-125857502D01*
X136710229Y-125899395D01*
X136705982Y-125901353D01*
X136705979Y-125901354D01*
X136668433Y-125918663D01*
X136466185Y-126011900D01*
X136462276Y-126014463D01*
X136245365Y-126156676D01*
X136245360Y-126156680D01*
X136241452Y-126159242D01*
X136040966Y-126338183D01*
X135869131Y-126544792D01*
X135866708Y-126548785D01*
X135832084Y-126605844D01*
X135729722Y-126774530D01*
X135727915Y-126778838D01*
X135727915Y-126778839D01*
X135627895Y-127017360D01*
X135625802Y-127022351D01*
X135559654Y-127282811D01*
X135532730Y-127550186D01*
X59751092Y-127550186D01*
X59505554Y-127407490D01*
X59501113Y-127404785D01*
X58894194Y-127017356D01*
X58889832Y-127014441D01*
X58299642Y-126602090D01*
X58295400Y-126598993D01*
X57722890Y-126162388D01*
X57718780Y-126159116D01*
X57164994Y-125699050D01*
X57161024Y-125695610D01*
X56626870Y-125212841D01*
X56623047Y-125209238D01*
X56140412Y-124735017D01*
X56126091Y-124718238D01*
X56120912Y-124710967D01*
X56115705Y-124703656D01*
X56108903Y-124698295D01*
X56108300Y-124697596D01*
X56106221Y-124695505D01*
X56105524Y-124694898D01*
X56100199Y-124688061D01*
X56079033Y-124672803D01*
X56064600Y-124660658D01*
X55574350Y-124181002D01*
X55570853Y-124177442D01*
X55075374Y-123652530D01*
X55072034Y-123648847D01*
X54597808Y-123104649D01*
X54594593Y-123100807D01*
X54142416Y-122538241D01*
X54139356Y-122534276D01*
X53709865Y-121954138D01*
X53706965Y-121950053D01*
X53325424Y-121389379D01*
X53314707Y-121370235D01*
X53310938Y-121361866D01*
X53310935Y-121361861D01*
X53307248Y-121353675D01*
X53301410Y-121346851D01*
X53298808Y-121342750D01*
X53296034Y-121338857D01*
X53291918Y-121330886D01*
X53274038Y-121312119D01*
X53262032Y-121297450D01*
X52824950Y-120672904D01*
X52822070Y-120668603D01*
X52391729Y-119996520D01*
X52389027Y-119992104D01*
X52220195Y-119702925D01*
X51986621Y-119302852D01*
X51984128Y-119298373D01*
X51610387Y-118593200D01*
X51608061Y-118588586D01*
X51598656Y-118568928D01*
X51263610Y-117868678D01*
X51261473Y-117863966D01*
X50946873Y-117130493D01*
X50944931Y-117125695D01*
X50878534Y-116951466D01*
X50823093Y-116805986D01*
X51890530Y-116805986D01*
X51892279Y-116842389D01*
X51903423Y-117074405D01*
X51955850Y-117337969D01*
X52046657Y-117590889D01*
X52048874Y-117595015D01*
X52075879Y-117645273D01*
X52173851Y-117827609D01*
X52176646Y-117831352D01*
X52176648Y-117831355D01*
X52331846Y-118039190D01*
X52331851Y-118039196D01*
X52334638Y-118042928D01*
X52337947Y-118046208D01*
X52337952Y-118046214D01*
X52442290Y-118149645D01*
X52525484Y-118232116D01*
X52529246Y-118234874D01*
X52529249Y-118234877D01*
X52645684Y-118320251D01*
X52742198Y-118391018D01*
X52746329Y-118393192D01*
X52746330Y-118393192D01*
X52975884Y-118513966D01*
X52975890Y-118513968D01*
X52980019Y-118516141D01*
X52984426Y-118517680D01*
X52984433Y-118517683D01*
X53229306Y-118603196D01*
X53233722Y-118604738D01*
X53238315Y-118605610D01*
X53493145Y-118653991D01*
X53493148Y-118653991D01*
X53497734Y-118654862D01*
X53631994Y-118660137D01*
X53761586Y-118665230D01*
X53761592Y-118665230D01*
X53766254Y-118665413D01*
X53847949Y-118656466D01*
X54028732Y-118636667D01*
X54028737Y-118636666D01*
X54033385Y-118636157D01*
X54293257Y-118567738D01*
X54418416Y-118513966D01*
X54535859Y-118463509D01*
X54535862Y-118463507D01*
X54540162Y-118461660D01*
X54544142Y-118459197D01*
X54544146Y-118459195D01*
X54764692Y-118322716D01*
X54764694Y-118322714D01*
X54768675Y-118320251D01*
X54973777Y-118146620D01*
X55150961Y-117944580D01*
X55199782Y-117868680D01*
X55293811Y-117722495D01*
X55293813Y-117722492D01*
X55296336Y-117718569D01*
X55406707Y-117473553D01*
X55474383Y-117233594D01*
X55478381Y-117219419D01*
X55478382Y-117219416D01*
X55479651Y-117214915D01*
X55513564Y-116948336D01*
X55516049Y-116853447D01*
X55496134Y-116585458D01*
X55485534Y-116538611D01*
X55445820Y-116363105D01*
X55436826Y-116323357D01*
X55421010Y-116282686D01*
X55341122Y-116077253D01*
X55341121Y-116077251D01*
X55339429Y-116072900D01*
X55206082Y-115839591D01*
X55039714Y-115628555D01*
X54843981Y-115444427D01*
X54725505Y-115362237D01*
X54627024Y-115293918D01*
X54627021Y-115293916D01*
X54623182Y-115291253D01*
X54618992Y-115289187D01*
X54618989Y-115289185D01*
X54386355Y-115174463D01*
X54386352Y-115174462D01*
X54382167Y-115172398D01*
X54126232Y-115090472D01*
X54121625Y-115089722D01*
X54121622Y-115089721D01*
X53865609Y-115048027D01*
X53865610Y-115048027D01*
X53860998Y-115047276D01*
X53730696Y-115045571D01*
X53596971Y-115043820D01*
X53596968Y-115043820D01*
X53592294Y-115043759D01*
X53326021Y-115079997D01*
X53321531Y-115081306D01*
X53321525Y-115081307D01*
X53216416Y-115111944D01*
X53068029Y-115155195D01*
X53063782Y-115157153D01*
X53063779Y-115157154D01*
X53026233Y-115174463D01*
X52823985Y-115267700D01*
X52820076Y-115270263D01*
X52603165Y-115412476D01*
X52603160Y-115412480D01*
X52599252Y-115415042D01*
X52398766Y-115593983D01*
X52226931Y-115800592D01*
X52224508Y-115804585D01*
X52205492Y-115835923D01*
X52087522Y-116030330D01*
X52085715Y-116034638D01*
X52085715Y-116034639D01*
X52065699Y-116082373D01*
X51983602Y-116278151D01*
X51982451Y-116282683D01*
X51982450Y-116282686D01*
X51960079Y-116370773D01*
X51917454Y-116538611D01*
X51890530Y-116805986D01*
X50823093Y-116805986D01*
X50682259Y-116436427D01*
X50679422Y-116425315D01*
X50678744Y-116425508D01*
X50676284Y-116416876D01*
X50675072Y-116407982D01*
X50671413Y-116399786D01*
X50670078Y-116395102D01*
X50668496Y-116390505D01*
X50666810Y-116381691D01*
X50662718Y-116373707D01*
X50661709Y-116370773D01*
X50653839Y-116350494D01*
X50489561Y-115749335D01*
X50488157Y-115743687D01*
X50340436Y-115084840D01*
X50339295Y-115079134D01*
X50250487Y-114575000D01*
X97886496Y-114575000D01*
X97887186Y-114581565D01*
X97903141Y-114733365D01*
X97906458Y-114764928D01*
X97965473Y-114946556D01*
X98060960Y-115111944D01*
X98065378Y-115116851D01*
X98065379Y-115116852D01*
X98169733Y-115232749D01*
X98188747Y-115253866D01*
X98240206Y-115291253D01*
X98308839Y-115341118D01*
X98343248Y-115366118D01*
X98349276Y-115368802D01*
X98349278Y-115368803D01*
X98464642Y-115420166D01*
X98517712Y-115443794D01*
X98587632Y-115458656D01*
X98698056Y-115482128D01*
X98698061Y-115482128D01*
X98704513Y-115483500D01*
X98895487Y-115483500D01*
X98901939Y-115482128D01*
X98901944Y-115482128D01*
X99012368Y-115458656D01*
X99082288Y-115443794D01*
X99135358Y-115420166D01*
X99250722Y-115368803D01*
X99250724Y-115368802D01*
X99256752Y-115366118D01*
X99291162Y-115341118D01*
X99394906Y-115265743D01*
X99411253Y-115253866D01*
X99430271Y-115232745D01*
X99437074Y-115225189D01*
X99497520Y-115187950D01*
X99530710Y-115183500D01*
X150041800Y-115183500D01*
X150109921Y-115203502D01*
X150129147Y-115219843D01*
X150129420Y-115219540D01*
X150134332Y-115223963D01*
X150138747Y-115228866D01*
X150293248Y-115341118D01*
X150299276Y-115343802D01*
X150299278Y-115343803D01*
X150461681Y-115416109D01*
X150467712Y-115418794D01*
X150561112Y-115438647D01*
X150648056Y-115457128D01*
X150648061Y-115457128D01*
X150654513Y-115458500D01*
X150845487Y-115458500D01*
X150851939Y-115457128D01*
X150851944Y-115457128D01*
X150938888Y-115438647D01*
X151032288Y-115418794D01*
X151038319Y-115416109D01*
X151200722Y-115343803D01*
X151200724Y-115343802D01*
X151206752Y-115341118D01*
X151361253Y-115228866D01*
X151466530Y-115111944D01*
X151484621Y-115091852D01*
X151484622Y-115091851D01*
X151489040Y-115086944D01*
X151584527Y-114921556D01*
X151643542Y-114739928D01*
X151663504Y-114550000D01*
X151648625Y-114408437D01*
X151644232Y-114366635D01*
X151644232Y-114366633D01*
X151643542Y-114360072D01*
X151584527Y-114178444D01*
X151489040Y-114013056D01*
X151416288Y-113932256D01*
X151365675Y-113876045D01*
X151365674Y-113876044D01*
X151361253Y-113871134D01*
X151246503Y-113787763D01*
X151212094Y-113762763D01*
X151212093Y-113762762D01*
X151206752Y-113758882D01*
X151200724Y-113756198D01*
X151200722Y-113756197D01*
X151038319Y-113683891D01*
X151038318Y-113683891D01*
X151032288Y-113681206D01*
X150938276Y-113661223D01*
X150851944Y-113642872D01*
X150851939Y-113642872D01*
X150845487Y-113641500D01*
X150654513Y-113641500D01*
X150648061Y-113642872D01*
X150648056Y-113642872D01*
X150561724Y-113661223D01*
X150467712Y-113681206D01*
X150461682Y-113683891D01*
X150461681Y-113683891D01*
X150299278Y-113756197D01*
X150299276Y-113756198D01*
X150293248Y-113758882D01*
X150287907Y-113762762D01*
X150287906Y-113762763D01*
X150253497Y-113787763D01*
X150138747Y-113871134D01*
X150134332Y-113876037D01*
X150129420Y-113880460D01*
X150128295Y-113879211D01*
X150074986Y-113912051D01*
X150041800Y-113916500D01*
X99480224Y-113916500D01*
X99412103Y-113896498D01*
X99406163Y-113892436D01*
X99405909Y-113892251D01*
X99256752Y-113783882D01*
X99250724Y-113781198D01*
X99250722Y-113781197D01*
X99088319Y-113708891D01*
X99088318Y-113708891D01*
X99082288Y-113706206D01*
X98977305Y-113683891D01*
X98901944Y-113667872D01*
X98901939Y-113667872D01*
X98895487Y-113666500D01*
X98704513Y-113666500D01*
X98698061Y-113667872D01*
X98698056Y-113667872D01*
X98622695Y-113683891D01*
X98517712Y-113706206D01*
X98511682Y-113708891D01*
X98511681Y-113708891D01*
X98349278Y-113781197D01*
X98349276Y-113781198D01*
X98343248Y-113783882D01*
X98188747Y-113896134D01*
X98184326Y-113901044D01*
X98184325Y-113901045D01*
X98078322Y-114018774D01*
X98060960Y-114038056D01*
X97965473Y-114203444D01*
X97906458Y-114385072D01*
X97905768Y-114391633D01*
X97905768Y-114391635D01*
X97889948Y-114542153D01*
X97886496Y-114575000D01*
X50250487Y-114575000D01*
X50222159Y-114414191D01*
X50221282Y-114408437D01*
X50134976Y-113738800D01*
X50134365Y-113733013D01*
X50100108Y-113316118D01*
X50079067Y-113060046D01*
X50078726Y-113054253D01*
X50077260Y-113013292D01*
X50056095Y-112422252D01*
X50057278Y-112399951D01*
X50059725Y-112382801D01*
X50059329Y-112380046D01*
X50059693Y-112377284D01*
X50057850Y-112365367D01*
X50055378Y-112349390D01*
X50053904Y-112331582D01*
X50051845Y-112153444D01*
X50042323Y-111329974D01*
X50042324Y-111327004D01*
X50043535Y-111227869D01*
X50055016Y-110287324D01*
X50055089Y-110284344D01*
X50092485Y-109245358D01*
X50092628Y-109242366D01*
X50150841Y-108269186D01*
X50152841Y-108257722D01*
X50152219Y-108257632D01*
X50153504Y-108248748D01*
X50156036Y-108240137D01*
X50156049Y-108231164D01*
X50156971Y-108224790D01*
X50157510Y-108218377D01*
X50159522Y-108209629D01*
X50158998Y-108200667D01*
X50159512Y-108194552D01*
X50160347Y-108176553D01*
X50276063Y-107416334D01*
X50276901Y-107411471D01*
X50432673Y-106602480D01*
X50433701Y-106597653D01*
X50621032Y-105795385D01*
X50622248Y-105790603D01*
X50812307Y-105100000D01*
X104511496Y-105100000D01*
X104512186Y-105106565D01*
X104522603Y-105205673D01*
X104531458Y-105289928D01*
X104590473Y-105471556D01*
X104593776Y-105477278D01*
X104593777Y-105477279D01*
X104622700Y-105527375D01*
X104685960Y-105636944D01*
X104813747Y-105778866D01*
X104968248Y-105891118D01*
X104974276Y-105893802D01*
X104974278Y-105893803D01*
X105136681Y-105966109D01*
X105142712Y-105968794D01*
X105236113Y-105988647D01*
X105323056Y-106007128D01*
X105323061Y-106007128D01*
X105329513Y-106008500D01*
X105520487Y-106008500D01*
X105526939Y-106007128D01*
X105526944Y-106007128D01*
X105613887Y-105988647D01*
X105707288Y-105968794D01*
X105713319Y-105966109D01*
X105875722Y-105893803D01*
X105875724Y-105893802D01*
X105881752Y-105891118D01*
X106036253Y-105778866D01*
X106040668Y-105773963D01*
X106045580Y-105769540D01*
X106046705Y-105770789D01*
X106100014Y-105737949D01*
X106133200Y-105733500D01*
X111410406Y-105733500D01*
X111478527Y-105753502D01*
X111499501Y-105770405D01*
X118202878Y-112473782D01*
X118236904Y-112536094D01*
X118239092Y-112549703D01*
X118256458Y-112714928D01*
X118315473Y-112896556D01*
X118410960Y-113061944D01*
X118538747Y-113203866D01*
X118693248Y-113316118D01*
X118699276Y-113318802D01*
X118699278Y-113318803D01*
X118861681Y-113391109D01*
X118867712Y-113393794D01*
X118961112Y-113413647D01*
X119048056Y-113432128D01*
X119048061Y-113432128D01*
X119054513Y-113433500D01*
X119245487Y-113433500D01*
X119251939Y-113432128D01*
X119251944Y-113432128D01*
X119338887Y-113413647D01*
X119432288Y-113393794D01*
X119438319Y-113391109D01*
X119600722Y-113318803D01*
X119600724Y-113318802D01*
X119606752Y-113316118D01*
X119761253Y-113203866D01*
X119889040Y-113061944D01*
X119984527Y-112896556D01*
X120043542Y-112714928D01*
X120063504Y-112525000D01*
X120049269Y-112389563D01*
X120044232Y-112341635D01*
X120044232Y-112341633D01*
X120043542Y-112335072D01*
X119984527Y-112153444D01*
X119889040Y-111988056D01*
X119761253Y-111846134D01*
X119606752Y-111733882D01*
X119600724Y-111731198D01*
X119600722Y-111731197D01*
X119438319Y-111658891D01*
X119438318Y-111658891D01*
X119432288Y-111656206D01*
X119338887Y-111636353D01*
X119251944Y-111617872D01*
X119251939Y-111617872D01*
X119245487Y-111616500D01*
X119189595Y-111616500D01*
X119121474Y-111596498D01*
X119100500Y-111579595D01*
X112420405Y-104899500D01*
X112386379Y-104837188D01*
X112383500Y-104810405D01*
X112383500Y-103464594D01*
X112403502Y-103396473D01*
X112420405Y-103375499D01*
X115250499Y-100545405D01*
X115312811Y-100511379D01*
X115339594Y-100508500D01*
X115395487Y-100508500D01*
X115401939Y-100507128D01*
X115401944Y-100507128D01*
X115488888Y-100488647D01*
X115582288Y-100468794D01*
X115605555Y-100458435D01*
X115750722Y-100393803D01*
X115750724Y-100393802D01*
X115756752Y-100391118D01*
X115791162Y-100366118D01*
X115870193Y-100308698D01*
X115911253Y-100278866D01*
X115915675Y-100273955D01*
X116034621Y-100141852D01*
X116034622Y-100141851D01*
X116039040Y-100136944D01*
X116108842Y-100016044D01*
X116131223Y-99977279D01*
X116131224Y-99977278D01*
X116134527Y-99971556D01*
X116193542Y-99789928D01*
X116196183Y-99764806D01*
X116212814Y-99606565D01*
X116213504Y-99600000D01*
X116193542Y-99410072D01*
X116134527Y-99228444D01*
X116126708Y-99214900D01*
X116072877Y-99121663D01*
X116039040Y-99063056D01*
X116021679Y-99043774D01*
X115915675Y-98926045D01*
X115915674Y-98926044D01*
X115911253Y-98921134D01*
X115756752Y-98808882D01*
X115750724Y-98806198D01*
X115750722Y-98806197D01*
X115588319Y-98733891D01*
X115588318Y-98733891D01*
X115582288Y-98731206D01*
X115477305Y-98708891D01*
X115401944Y-98692872D01*
X115401939Y-98692872D01*
X115395487Y-98691500D01*
X115204513Y-98691500D01*
X115198061Y-98692872D01*
X115198056Y-98692872D01*
X115122695Y-98708891D01*
X115017712Y-98731206D01*
X115011682Y-98733891D01*
X115011681Y-98733891D01*
X114849278Y-98806197D01*
X114849276Y-98806198D01*
X114843248Y-98808882D01*
X114688747Y-98921134D01*
X114684326Y-98926044D01*
X114684325Y-98926045D01*
X114578322Y-99043774D01*
X114560960Y-99063056D01*
X114527123Y-99121663D01*
X114473293Y-99214900D01*
X114465473Y-99228444D01*
X114406458Y-99410072D01*
X114393006Y-99538066D01*
X114389093Y-99575293D01*
X114362080Y-99640950D01*
X114352878Y-99651218D01*
X111357747Y-102646348D01*
X111349461Y-102653888D01*
X111342982Y-102658000D01*
X111337557Y-102663777D01*
X111296357Y-102707651D01*
X111293602Y-102710493D01*
X111273865Y-102730230D01*
X111271385Y-102733427D01*
X111263682Y-102742447D01*
X111233414Y-102774679D01*
X111229595Y-102781625D01*
X111229593Y-102781628D01*
X111223652Y-102792434D01*
X111212801Y-102808953D01*
X111200386Y-102824959D01*
X111197241Y-102832228D01*
X111197238Y-102832232D01*
X111182826Y-102865537D01*
X111177609Y-102876187D01*
X111156305Y-102914940D01*
X111154334Y-102922615D01*
X111154334Y-102922616D01*
X111151267Y-102934562D01*
X111144863Y-102953266D01*
X111136819Y-102971855D01*
X111135580Y-102979678D01*
X111135577Y-102979688D01*
X111129901Y-103015524D01*
X111127495Y-103027144D01*
X111122229Y-103047657D01*
X111116500Y-103069970D01*
X111116500Y-103090224D01*
X111114949Y-103109934D01*
X111111780Y-103129943D01*
X111112526Y-103137835D01*
X111115941Y-103173961D01*
X111116500Y-103185819D01*
X111116500Y-104340500D01*
X111096498Y-104408621D01*
X111042842Y-104455114D01*
X110990500Y-104466500D01*
X106133200Y-104466500D01*
X106065079Y-104446498D01*
X106045853Y-104430157D01*
X106045580Y-104430460D01*
X106040668Y-104426037D01*
X106036253Y-104421134D01*
X105881752Y-104308882D01*
X105875724Y-104306198D01*
X105875722Y-104306197D01*
X105713319Y-104233891D01*
X105713318Y-104233891D01*
X105707288Y-104231206D01*
X105613888Y-104211353D01*
X105526944Y-104192872D01*
X105526939Y-104192872D01*
X105520487Y-104191500D01*
X105329513Y-104191500D01*
X105323061Y-104192872D01*
X105323056Y-104192872D01*
X105236112Y-104211353D01*
X105142712Y-104231206D01*
X105136682Y-104233891D01*
X105136681Y-104233891D01*
X104974278Y-104306197D01*
X104974276Y-104306198D01*
X104968248Y-104308882D01*
X104813747Y-104421134D01*
X104685960Y-104563056D01*
X104590473Y-104728444D01*
X104531458Y-104910072D01*
X104511496Y-105100000D01*
X50812307Y-105100000D01*
X50840846Y-104996302D01*
X50842248Y-104991570D01*
X50976623Y-104568774D01*
X51091799Y-104206387D01*
X51093381Y-104201729D01*
X51112100Y-104149952D01*
X51253838Y-103757886D01*
X51373469Y-103426971D01*
X51375237Y-103422364D01*
X51685455Y-102659151D01*
X51687402Y-102654617D01*
X52027273Y-101904125D01*
X52029397Y-101899670D01*
X52398383Y-101163089D01*
X52400679Y-101158721D01*
X52798238Y-100437130D01*
X52800704Y-100432855D01*
X53203644Y-99764806D01*
X53216538Y-99747112D01*
X53228523Y-99733358D01*
X53232285Y-99725206D01*
X53234765Y-99721375D01*
X53237050Y-99717402D01*
X53242586Y-99710330D01*
X53252474Y-99685553D01*
X53260613Y-99668855D01*
X53315274Y-99575000D01*
X80611496Y-99575000D01*
X80612186Y-99581565D01*
X80630077Y-99751785D01*
X80631458Y-99764928D01*
X80690473Y-99946556D01*
X80785960Y-100111944D01*
X80790378Y-100116851D01*
X80790379Y-100116852D01*
X80872452Y-100208003D01*
X80913747Y-100253866D01*
X81068248Y-100366118D01*
X81074276Y-100368802D01*
X81074278Y-100368803D01*
X81218142Y-100432855D01*
X81242712Y-100443794D01*
X81336113Y-100463647D01*
X81423056Y-100482128D01*
X81423061Y-100482128D01*
X81429513Y-100483500D01*
X81620487Y-100483500D01*
X81626939Y-100482128D01*
X81626944Y-100482128D01*
X81713887Y-100463647D01*
X81807288Y-100443794D01*
X81831858Y-100432855D01*
X81975722Y-100368803D01*
X81975724Y-100368802D01*
X81981752Y-100366118D01*
X82136253Y-100253866D01*
X82140668Y-100248963D01*
X82145580Y-100244540D01*
X82146705Y-100245789D01*
X82200014Y-100212949D01*
X82233200Y-100208500D01*
X110221233Y-100208500D01*
X110232416Y-100209027D01*
X110239909Y-100210702D01*
X110247835Y-100210453D01*
X110247836Y-100210453D01*
X110307986Y-100208562D01*
X110311945Y-100208500D01*
X110339856Y-100208500D01*
X110343791Y-100208003D01*
X110343856Y-100207995D01*
X110355693Y-100207062D01*
X110387951Y-100206048D01*
X110391970Y-100205922D01*
X110399889Y-100205673D01*
X110419343Y-100200021D01*
X110438700Y-100196013D01*
X110450930Y-100194468D01*
X110450931Y-100194468D01*
X110458797Y-100193474D01*
X110466168Y-100190555D01*
X110466170Y-100190555D01*
X110499912Y-100177196D01*
X110511142Y-100173351D01*
X110545983Y-100163229D01*
X110545984Y-100163229D01*
X110553593Y-100161018D01*
X110560412Y-100156985D01*
X110560417Y-100156983D01*
X110571028Y-100150707D01*
X110588776Y-100142012D01*
X110607617Y-100134552D01*
X110643387Y-100108564D01*
X110653307Y-100102048D01*
X110684535Y-100083580D01*
X110684538Y-100083578D01*
X110691362Y-100079542D01*
X110705683Y-100065221D01*
X110720717Y-100052380D01*
X110730694Y-100045131D01*
X110737107Y-100040472D01*
X110765298Y-100006395D01*
X110773288Y-99997616D01*
X112575499Y-98195405D01*
X112637811Y-98161379D01*
X112664594Y-98158500D01*
X112720487Y-98158500D01*
X112726939Y-98157128D01*
X112726944Y-98157128D01*
X112813888Y-98138647D01*
X112907288Y-98118794D01*
X113051042Y-98054791D01*
X113075722Y-98043803D01*
X113075724Y-98043802D01*
X113081752Y-98041118D01*
X113236253Y-97928866D01*
X113364040Y-97786944D01*
X113459527Y-97621556D01*
X113518542Y-97439928D01*
X113538504Y-97250000D01*
X113518542Y-97060072D01*
X113459527Y-96878444D01*
X113364040Y-96713056D01*
X113236253Y-96571134D01*
X113110719Y-96479928D01*
X113087094Y-96462763D01*
X113087093Y-96462762D01*
X113081752Y-96458882D01*
X113075724Y-96456198D01*
X113075722Y-96456197D01*
X112913319Y-96383891D01*
X112913318Y-96383891D01*
X112907288Y-96381206D01*
X112813888Y-96361353D01*
X112726944Y-96342872D01*
X112726939Y-96342872D01*
X112720487Y-96341500D01*
X112529513Y-96341500D01*
X112523061Y-96342872D01*
X112523056Y-96342872D01*
X112436113Y-96361353D01*
X112342712Y-96381206D01*
X112336682Y-96383891D01*
X112336681Y-96383891D01*
X112174278Y-96456197D01*
X112174276Y-96456198D01*
X112168248Y-96458882D01*
X112162907Y-96462762D01*
X112162906Y-96462763D01*
X112139281Y-96479928D01*
X112013747Y-96571134D01*
X111885960Y-96713056D01*
X111790473Y-96878444D01*
X111731458Y-97060072D01*
X111730768Y-97066633D01*
X111730768Y-97066635D01*
X111714093Y-97225293D01*
X111687080Y-97290950D01*
X111677878Y-97301218D01*
X110074500Y-98904595D01*
X110012188Y-98938621D01*
X109985405Y-98941500D01*
X82233200Y-98941500D01*
X82165079Y-98921498D01*
X82145853Y-98905157D01*
X82145580Y-98905460D01*
X82140668Y-98901037D01*
X82136253Y-98896134D01*
X82021503Y-98812763D01*
X81987094Y-98787763D01*
X81987093Y-98787762D01*
X81981752Y-98783882D01*
X81975724Y-98781198D01*
X81975722Y-98781197D01*
X81813319Y-98708891D01*
X81813318Y-98708891D01*
X81807288Y-98706206D01*
X81713888Y-98686353D01*
X81626944Y-98667872D01*
X81626939Y-98667872D01*
X81620487Y-98666500D01*
X81429513Y-98666500D01*
X81423061Y-98667872D01*
X81423056Y-98667872D01*
X81336112Y-98686353D01*
X81242712Y-98706206D01*
X81236682Y-98708891D01*
X81236681Y-98708891D01*
X81074278Y-98781197D01*
X81074276Y-98781198D01*
X81068248Y-98783882D01*
X81062907Y-98787762D01*
X81062906Y-98787763D01*
X81028497Y-98812763D01*
X80913747Y-98896134D01*
X80909326Y-98901044D01*
X80909325Y-98901045D01*
X80796306Y-99026566D01*
X80785960Y-99038056D01*
X80782659Y-99043774D01*
X80709425Y-99170619D01*
X80690473Y-99203444D01*
X80631458Y-99385072D01*
X80630768Y-99391633D01*
X80630768Y-99391635D01*
X80615378Y-99538066D01*
X80611496Y-99575000D01*
X53315274Y-99575000D01*
X53725439Y-98870738D01*
X53727743Y-98866937D01*
X54239925Y-98054791D01*
X54242362Y-98051075D01*
X54782833Y-97257550D01*
X54785399Y-97253921D01*
X55353535Y-96479928D01*
X55356227Y-96476392D01*
X55951332Y-95722883D01*
X55954148Y-95719445D01*
X56575408Y-94987451D01*
X56578343Y-94984113D01*
X57225078Y-94274434D01*
X57228129Y-94271203D01*
X57899461Y-93584804D01*
X57902624Y-93581682D01*
X58597758Y-92919374D01*
X58601030Y-92916365D01*
X59319082Y-92278991D01*
X59322457Y-92276100D01*
X60062532Y-91664453D01*
X60066007Y-91661682D01*
X60827224Y-91076492D01*
X60830795Y-91073846D01*
X61612164Y-90515875D01*
X61615826Y-90513357D01*
X62416360Y-89983308D01*
X62420108Y-89980920D01*
X63201169Y-89502505D01*
X63220544Y-89492821D01*
X63229638Y-89489216D01*
X63229643Y-89489213D01*
X63237987Y-89485905D01*
X63252755Y-89474397D01*
X63270772Y-89462680D01*
X64301275Y-88911481D01*
X64306725Y-88908735D01*
X65716610Y-88240895D01*
X65726297Y-88236793D01*
X66916706Y-87790389D01*
X66918269Y-87789814D01*
X67486684Y-87585185D01*
X68813401Y-87107566D01*
X68815739Y-87106752D01*
X72873442Y-85737277D01*
X72873499Y-85737258D01*
X78575520Y-83815857D01*
X134625921Y-83815857D01*
X134626727Y-83824795D01*
X134629008Y-83850107D01*
X134629052Y-83850910D01*
X134628987Y-83852012D01*
X134629273Y-83854980D01*
X134629273Y-83854984D01*
X134631968Y-83882966D01*
X134632039Y-83883734D01*
X134638308Y-83953291D01*
X134638983Y-83960784D01*
X134639494Y-83962085D01*
X134639713Y-83963405D01*
X135864403Y-96682297D01*
X137213786Y-110696167D01*
X137219795Y-110758577D01*
X137219856Y-110759233D01*
X137226818Y-110836481D01*
X137230101Y-110844837D01*
X137230102Y-110844840D01*
X137237619Y-110863970D01*
X137242788Y-110880316D01*
X137249756Y-110909009D01*
X137254234Y-110916781D01*
X137254236Y-110916786D01*
X137262559Y-110931230D01*
X137270655Y-110948051D01*
X137280032Y-110971917D01*
X137285523Y-110979009D01*
X137285525Y-110979012D01*
X137298110Y-110995265D01*
X137307658Y-111009501D01*
X137322403Y-111035092D01*
X137328885Y-111041297D01*
X137328888Y-111041301D01*
X137340928Y-111052827D01*
X137353420Y-111066700D01*
X137369118Y-111086974D01*
X137376385Y-111092244D01*
X137376386Y-111092245D01*
X137393020Y-111104308D01*
X137406176Y-111115289D01*
X137421030Y-111129508D01*
X137421034Y-111129511D01*
X137427517Y-111135717D01*
X137450279Y-111147541D01*
X137466161Y-111157351D01*
X137486916Y-111172402D01*
X137514731Y-111182334D01*
X137530435Y-111189179D01*
X137548682Y-111198658D01*
X137548685Y-111198659D01*
X137556649Y-111202796D01*
X137565453Y-111204531D01*
X137565455Y-111204532D01*
X137581808Y-111207755D01*
X137599808Y-111212713D01*
X137615505Y-111218318D01*
X137615511Y-111218319D01*
X137623957Y-111221335D01*
X137653441Y-111223061D01*
X137670440Y-111225224D01*
X137699417Y-111230935D01*
X137724141Y-111228707D01*
X137733670Y-111227848D01*
X137734472Y-111227804D01*
X137735572Y-111227869D01*
X137766700Y-111224871D01*
X137766808Y-111224861D01*
X137844344Y-111217874D01*
X137845650Y-111217361D01*
X137846966Y-111217143D01*
X188476744Y-106342049D01*
X195001660Y-105713771D01*
X195002428Y-105713700D01*
X195070682Y-105707549D01*
X195079625Y-105706743D01*
X195107123Y-105695939D01*
X195123457Y-105690773D01*
X195152153Y-105683804D01*
X195159929Y-105679324D01*
X195159933Y-105679322D01*
X195174363Y-105671007D01*
X195191193Y-105662907D01*
X195206705Y-105656813D01*
X195206710Y-105656810D01*
X195215061Y-105653529D01*
X195238417Y-105635444D01*
X195252645Y-105625902D01*
X195270462Y-105615636D01*
X195278236Y-105611157D01*
X195295966Y-105592636D01*
X195309839Y-105580145D01*
X195323020Y-105569940D01*
X195323025Y-105569935D01*
X195330118Y-105564443D01*
X195347457Y-105540534D01*
X195358440Y-105527375D01*
X195378861Y-105506043D01*
X195382998Y-105498079D01*
X195390682Y-105483287D01*
X195400495Y-105467400D01*
X195410272Y-105453918D01*
X195410274Y-105453915D01*
X195415546Y-105446645D01*
X195425479Y-105418826D01*
X195432324Y-105403123D01*
X195441802Y-105384878D01*
X195441803Y-105384875D01*
X195445940Y-105376911D01*
X195450899Y-105351752D01*
X195455858Y-105333750D01*
X195461460Y-105318060D01*
X195461461Y-105318057D01*
X195464479Y-105309604D01*
X195466205Y-105280120D01*
X195468368Y-105263119D01*
X195472344Y-105242946D01*
X195474079Y-105234143D01*
X195470992Y-105199888D01*
X195470948Y-105199087D01*
X195471013Y-105197989D01*
X195470728Y-105195028D01*
X195470727Y-105195011D01*
X195468043Y-105167137D01*
X195467972Y-105166373D01*
X195461373Y-105093150D01*
X195461372Y-105093144D01*
X195461018Y-105089216D01*
X195460505Y-105087911D01*
X195460286Y-105086586D01*
X195427907Y-104750311D01*
X195043028Y-100753186D01*
X218275877Y-100753186D01*
X218277626Y-100789589D01*
X218288770Y-101021605D01*
X218341197Y-101285169D01*
X218432004Y-101538089D01*
X218434221Y-101542215D01*
X218461226Y-101592473D01*
X218559198Y-101774809D01*
X218561993Y-101778552D01*
X218561995Y-101778555D01*
X218717193Y-101986390D01*
X218717198Y-101986396D01*
X218719985Y-101990128D01*
X218723294Y-101993408D01*
X218723299Y-101993414D01*
X218827637Y-102096845D01*
X218910831Y-102179316D01*
X218914593Y-102182074D01*
X218914596Y-102182077D01*
X219031031Y-102267451D01*
X219127545Y-102338218D01*
X219131676Y-102340392D01*
X219131677Y-102340392D01*
X219361231Y-102461166D01*
X219361237Y-102461168D01*
X219365366Y-102463341D01*
X219369773Y-102464880D01*
X219369780Y-102464883D01*
X219614653Y-102550396D01*
X219619069Y-102551938D01*
X219623662Y-102552810D01*
X219878492Y-102601191D01*
X219878495Y-102601191D01*
X219883081Y-102602062D01*
X220017341Y-102607337D01*
X220146933Y-102612430D01*
X220146939Y-102612430D01*
X220151601Y-102612613D01*
X220233296Y-102603666D01*
X220414079Y-102583867D01*
X220414084Y-102583866D01*
X220418732Y-102583357D01*
X220678604Y-102514938D01*
X220803763Y-102461166D01*
X220921206Y-102410709D01*
X220921209Y-102410707D01*
X220925509Y-102408860D01*
X220929489Y-102406397D01*
X220929493Y-102406395D01*
X221150039Y-102269916D01*
X221150041Y-102269914D01*
X221154022Y-102267451D01*
X221359124Y-102093820D01*
X221536308Y-101891780D01*
X221611547Y-101774809D01*
X221679158Y-101669695D01*
X221679160Y-101669692D01*
X221681683Y-101665769D01*
X221792054Y-101420753D01*
X221864998Y-101162115D01*
X221890034Y-100965313D01*
X221898513Y-100898666D01*
X221898513Y-100898662D01*
X221898911Y-100895536D01*
X221901396Y-100800647D01*
X221887557Y-100614414D01*
X221881827Y-100537310D01*
X221881826Y-100537306D01*
X221881481Y-100532658D01*
X221875705Y-100507128D01*
X221837227Y-100337086D01*
X221822173Y-100270557D01*
X221815682Y-100253866D01*
X221726469Y-100024453D01*
X221726468Y-100024451D01*
X221724776Y-100020100D01*
X221591429Y-99786791D01*
X221504799Y-99676902D01*
X221427953Y-99579423D01*
X221427950Y-99579420D01*
X221425061Y-99575755D01*
X221229328Y-99391627D01*
X221008529Y-99238453D01*
X221004339Y-99236387D01*
X221004336Y-99236385D01*
X220771702Y-99121663D01*
X220771699Y-99121662D01*
X220767514Y-99119598D01*
X220511579Y-99037672D01*
X220506972Y-99036922D01*
X220506969Y-99036921D01*
X220250956Y-98995227D01*
X220250957Y-98995227D01*
X220246345Y-98994476D01*
X220116043Y-98992771D01*
X219982318Y-98991020D01*
X219982315Y-98991020D01*
X219977641Y-98990959D01*
X219711368Y-99027197D01*
X219706878Y-99028506D01*
X219706872Y-99028507D01*
X219605180Y-99058148D01*
X219453376Y-99102395D01*
X219449129Y-99104353D01*
X219449126Y-99104354D01*
X219411580Y-99121663D01*
X219209332Y-99214900D01*
X219205423Y-99217463D01*
X218988512Y-99359676D01*
X218988507Y-99359680D01*
X218984599Y-99362242D01*
X218784113Y-99541183D01*
X218612278Y-99747792D01*
X218609855Y-99751785D01*
X218488192Y-99952279D01*
X218472869Y-99977530D01*
X218471062Y-99981838D01*
X218471062Y-99981839D01*
X218374150Y-100212949D01*
X218368949Y-100225351D01*
X218367798Y-100229883D01*
X218367797Y-100229886D01*
X218363758Y-100245789D01*
X218302801Y-100485811D01*
X218275877Y-100753186D01*
X195043028Y-100753186D01*
X193418639Y-83883271D01*
X192880211Y-78291484D01*
X192880140Y-78290716D01*
X192873989Y-78222462D01*
X192873183Y-78213519D01*
X192862379Y-78186021D01*
X192857213Y-78169687D01*
X192850244Y-78140991D01*
X192845764Y-78133215D01*
X192845762Y-78133211D01*
X192837447Y-78118781D01*
X192829347Y-78101951D01*
X192823253Y-78086439D01*
X192823250Y-78086434D01*
X192819969Y-78078083D01*
X192801884Y-78054727D01*
X192792342Y-78040499D01*
X192782076Y-78022682D01*
X192777597Y-78014908D01*
X192759076Y-77997178D01*
X192746585Y-77983305D01*
X192736380Y-77970124D01*
X192736375Y-77970119D01*
X192730883Y-77963026D01*
X192723620Y-77957759D01*
X192723618Y-77957757D01*
X192706974Y-77945687D01*
X192693815Y-77934704D01*
X192678966Y-77920489D01*
X192678965Y-77920489D01*
X192672483Y-77914283D01*
X192649724Y-77902461D01*
X192633842Y-77892651D01*
X192620352Y-77882868D01*
X192613085Y-77877598D01*
X192604629Y-77874579D01*
X192604628Y-77874578D01*
X192585264Y-77867663D01*
X192569557Y-77860818D01*
X192543351Y-77847205D01*
X192534546Y-77845469D01*
X192534545Y-77845469D01*
X192518199Y-77842247D01*
X192500197Y-77837289D01*
X192487787Y-77832858D01*
X192476044Y-77828665D01*
X192449311Y-77827100D01*
X192446561Y-77826939D01*
X192429558Y-77824776D01*
X192409386Y-77820800D01*
X192409385Y-77820800D01*
X192400583Y-77819065D01*
X192371967Y-77821644D01*
X192366333Y-77822152D01*
X192365531Y-77822196D01*
X192364429Y-77822131D01*
X192361449Y-77822418D01*
X192361447Y-77822418D01*
X192333531Y-77825105D01*
X192332770Y-77825176D01*
X192294065Y-77828665D01*
X192255656Y-77832127D01*
X192254353Y-77832639D01*
X192253040Y-77832857D01*
X135098206Y-83336242D01*
X135097623Y-83336296D01*
X135020375Y-83343258D01*
X135012019Y-83346541D01*
X135012016Y-83346542D01*
X134992886Y-83354059D01*
X134976540Y-83359228D01*
X134960509Y-83363121D01*
X134947847Y-83366196D01*
X134940075Y-83370674D01*
X134940070Y-83370676D01*
X134925626Y-83378999D01*
X134908805Y-83387095D01*
X134884939Y-83396472D01*
X134877847Y-83401963D01*
X134877844Y-83401965D01*
X134861591Y-83414550D01*
X134847354Y-83424098D01*
X134821764Y-83438843D01*
X134815559Y-83445325D01*
X134815555Y-83445328D01*
X134804029Y-83457368D01*
X134790156Y-83469860D01*
X134769882Y-83485558D01*
X134764612Y-83492825D01*
X134764611Y-83492826D01*
X134752548Y-83509460D01*
X134741567Y-83522616D01*
X134727350Y-83537468D01*
X134727347Y-83537472D01*
X134721139Y-83543957D01*
X134709315Y-83566720D01*
X134699503Y-83582605D01*
X134684454Y-83603356D01*
X134681437Y-83611806D01*
X134681435Y-83611809D01*
X134674520Y-83631174D01*
X134667676Y-83646878D01*
X134654061Y-83673089D01*
X134649100Y-83698259D01*
X134644146Y-83716242D01*
X134635521Y-83740397D01*
X134634997Y-83749355D01*
X134634996Y-83749358D01*
X134633795Y-83769880D01*
X134631632Y-83786882D01*
X134625921Y-83815857D01*
X78575520Y-83815857D01*
X90122173Y-79925000D01*
X116286496Y-79925000D01*
X116306458Y-80114928D01*
X116365473Y-80296556D01*
X116460960Y-80461944D01*
X116588747Y-80603866D01*
X116743248Y-80716118D01*
X116749276Y-80718802D01*
X116749278Y-80718803D01*
X116911681Y-80791109D01*
X116917712Y-80793794D01*
X117011112Y-80813647D01*
X117098056Y-80832128D01*
X117098061Y-80832128D01*
X117104513Y-80833500D01*
X117295487Y-80833500D01*
X117301939Y-80832128D01*
X117301944Y-80832128D01*
X117388888Y-80813647D01*
X117482288Y-80793794D01*
X117488319Y-80791109D01*
X117650722Y-80718803D01*
X117650724Y-80718802D01*
X117656752Y-80716118D01*
X117811253Y-80603866D01*
X117939040Y-80461944D01*
X118034527Y-80296556D01*
X118093542Y-80114928D01*
X118113504Y-79925000D01*
X118093542Y-79735072D01*
X118034527Y-79553444D01*
X117939040Y-79388056D01*
X117934620Y-79383147D01*
X117934617Y-79383143D01*
X117915865Y-79362317D01*
X117885147Y-79298310D01*
X117883500Y-79278006D01*
X117883500Y-77052524D01*
X117903502Y-76984403D01*
X117915858Y-76968221D01*
X117989040Y-76886944D01*
X118084527Y-76721556D01*
X118143542Y-76539928D01*
X118163504Y-76350000D01*
X118143542Y-76160072D01*
X118084527Y-75978444D01*
X117989040Y-75813056D01*
X117918431Y-75734636D01*
X117865675Y-75676045D01*
X117865674Y-75676044D01*
X117861253Y-75671134D01*
X117706752Y-75558882D01*
X117700724Y-75556198D01*
X117700722Y-75556197D01*
X117538319Y-75483891D01*
X117538318Y-75483891D01*
X117532288Y-75481206D01*
X117438888Y-75461353D01*
X117351944Y-75442872D01*
X117351939Y-75442872D01*
X117345487Y-75441500D01*
X117154513Y-75441500D01*
X117148061Y-75442872D01*
X117148056Y-75442872D01*
X117061112Y-75461353D01*
X116967712Y-75481206D01*
X116961682Y-75483891D01*
X116961681Y-75483891D01*
X116799278Y-75556197D01*
X116799276Y-75556198D01*
X116793248Y-75558882D01*
X116638747Y-75671134D01*
X116634326Y-75676044D01*
X116634325Y-75676045D01*
X116581570Y-75734636D01*
X116510960Y-75813056D01*
X116415473Y-75978444D01*
X116356458Y-76160072D01*
X116336496Y-76350000D01*
X116356458Y-76539928D01*
X116415473Y-76721556D01*
X116510960Y-76886944D01*
X116584137Y-76968215D01*
X116614853Y-77032221D01*
X116616500Y-77052524D01*
X116616500Y-79166945D01*
X116596498Y-79235066D01*
X116584136Y-79251255D01*
X116516500Y-79326373D01*
X116460960Y-79388056D01*
X116365473Y-79553444D01*
X116306458Y-79735072D01*
X116286496Y-79925000D01*
X90122173Y-79925000D01*
X96165408Y-77888621D01*
X96165576Y-77888564D01*
X100217110Y-76529666D01*
X100218176Y-76529350D01*
X100219369Y-76529139D01*
X100222499Y-76528069D01*
X100222506Y-76528067D01*
X100255026Y-76516951D01*
X100255671Y-76516732D01*
X100288625Y-76505679D01*
X100289715Y-76505131D01*
X100290771Y-76504731D01*
X115190349Y-71411508D01*
X115190833Y-71411344D01*
X124176293Y-68393586D01*
X129563730Y-68393586D01*
X129565479Y-68429989D01*
X129576623Y-68662005D01*
X129629050Y-68925569D01*
X129719857Y-69178489D01*
X129722074Y-69182615D01*
X129749079Y-69232873D01*
X129847051Y-69415209D01*
X129849846Y-69418952D01*
X129849848Y-69418955D01*
X130005046Y-69626790D01*
X130005051Y-69626796D01*
X130007838Y-69630528D01*
X130011147Y-69633808D01*
X130011152Y-69633814D01*
X130115490Y-69737245D01*
X130198684Y-69819716D01*
X130202446Y-69822474D01*
X130202449Y-69822477D01*
X130318884Y-69907851D01*
X130415398Y-69978618D01*
X130419529Y-69980792D01*
X130419530Y-69980792D01*
X130649084Y-70101566D01*
X130649090Y-70101568D01*
X130653219Y-70103741D01*
X130657626Y-70105280D01*
X130657633Y-70105283D01*
X130902506Y-70190796D01*
X130906922Y-70192338D01*
X130911515Y-70193210D01*
X131166345Y-70241591D01*
X131166348Y-70241591D01*
X131170934Y-70242462D01*
X131305194Y-70247737D01*
X131434786Y-70252830D01*
X131434792Y-70252830D01*
X131439454Y-70253013D01*
X131521149Y-70244066D01*
X131701932Y-70224267D01*
X131701937Y-70224266D01*
X131706585Y-70223757D01*
X131966457Y-70155338D01*
X132091616Y-70101566D01*
X132209059Y-70051109D01*
X132209062Y-70051107D01*
X132213362Y-70049260D01*
X132217342Y-70046797D01*
X132217346Y-70046795D01*
X132437892Y-69910316D01*
X132437894Y-69910314D01*
X132441875Y-69907851D01*
X132646977Y-69734220D01*
X132824161Y-69532180D01*
X132899400Y-69415209D01*
X132967011Y-69310095D01*
X132967013Y-69310092D01*
X132969536Y-69306169D01*
X133079907Y-69061153D01*
X133152851Y-68802515D01*
X133186764Y-68535936D01*
X133189249Y-68441047D01*
X133169334Y-68173058D01*
X133158734Y-68126211D01*
X133125080Y-67977486D01*
X133110026Y-67910957D01*
X133094210Y-67870286D01*
X133014322Y-67664853D01*
X133014321Y-67664851D01*
X133012629Y-67660500D01*
X132879282Y-67427191D01*
X132712914Y-67216155D01*
X132517181Y-67032027D01*
X132296382Y-66878853D01*
X132292192Y-66876787D01*
X132292189Y-66876785D01*
X132059555Y-66762063D01*
X132059552Y-66762062D01*
X132055367Y-66759998D01*
X131799432Y-66678072D01*
X131794825Y-66677322D01*
X131794822Y-66677321D01*
X131538809Y-66635627D01*
X131538810Y-66635627D01*
X131534198Y-66634876D01*
X131403896Y-66633171D01*
X131270171Y-66631420D01*
X131270168Y-66631420D01*
X131265494Y-66631359D01*
X130999221Y-66667597D01*
X130994731Y-66668906D01*
X130994725Y-66668907D01*
X130884957Y-66700902D01*
X130741229Y-66742795D01*
X130736982Y-66744753D01*
X130736979Y-66744754D01*
X130699433Y-66762063D01*
X130497185Y-66855300D01*
X130493276Y-66857863D01*
X130276365Y-67000076D01*
X130276360Y-67000080D01*
X130272452Y-67002642D01*
X130071966Y-67181583D01*
X129900131Y-67388192D01*
X129897708Y-67392185D01*
X129878692Y-67423523D01*
X129760722Y-67617930D01*
X129758915Y-67622238D01*
X129758915Y-67622239D01*
X129738899Y-67669973D01*
X129656802Y-67865751D01*
X129590654Y-68126211D01*
X129563730Y-68393586D01*
X124176293Y-68393586D01*
X135380740Y-64630583D01*
X135381334Y-64630385D01*
X141438735Y-62636491D01*
X141440327Y-62636027D01*
X141442050Y-62635728D01*
X141477145Y-62623852D01*
X141477986Y-62623571D01*
X141505929Y-62614373D01*
X141505930Y-62614373D01*
X141510182Y-62612973D01*
X141511734Y-62612203D01*
X141513334Y-62611605D01*
X144355305Y-61649873D01*
X148157678Y-60363139D01*
X148158355Y-60362912D01*
X150998787Y-59424556D01*
X150999630Y-59424280D01*
X151115148Y-59387047D01*
X154021417Y-58450316D01*
X154041389Y-58445634D01*
X154062363Y-58442490D01*
X154070505Y-58438724D01*
X154070507Y-58438723D01*
X154088473Y-58430412D01*
X154104951Y-58424149D01*
X154943805Y-58170858D01*
X154946224Y-58170154D01*
X155622826Y-57980531D01*
X155827124Y-57923275D01*
X155829535Y-57922625D01*
X156715231Y-57693401D01*
X156717676Y-57692794D01*
X157558189Y-57493106D01*
X157580487Y-57489879D01*
X157596672Y-57489001D01*
X157600238Y-57487745D01*
X157604009Y-57487485D01*
X157625245Y-57479654D01*
X157644595Y-57474227D01*
X158544253Y-57297866D01*
X158547993Y-57297192D01*
X159493724Y-57141256D01*
X159497483Y-57140694D01*
X159899965Y-57086743D01*
X160447550Y-57013342D01*
X160451289Y-57012898D01*
X160849671Y-56971683D01*
X161404750Y-56914258D01*
X161408535Y-56913924D01*
X162061138Y-56866247D01*
X162364525Y-56844083D01*
X162368297Y-56843865D01*
X163193990Y-56808533D01*
X163325983Y-56802885D01*
X163329782Y-56802780D01*
X163513162Y-56800469D01*
X164288228Y-56790702D01*
X164292012Y-56790711D01*
G37*
%TD.AperFunction*%
%TD*%
M02*
