%TF.GenerationSoftware,KiCad,Pcbnew,(6.0.1)*%
%TF.CreationDate,2022-02-21T20:53:04-05:00*%
%TF.ProjectId,uv_back,75765f62-6163-46b2-9e6b-696361645f70,rev?*%
%TF.SameCoordinates,Original*%
%TF.FileFunction,Profile,NP*%
%FSLAX46Y46*%
G04 Gerber Fmt 4.6, Leading zero omitted, Abs format (unit mm)*
G04 Created by KiCad (PCBNEW (6.0.1)) date 2022-02-21 20:53:04*
%MOMM*%
%LPD*%
G01*
G04 APERTURE LIST*
%TA.AperFunction,Profile*%
%ADD10C,0.100000*%
%TD*%
%TA.AperFunction,Profile*%
%ADD11C,0.120000*%
%TD*%
G04 APERTURE END LIST*
D10*
X135220701Y-64148447D02*
X115027701Y-70930247D01*
X200676501Y-131052047D02*
X72609701Y-130544047D01*
X72711301Y-85255847D02*
X68647301Y-86627447D01*
X176597301Y-58128647D02*
G75*
G03*
X165268901Y-56299847I-11644895J-36132681D01*
G01*
X222114102Y-113780047D02*
G75*
G03*
X223409501Y-103061247I-38401603J10078628D01*
G01*
X180051701Y-59500247D02*
X177791101Y-58535047D01*
X153915101Y-57950847D02*
X150841701Y-58941447D01*
X68647301Y-86627447D02*
X66742301Y-87313247D01*
X223409502Y-103061247D02*
G75*
G03*
X215891101Y-81090247I-31712417J1420006D01*
G01*
X68774301Y-130467847D02*
X72609701Y-130544047D01*
X221388326Y-100800647D02*
G75*
G03*
X221388326Y-100800647I-1300000J0D01*
G01*
X60544701Y-128562847D02*
G75*
G03*
X65243701Y-130137647I7746393J15316233D01*
G01*
X215891101Y-81090247D02*
G75*
G03*
X207636101Y-74156047I-24485964J-20769166D01*
G01*
X190541901Y-64859647D02*
X182109101Y-60465447D01*
X64075301Y-88456247D02*
X62983101Y-89040447D01*
X115027701Y-70930247D02*
X100092501Y-76035647D01*
X50181501Y-116548647D02*
G75*
G03*
X52873901Y-121628647I18887228J6756745D01*
G01*
X177791101Y-58535047D02*
X176597301Y-58128647D01*
X165268901Y-56299847D02*
G75*
G03*
X157496501Y-56985647I-1057901J-32396953D01*
G01*
X182109101Y-60465447D02*
X180051701Y-59500247D01*
X49546501Y-112383047D02*
G75*
G03*
X50181501Y-116548647I15251031J193653D01*
G01*
X157496501Y-56985647D02*
G75*
G03*
X153915101Y-57950847I10269788J-45233359D01*
G01*
X96003101Y-77407247D02*
X72711301Y-85255847D01*
X150841701Y-58941447D02*
X147996901Y-59881247D01*
X207636101Y-74156047D02*
X190541901Y-64859647D01*
X66742301Y-87313247D02*
X65523101Y-87770447D01*
X55744101Y-125057647D02*
G75*
G03*
X60544701Y-128562847I12811788J12506612D01*
G01*
X141316701Y-62141847D02*
X135220701Y-64148447D01*
X62983101Y-89040447D02*
G75*
G03*
X52797701Y-99454447I14127778J-24005565D01*
G01*
X65523101Y-87770447D02*
X64075301Y-88456247D01*
X138645179Y-127597647D02*
G75*
G03*
X138645179Y-127597647I-1300000J0D01*
G01*
X52873901Y-121628647D02*
G75*
G03*
X55744101Y-125057647I15740624J10259753D01*
G01*
X55002979Y-116853447D02*
G75*
G03*
X55002979Y-116853447I-1300000J0D01*
G01*
X49648101Y-108166647D02*
G75*
G03*
X49546501Y-112383047I44262793J-3175997D01*
G01*
X200676501Y-131052047D02*
G75*
G03*
X222114101Y-113780047I-2761130J25366972D01*
G01*
X52797701Y-99454447D02*
G75*
G03*
X49648101Y-108166647I18332229J-11552810D01*
G01*
X132676179Y-68441047D02*
G75*
G03*
X132676179Y-68441047I-1300000J0D01*
G01*
X147996901Y-59881247D02*
X141316701Y-62141847D01*
X100092501Y-76035647D02*
X96003101Y-77407247D01*
X65243701Y-130137647D02*
G75*
G03*
X68774301Y-130467847I3293549J16175404D01*
G01*
D11*
%TO.C,U3*%
X135138442Y-83842717D02*
X137726277Y-110718414D01*
X135138442Y-83842717D02*
X192373723Y-78331586D01*
X137726277Y-110718414D02*
X194961558Y-105207283D01*
X194961558Y-105207283D02*
X192373723Y-78331586D01*
%TD*%
M02*
