%TF.GenerationSoftware,KiCad,Pcbnew,(6.0.1)*%
%TF.CreationDate,2022-02-21T20:53:04-05:00*%
%TF.ProjectId,uv_back,75765f62-6163-46b2-9e6b-696361645f70,rev?*%
%TF.SameCoordinates,Original*%
%TF.FileFunction,Legend,Top*%
%TF.FilePolarity,Positive*%
%FSLAX46Y46*%
G04 Gerber Fmt 4.6, Leading zero omitted, Abs format (unit mm)*
G04 Created by KiCad (PCBNEW (6.0.1)) date 2022-02-21 20:53:04*
%MOMM*%
%LPD*%
G01*
G04 APERTURE LIST*
%ADD10C,0.062500*%
%ADD11C,1.000000*%
%ADD12C,2.000000*%
%ADD13C,0.800000*%
%ADD14C,0.750000*%
%ADD15C,0.300000*%
%ADD16C,0.150000*%
%ADD17C,0.250000*%
%ADD18C,0.254000*%
G04 APERTURE END LIST*
D10*
X136541666Y-127825000D02*
X136525000Y-127841666D01*
X136475000Y-127858333D01*
X136441666Y-127858333D01*
X136391666Y-127841666D01*
X136358333Y-127808333D01*
X136341666Y-127775000D01*
X136325000Y-127708333D01*
X136325000Y-127658333D01*
X136341666Y-127591666D01*
X136358333Y-127558333D01*
X136391666Y-127525000D01*
X136441666Y-127508333D01*
X136475000Y-127508333D01*
X136525000Y-127525000D01*
X136541666Y-127541666D01*
X136691666Y-127508333D02*
X136691666Y-127791666D01*
X136708333Y-127825000D01*
X136725000Y-127841666D01*
X136758333Y-127858333D01*
X136825000Y-127858333D01*
X136858333Y-127841666D01*
X136875000Y-127825000D01*
X136891666Y-127791666D01*
X136891666Y-127508333D01*
X137008333Y-127508333D02*
X137208333Y-127508333D01*
X137108333Y-127858333D02*
X137108333Y-127508333D01*
X137391666Y-127508333D02*
X137458333Y-127508333D01*
X137491666Y-127525000D01*
X137525000Y-127558333D01*
X137541666Y-127625000D01*
X137541666Y-127741666D01*
X137525000Y-127808333D01*
X137491666Y-127841666D01*
X137458333Y-127858333D01*
X137391666Y-127858333D01*
X137358333Y-127841666D01*
X137325000Y-127808333D01*
X137308333Y-127741666D01*
X137308333Y-127625000D01*
X137325000Y-127558333D01*
X137358333Y-127525000D01*
X137391666Y-127508333D01*
X137691666Y-127508333D02*
X137691666Y-127791666D01*
X137708333Y-127825000D01*
X137725000Y-127841666D01*
X137758333Y-127858333D01*
X137825000Y-127858333D01*
X137858333Y-127841666D01*
X137875000Y-127825000D01*
X137891666Y-127791666D01*
X137891666Y-127508333D01*
X138008333Y-127508333D02*
X138208333Y-127508333D01*
X138108333Y-127858333D02*
X138108333Y-127508333D01*
X52991666Y-117050000D02*
X52975000Y-117066666D01*
X52925000Y-117083333D01*
X52891666Y-117083333D01*
X52841666Y-117066666D01*
X52808333Y-117033333D01*
X52791666Y-117000000D01*
X52775000Y-116933333D01*
X52775000Y-116883333D01*
X52791666Y-116816666D01*
X52808333Y-116783333D01*
X52841666Y-116750000D01*
X52891666Y-116733333D01*
X52925000Y-116733333D01*
X52975000Y-116750000D01*
X52991666Y-116766666D01*
X53141666Y-116733333D02*
X53141666Y-117016666D01*
X53158333Y-117050000D01*
X53175000Y-117066666D01*
X53208333Y-117083333D01*
X53275000Y-117083333D01*
X53308333Y-117066666D01*
X53325000Y-117050000D01*
X53341666Y-117016666D01*
X53341666Y-116733333D01*
X53458333Y-116733333D02*
X53658333Y-116733333D01*
X53558333Y-117083333D02*
X53558333Y-116733333D01*
X53841666Y-116733333D02*
X53908333Y-116733333D01*
X53941666Y-116750000D01*
X53975000Y-116783333D01*
X53991666Y-116850000D01*
X53991666Y-116966666D01*
X53975000Y-117033333D01*
X53941666Y-117066666D01*
X53908333Y-117083333D01*
X53841666Y-117083333D01*
X53808333Y-117066666D01*
X53775000Y-117033333D01*
X53758333Y-116966666D01*
X53758333Y-116850000D01*
X53775000Y-116783333D01*
X53808333Y-116750000D01*
X53841666Y-116733333D01*
X54141666Y-116733333D02*
X54141666Y-117016666D01*
X54158333Y-117050000D01*
X54175000Y-117066666D01*
X54208333Y-117083333D01*
X54275000Y-117083333D01*
X54308333Y-117066666D01*
X54325000Y-117050000D01*
X54341666Y-117016666D01*
X54341666Y-116733333D01*
X54458333Y-116733333D02*
X54658333Y-116733333D01*
X54558333Y-117083333D02*
X54558333Y-116733333D01*
X130616666Y-68575000D02*
X130600000Y-68591666D01*
X130550000Y-68608333D01*
X130516666Y-68608333D01*
X130466666Y-68591666D01*
X130433333Y-68558333D01*
X130416666Y-68525000D01*
X130400000Y-68458333D01*
X130400000Y-68408333D01*
X130416666Y-68341666D01*
X130433333Y-68308333D01*
X130466666Y-68275000D01*
X130516666Y-68258333D01*
X130550000Y-68258333D01*
X130600000Y-68275000D01*
X130616666Y-68291666D01*
X130766666Y-68258333D02*
X130766666Y-68541666D01*
X130783333Y-68575000D01*
X130800000Y-68591666D01*
X130833333Y-68608333D01*
X130900000Y-68608333D01*
X130933333Y-68591666D01*
X130950000Y-68575000D01*
X130966666Y-68541666D01*
X130966666Y-68258333D01*
X131083333Y-68258333D02*
X131283333Y-68258333D01*
X131183333Y-68608333D02*
X131183333Y-68258333D01*
X131466666Y-68258333D02*
X131533333Y-68258333D01*
X131566666Y-68275000D01*
X131600000Y-68308333D01*
X131616666Y-68375000D01*
X131616666Y-68491666D01*
X131600000Y-68558333D01*
X131566666Y-68591666D01*
X131533333Y-68608333D01*
X131466666Y-68608333D01*
X131433333Y-68591666D01*
X131400000Y-68558333D01*
X131383333Y-68491666D01*
X131383333Y-68375000D01*
X131400000Y-68308333D01*
X131433333Y-68275000D01*
X131466666Y-68258333D01*
X131766666Y-68258333D02*
X131766666Y-68541666D01*
X131783333Y-68575000D01*
X131800000Y-68591666D01*
X131833333Y-68608333D01*
X131900000Y-68608333D01*
X131933333Y-68591666D01*
X131950000Y-68575000D01*
X131966666Y-68541666D01*
X131966666Y-68258333D01*
X132083333Y-68258333D02*
X132283333Y-68258333D01*
X132183333Y-68608333D02*
X132183333Y-68258333D01*
X219416666Y-100950000D02*
X219400000Y-100966666D01*
X219350000Y-100983333D01*
X219316666Y-100983333D01*
X219266666Y-100966666D01*
X219233333Y-100933333D01*
X219216666Y-100900000D01*
X219200000Y-100833333D01*
X219200000Y-100783333D01*
X219216666Y-100716666D01*
X219233333Y-100683333D01*
X219266666Y-100650000D01*
X219316666Y-100633333D01*
X219350000Y-100633333D01*
X219400000Y-100650000D01*
X219416666Y-100666666D01*
X219566666Y-100633333D02*
X219566666Y-100916666D01*
X219583333Y-100950000D01*
X219600000Y-100966666D01*
X219633333Y-100983333D01*
X219700000Y-100983333D01*
X219733333Y-100966666D01*
X219750000Y-100950000D01*
X219766666Y-100916666D01*
X219766666Y-100633333D01*
X219883333Y-100633333D02*
X220083333Y-100633333D01*
X219983333Y-100983333D02*
X219983333Y-100633333D01*
X220266666Y-100633333D02*
X220333333Y-100633333D01*
X220366666Y-100650000D01*
X220400000Y-100683333D01*
X220416666Y-100750000D01*
X220416666Y-100866666D01*
X220400000Y-100933333D01*
X220366666Y-100966666D01*
X220333333Y-100983333D01*
X220266666Y-100983333D01*
X220233333Y-100966666D01*
X220200000Y-100933333D01*
X220183333Y-100866666D01*
X220183333Y-100750000D01*
X220200000Y-100683333D01*
X220233333Y-100650000D01*
X220266666Y-100633333D01*
X220566666Y-100633333D02*
X220566666Y-100916666D01*
X220583333Y-100950000D01*
X220600000Y-100966666D01*
X220633333Y-100983333D01*
X220700000Y-100983333D01*
X220733333Y-100966666D01*
X220750000Y-100950000D01*
X220766666Y-100916666D01*
X220766666Y-100633333D01*
X220883333Y-100633333D02*
X221083333Y-100633333D01*
X220983333Y-100983333D02*
X220983333Y-100633333D01*
D11*
X149709523Y-97507142D02*
X149328571Y-97888095D01*
X148185714Y-98269047D01*
X147423809Y-98269047D01*
X146280952Y-97888095D01*
X145519047Y-97126190D01*
X145138095Y-96364285D01*
X144757142Y-94840476D01*
X144757142Y-93697619D01*
X145138095Y-92173809D01*
X145519047Y-91411904D01*
X146280952Y-90650000D01*
X147423809Y-90269047D01*
X148185714Y-90269047D01*
X149328571Y-90650000D01*
X149709523Y-91030952D01*
X153138095Y-90269047D02*
X153138095Y-96745238D01*
X153519047Y-97507142D01*
X153900000Y-97888095D01*
X154661904Y-98269047D01*
X156185714Y-98269047D01*
X156947619Y-97888095D01*
X157328571Y-97507142D01*
X157709523Y-96745238D01*
X157709523Y-90269047D01*
X160376190Y-90269047D02*
X164947619Y-90269047D01*
X162661904Y-98269047D02*
X162661904Y-90269047D01*
X169138095Y-90269047D02*
X170661904Y-90269047D01*
X171423809Y-90650000D01*
X172185714Y-91411904D01*
X172566666Y-92935714D01*
X172566666Y-95602380D01*
X172185714Y-97126190D01*
X171423809Y-97888095D01*
X170661904Y-98269047D01*
X169138095Y-98269047D01*
X168376190Y-97888095D01*
X167614285Y-97126190D01*
X167233333Y-95602380D01*
X167233333Y-92935714D01*
X167614285Y-91411904D01*
X168376190Y-90650000D01*
X169138095Y-90269047D01*
X175995238Y-90269047D02*
X175995238Y-96745238D01*
X176376190Y-97507142D01*
X176757142Y-97888095D01*
X177519047Y-98269047D01*
X179042857Y-98269047D01*
X179804761Y-97888095D01*
X180185714Y-97507142D01*
X180566666Y-96745238D01*
X180566666Y-90269047D01*
X183233333Y-90269047D02*
X187804761Y-90269047D01*
X185519047Y-98269047D02*
X185519047Y-90269047D01*
D12*
X52864400Y-121517400D02*
G75*
G03*
X55734600Y-124946400I15707372J10231920D01*
G01*
X65234200Y-130026400D02*
G75*
G03*
X68764800Y-130356600I3297520J16217866D01*
G01*
X100083000Y-75924400D02*
X95993600Y-77296000D01*
X177781600Y-58423800D02*
X176587800Y-58017400D01*
X65513600Y-87659200D02*
X64065800Y-88345000D01*
X60535200Y-128451600D02*
G75*
G03*
X65234200Y-130026400I7746940J15317865D01*
G01*
X141307200Y-62030600D02*
X135211200Y-64037200D01*
X135211200Y-64037200D02*
X115018200Y-70819000D01*
X157487000Y-56874400D02*
G75*
G03*
X153905600Y-57839600I10225116J-45067600D01*
G01*
X64065800Y-88345000D02*
X62973600Y-88929200D01*
X68764800Y-130356600D02*
X72600200Y-130432800D01*
X223400001Y-102950000D02*
G75*
G03*
X215881600Y-80979000I-31719042J1417739D01*
G01*
X72701800Y-85144600D02*
X68637800Y-86516200D01*
X200667000Y-130940800D02*
G75*
G03*
X222104600Y-113668800I-2759009J25364340D01*
G01*
X153905600Y-57839600D02*
X150832200Y-58830200D01*
X50172000Y-116437400D02*
G75*
G03*
X52864400Y-121517400I18864321J6744604D01*
G01*
X165259400Y-56188600D02*
G75*
G03*
X157487000Y-56874400I-1052623J-32456774D01*
G01*
X55734600Y-124946400D02*
G75*
G03*
X60535200Y-128451600I12817572J12514534D01*
G01*
X215881600Y-80979000D02*
G75*
G03*
X207626600Y-74044800I-24517983J-20807284D01*
G01*
X62973600Y-88929200D02*
G75*
G03*
X52788200Y-99343200I14138551J-24016102D01*
G01*
X52788200Y-99343200D02*
G75*
G03*
X49638600Y-108055400I18320639J-11548620D01*
G01*
X222104600Y-113668800D02*
G75*
G03*
X223400000Y-102950000I-38476896J10087728D01*
G01*
X200667000Y-130940800D02*
X72600200Y-130432800D01*
X95993600Y-77296000D02*
X72701800Y-85144600D01*
X176587800Y-58017400D02*
G75*
G03*
X165259400Y-56188600I-11639838J-36101355D01*
G01*
X66732800Y-87202000D02*
X65513600Y-87659200D01*
X180042200Y-59389000D02*
X177781600Y-58423800D01*
X49537000Y-112271800D02*
G75*
G03*
X50172000Y-116437400I15231847J190728D01*
G01*
X207626600Y-74044800D02*
X190532400Y-64748400D01*
X147987400Y-59770000D02*
X141307200Y-62030600D01*
X190532400Y-64748400D02*
X182099600Y-60354200D01*
X182099600Y-60354200D02*
X180042200Y-59389000D01*
X68637800Y-86516200D02*
X66732800Y-87202000D01*
X49638600Y-108055400D02*
G75*
G03*
X49537000Y-112271800I44653915J-3185422D01*
G01*
X115018200Y-70819000D02*
X100083000Y-75924400D01*
X150832200Y-58830200D02*
X147987400Y-59770000D01*
D13*
X172383333Y-122459523D02*
X172383333Y-118459523D01*
X173716666Y-121316666D01*
X175050000Y-118459523D01*
X175050000Y-122459523D01*
X176954761Y-122459523D02*
X176954761Y-119792857D01*
X176954761Y-118459523D02*
X176764285Y-118650000D01*
X176954761Y-118840476D01*
X177145238Y-118650000D01*
X176954761Y-118459523D01*
X176954761Y-118840476D01*
X178478571Y-122459523D02*
X180573809Y-119792857D01*
X178478571Y-119792857D02*
X180573809Y-122459523D01*
X182097619Y-122459523D02*
X182097619Y-118459523D01*
X183430952Y-121316666D01*
X184764285Y-118459523D01*
X184764285Y-122459523D01*
X187240476Y-122459523D02*
X186859523Y-122269047D01*
X186669047Y-122078571D01*
X186478571Y-121697619D01*
X186478571Y-120554761D01*
X186669047Y-120173809D01*
X186859523Y-119983333D01*
X187240476Y-119792857D01*
X187811904Y-119792857D01*
X188192857Y-119983333D01*
X188383333Y-120173809D01*
X188573809Y-120554761D01*
X188573809Y-121697619D01*
X188383333Y-122078571D01*
X188192857Y-122269047D01*
X187811904Y-122459523D01*
X187240476Y-122459523D01*
X190288095Y-119792857D02*
X190288095Y-122459523D01*
X190288095Y-120173809D02*
X190478571Y-119983333D01*
X190859523Y-119792857D01*
X191430952Y-119792857D01*
X191811904Y-119983333D01*
X192002380Y-120364285D01*
X192002380Y-122459523D01*
X193907142Y-122459523D02*
X193907142Y-118459523D01*
X194288095Y-120935714D02*
X195430952Y-122459523D01*
X195430952Y-119792857D02*
X193907142Y-121316666D01*
X198669047Y-122269047D02*
X198288095Y-122459523D01*
X197526190Y-122459523D01*
X197145238Y-122269047D01*
X196954761Y-121888095D01*
X196954761Y-120364285D01*
X197145238Y-119983333D01*
X197526190Y-119792857D01*
X198288095Y-119792857D01*
X198669047Y-119983333D01*
X198859523Y-120364285D01*
X198859523Y-120745238D01*
X196954761Y-121126190D01*
X200192857Y-119792857D02*
X201145238Y-122459523D01*
X202097619Y-119792857D02*
X201145238Y-122459523D01*
X200764285Y-123411904D01*
X200573809Y-123602380D01*
X200192857Y-123792857D01*
D14*
X172317857Y-124757142D02*
X173317857Y-127757142D01*
X174317857Y-124757142D01*
X175175000Y-125042857D02*
X175317857Y-124900000D01*
X175603571Y-124757142D01*
X176317857Y-124757142D01*
X176603571Y-124900000D01*
X176746428Y-125042857D01*
X176889285Y-125328571D01*
X176889285Y-125614285D01*
X176746428Y-126042857D01*
X175032142Y-127757142D01*
X176889285Y-127757142D01*
X178746428Y-124757142D02*
X179032142Y-124757142D01*
X179317857Y-124900000D01*
X179460714Y-125042857D01*
X179603571Y-125328571D01*
X179746428Y-125900000D01*
X179746428Y-126614285D01*
X179603571Y-127185714D01*
X179460714Y-127471428D01*
X179317857Y-127614285D01*
X179032142Y-127757142D01*
X178746428Y-127757142D01*
X178460714Y-127614285D01*
X178317857Y-127471428D01*
X178175000Y-127185714D01*
X178032142Y-126614285D01*
X178032142Y-125900000D01*
X178175000Y-125328571D01*
X178317857Y-125042857D01*
X178460714Y-124900000D01*
X178746428Y-124757142D01*
X180889285Y-125042857D02*
X181032142Y-124900000D01*
X181317857Y-124757142D01*
X182032142Y-124757142D01*
X182317857Y-124900000D01*
X182460714Y-125042857D01*
X182603571Y-125328571D01*
X182603571Y-125614285D01*
X182460714Y-126042857D01*
X180746428Y-127757142D01*
X182603571Y-127757142D01*
X183746428Y-125042857D02*
X183889285Y-124900000D01*
X184175000Y-124757142D01*
X184889285Y-124757142D01*
X185175000Y-124900000D01*
X185317857Y-125042857D01*
X185460714Y-125328571D01*
X185460714Y-125614285D01*
X185317857Y-126042857D01*
X183603571Y-127757142D01*
X185460714Y-127757142D01*
X186746428Y-127471428D02*
X186889285Y-127614285D01*
X186746428Y-127757142D01*
X186603571Y-127614285D01*
X186746428Y-127471428D01*
X186746428Y-127757142D01*
X188746428Y-124757142D02*
X189032142Y-124757142D01*
X189317857Y-124900000D01*
X189460714Y-125042857D01*
X189603571Y-125328571D01*
X189746428Y-125900000D01*
X189746428Y-126614285D01*
X189603571Y-127185714D01*
X189460714Y-127471428D01*
X189317857Y-127614285D01*
X189032142Y-127757142D01*
X188746428Y-127757142D01*
X188460714Y-127614285D01*
X188317857Y-127471428D01*
X188175000Y-127185714D01*
X188032142Y-126614285D01*
X188032142Y-125900000D01*
X188175000Y-125328571D01*
X188317857Y-125042857D01*
X188460714Y-124900000D01*
X188746428Y-124757142D01*
X190889285Y-125042857D02*
X191032142Y-124900000D01*
X191317857Y-124757142D01*
X192032142Y-124757142D01*
X192317857Y-124900000D01*
X192460714Y-125042857D01*
X192603571Y-125328571D01*
X192603571Y-125614285D01*
X192460714Y-126042857D01*
X190746428Y-127757142D01*
X192603571Y-127757142D01*
X193889285Y-127471428D02*
X194032142Y-127614285D01*
X193889285Y-127757142D01*
X193746428Y-127614285D01*
X193889285Y-127471428D01*
X193889285Y-127757142D01*
X195175000Y-125042857D02*
X195317857Y-124900000D01*
X195603571Y-124757142D01*
X196317857Y-124757142D01*
X196603571Y-124900000D01*
X196746428Y-125042857D01*
X196889285Y-125328571D01*
X196889285Y-125614285D01*
X196746428Y-126042857D01*
X195032142Y-127757142D01*
X196889285Y-127757142D01*
X198746428Y-124757142D02*
X199032142Y-124757142D01*
X199317857Y-124900000D01*
X199460714Y-125042857D01*
X199603571Y-125328571D01*
X199746428Y-125900000D01*
X199746428Y-126614285D01*
X199603571Y-127185714D01*
X199460714Y-127471428D01*
X199317857Y-127614285D01*
X199032142Y-127757142D01*
X198746428Y-127757142D01*
X198460714Y-127614285D01*
X198317857Y-127471428D01*
X198175000Y-127185714D01*
X198032142Y-126614285D01*
X198032142Y-125900000D01*
X198175000Y-125328571D01*
X198317857Y-125042857D01*
X198460714Y-124900000D01*
X198746428Y-124757142D01*
D15*
%TO.C,G\u002A\u002A\u002A*%
X112657428Y-114038000D02*
X112512285Y-113965428D01*
X112294571Y-113965428D01*
X112076857Y-114038000D01*
X111931714Y-114183142D01*
X111859142Y-114328285D01*
X111786571Y-114618571D01*
X111786571Y-114836285D01*
X111859142Y-115126571D01*
X111931714Y-115271714D01*
X112076857Y-115416857D01*
X112294571Y-115489428D01*
X112439714Y-115489428D01*
X112657428Y-115416857D01*
X112730000Y-115344285D01*
X112730000Y-114836285D01*
X112439714Y-114836285D01*
X113600857Y-113965428D02*
X113600857Y-114328285D01*
X113238000Y-114183142D02*
X113600857Y-114328285D01*
X113963714Y-114183142D01*
X113383142Y-114618571D02*
X113600857Y-114328285D01*
X113818571Y-114618571D01*
X114762000Y-113965428D02*
X114762000Y-114328285D01*
X114399142Y-114183142D02*
X114762000Y-114328285D01*
X115124857Y-114183142D01*
X114544285Y-114618571D02*
X114762000Y-114328285D01*
X114979714Y-114618571D01*
X115923142Y-113965428D02*
X115923142Y-114328285D01*
X115560285Y-114183142D02*
X115923142Y-114328285D01*
X116286000Y-114183142D01*
X115705428Y-114618571D02*
X115923142Y-114328285D01*
X116140857Y-114618571D01*
D16*
%TO.C,U3*%
X164439115Y-94277927D02*
X164516705Y-95083724D01*
X164573233Y-95173959D01*
X164625197Y-95216795D01*
X164724560Y-95255067D01*
X164914160Y-95236810D01*
X165004395Y-95180282D01*
X165047231Y-95128319D01*
X165085503Y-95028955D01*
X165007913Y-94223158D01*
X165387112Y-94186645D02*
X166003309Y-94127312D01*
X165708023Y-94538459D01*
X165850223Y-94524767D01*
X165949587Y-94563039D01*
X166001550Y-94605874D01*
X166058078Y-94696110D01*
X166080899Y-94933109D01*
X166042627Y-95032473D01*
X165999791Y-95084437D01*
X165909556Y-95140965D01*
X165625157Y-95168349D01*
X165525793Y-95130078D01*
X165473829Y-95087242D01*
%TO.C,G\u002A\u002A\u002A*%
G36*
X96641753Y-94435230D02*
G01*
X96683398Y-94901811D01*
X96760203Y-95343412D01*
X96870931Y-95756469D01*
X97014346Y-96137413D01*
X97189210Y-96482679D01*
X97394288Y-96788699D01*
X97503617Y-96921193D01*
X97594091Y-97011270D01*
X97707865Y-97106989D01*
X97831013Y-97198229D01*
X97949613Y-97274873D01*
X98049739Y-97326802D01*
X98074804Y-97336284D01*
X98128735Y-97360675D01*
X98147647Y-97383294D01*
X98145102Y-97387906D01*
X98101694Y-97405820D01*
X98015420Y-97423628D01*
X97896217Y-97440525D01*
X97754022Y-97455710D01*
X97598772Y-97468378D01*
X97440403Y-97477724D01*
X97288851Y-97482947D01*
X97154053Y-97483241D01*
X97045946Y-97477804D01*
X97040332Y-97477259D01*
X96649131Y-97418622D01*
X96261208Y-97323767D01*
X95893348Y-97197279D01*
X95690119Y-97108526D01*
X95415551Y-96955194D01*
X95188139Y-96780686D01*
X95008534Y-96586814D01*
X94877390Y-96375389D01*
X94795361Y-96148224D01*
X94763100Y-95907131D01*
X94781259Y-95653922D01*
X94850492Y-95390410D01*
X94971452Y-95118407D01*
X94972289Y-95116840D01*
X95137318Y-94850162D01*
X95324188Y-94629353D01*
X95536995Y-94450546D01*
X95779832Y-94309874D01*
X95868205Y-94270770D01*
X96018273Y-94214096D01*
X96184683Y-94159635D01*
X96348079Y-94113170D01*
X96489106Y-94080485D01*
X96528086Y-94073607D01*
X96623116Y-94058715D01*
X96641753Y-94435230D01*
G37*
G36*
X111223319Y-128050589D02*
G01*
X111226479Y-128081923D01*
X111223319Y-128085793D01*
X111207622Y-128082169D01*
X111205717Y-128068191D01*
X111215377Y-128046458D01*
X111223319Y-128050589D01*
G37*
G36*
X102554582Y-94243293D02*
G01*
X102544106Y-94288605D01*
X102500564Y-94437905D01*
X102466564Y-94624099D01*
X102443613Y-94831887D01*
X102433217Y-95045972D01*
X102436881Y-95251056D01*
X102442253Y-95323219D01*
X102488509Y-95612043D01*
X102570271Y-95862705D01*
X102676717Y-96059993D01*
X102799232Y-96206127D01*
X102936973Y-96303381D01*
X103086353Y-96350860D01*
X103243785Y-96347671D01*
X103405680Y-96292921D01*
X103469165Y-96257454D01*
X103541361Y-96214229D01*
X103576830Y-96198746D01*
X103582531Y-96209085D01*
X103573643Y-96228606D01*
X103520130Y-96305299D01*
X103435375Y-96401135D01*
X103331310Y-96504850D01*
X103219868Y-96605184D01*
X103112981Y-96690875D01*
X103022583Y-96750659D01*
X103017669Y-96753324D01*
X102870315Y-96813739D01*
X102712813Y-96847980D01*
X102563252Y-96853408D01*
X102459986Y-96834752D01*
X102293585Y-96754425D01*
X102140918Y-96629443D01*
X102004857Y-96466831D01*
X101888277Y-96273614D01*
X101794052Y-96056816D01*
X101725055Y-95823460D01*
X101684162Y-95580572D01*
X101674245Y-95335175D01*
X101698179Y-95094293D01*
X101714811Y-95013514D01*
X101764609Y-94842682D01*
X101829977Y-94703044D01*
X101919012Y-94584811D01*
X102039813Y-94478195D01*
X102200478Y-94373407D01*
X102282674Y-94327105D01*
X102406380Y-94262932D01*
X102490346Y-94227953D01*
X102538454Y-94221597D01*
X102554582Y-94243293D01*
G37*
G36*
X102739453Y-108141665D02*
G01*
X103038936Y-108188962D01*
X103336803Y-108286325D01*
X103626696Y-108431229D01*
X103855803Y-108585119D01*
X103938981Y-108651151D01*
X104049313Y-108743137D01*
X104175187Y-108851174D01*
X104304995Y-108965355D01*
X104372356Y-109025825D01*
X104499219Y-109140777D01*
X104590173Y-109226816D01*
X104647779Y-109291212D01*
X104674594Y-109341230D01*
X104673178Y-109384139D01*
X104646088Y-109427205D01*
X104595885Y-109477696D01*
X104547196Y-109522419D01*
X104397899Y-109646620D01*
X104228726Y-109760817D01*
X104032888Y-109868465D01*
X103803597Y-109973019D01*
X103534066Y-110077934D01*
X103287862Y-110163464D01*
X103150791Y-110208955D01*
X103032374Y-110247929D01*
X102941179Y-110277591D01*
X102885771Y-110295150D01*
X102872939Y-110298752D01*
X102855090Y-110278834D01*
X102839511Y-110252547D01*
X102813001Y-110189045D01*
X102778076Y-110085962D01*
X102738132Y-109955187D01*
X102696563Y-109808609D01*
X102656762Y-109658117D01*
X102622123Y-109515600D01*
X102600195Y-109414241D01*
X102559136Y-109180293D01*
X102527808Y-108943217D01*
X102507372Y-108716188D01*
X102498985Y-108512382D01*
X102503809Y-108344975D01*
X102504954Y-108331891D01*
X102524228Y-108126204D01*
X102739453Y-108141665D01*
G37*
G36*
X115525488Y-105377226D02*
G01*
X115546148Y-105442720D01*
X115547852Y-105486762D01*
X115544269Y-105492710D01*
X115518358Y-105505097D01*
X115448309Y-105536784D01*
X115338365Y-105585907D01*
X115192769Y-105650602D01*
X115015762Y-105729006D01*
X114811587Y-105819253D01*
X114584488Y-105919481D01*
X114338705Y-106027824D01*
X114078482Y-106142419D01*
X113808060Y-106261402D01*
X113531683Y-106382908D01*
X113253593Y-106505074D01*
X112978032Y-106626035D01*
X112709242Y-106743927D01*
X112451467Y-106856887D01*
X112208948Y-106963050D01*
X111985927Y-107060552D01*
X111786648Y-107147529D01*
X111615353Y-107222117D01*
X111476283Y-107282451D01*
X111373682Y-107326669D01*
X111311792Y-107352905D01*
X111298095Y-107358448D01*
X111272487Y-107363795D01*
X111277206Y-107343835D01*
X111312887Y-107292315D01*
X111413741Y-107191209D01*
X111565095Y-107091286D01*
X111764642Y-106993981D01*
X111848319Y-106959676D01*
X111946302Y-106918424D01*
X112078309Y-106858883D01*
X112231479Y-106787060D01*
X112392951Y-106708965D01*
X112515935Y-106647790D01*
X112700901Y-106556143D01*
X112926378Y-106447110D01*
X113184443Y-106324348D01*
X113467173Y-106191510D01*
X113766645Y-106052253D01*
X114074937Y-105910231D01*
X114384125Y-105769101D01*
X114686287Y-105632517D01*
X114973500Y-105504135D01*
X115237841Y-105387610D01*
X115398266Y-105317967D01*
X115485098Y-105280558D01*
X115525488Y-105377226D01*
G37*
G36*
X115615331Y-105618418D02*
G01*
X115646582Y-105663922D01*
X115672097Y-105720417D01*
X115682036Y-105767936D01*
X115676727Y-105783568D01*
X115649323Y-105798209D01*
X115578444Y-105833073D01*
X115468476Y-105886077D01*
X115323808Y-105955137D01*
X115148826Y-106038169D01*
X114947919Y-106133088D01*
X114725473Y-106237812D01*
X114485878Y-106350256D01*
X114321309Y-106427299D01*
X112987941Y-107050910D01*
X112822189Y-107021673D01*
X112687640Y-107007250D01*
X112561135Y-107016091D01*
X112433791Y-107051472D01*
X112296724Y-107116668D01*
X112141052Y-107214953D01*
X111981224Y-107331716D01*
X111825237Y-107444290D01*
X111689508Y-107529268D01*
X111579608Y-107583522D01*
X111501110Y-107603926D01*
X111496153Y-107604000D01*
X111445928Y-107593603D01*
X111376956Y-107568909D01*
X111370738Y-107566249D01*
X111313970Y-107536191D01*
X111286029Y-107510819D01*
X111285411Y-107507875D01*
X111308938Y-107495542D01*
X111376636Y-107463840D01*
X111484323Y-107414620D01*
X111627815Y-107349735D01*
X111802927Y-107271034D01*
X112005476Y-107180370D01*
X112231278Y-107079594D01*
X112476150Y-106970556D01*
X112735908Y-106855109D01*
X113006369Y-106735104D01*
X113283348Y-106612391D01*
X113562661Y-106488823D01*
X113840127Y-106366250D01*
X114111559Y-106246525D01*
X114372775Y-106131497D01*
X114619592Y-106023019D01*
X114847825Y-105922941D01*
X115053291Y-105833116D01*
X115231806Y-105755394D01*
X115379186Y-105691626D01*
X115491248Y-105643665D01*
X115563808Y-105613361D01*
X115588183Y-105603877D01*
X115615331Y-105618418D01*
G37*
G36*
X92561798Y-115245230D02*
G01*
X92565173Y-115236174D01*
X92581070Y-115276283D01*
X92588740Y-115278003D01*
X92603509Y-115285840D01*
X92640098Y-115328767D01*
X92691067Y-115397916D01*
X92699505Y-115410020D01*
X92778082Y-115515459D01*
X92869507Y-115626659D01*
X92934025Y-115698233D01*
X93060412Y-115830249D01*
X93074540Y-116081081D01*
X93118103Y-116463722D01*
X93205047Y-116863868D01*
X93332486Y-117273574D01*
X93497530Y-117684893D01*
X93697293Y-118089880D01*
X93928887Y-118480591D01*
X93968655Y-118541176D01*
X94119832Y-118750075D01*
X94297524Y-118965533D01*
X94491824Y-119177389D01*
X94692824Y-119375478D01*
X94890619Y-119549637D01*
X95075300Y-119689705D01*
X95112263Y-119714338D01*
X95436156Y-119898615D01*
X95763379Y-120035259D01*
X96090599Y-120124063D01*
X96414482Y-120164819D01*
X96731693Y-120157318D01*
X97038898Y-120101352D01*
X97332764Y-119996713D01*
X97571944Y-119867847D01*
X97659151Y-119805000D01*
X97713269Y-119741957D01*
X97750167Y-119661014D01*
X97786361Y-119558269D01*
X97823617Y-119452508D01*
X97832355Y-119427702D01*
X97888484Y-119293261D01*
X97955015Y-119192421D01*
X98041607Y-119117756D01*
X98157921Y-119061839D01*
X98313614Y-119017245D01*
X98386902Y-119001357D01*
X98495650Y-118974956D01*
X98591543Y-118944216D01*
X98656670Y-118915030D01*
X98664137Y-118910112D01*
X98789652Y-118788799D01*
X98904024Y-118616650D01*
X99006992Y-118394498D01*
X99098297Y-118123181D01*
X99177681Y-117803532D01*
X99244884Y-117436389D01*
X99299647Y-117022585D01*
X99323429Y-116785842D01*
X99334908Y-116647903D01*
X99339688Y-116550631D01*
X99337330Y-116482257D01*
X99327393Y-116431014D01*
X99309439Y-116385132D01*
X99308378Y-116382884D01*
X99255026Y-116292445D01*
X99186161Y-116220452D01*
X99095710Y-116164833D01*
X98977597Y-116123515D01*
X98825749Y-116094428D01*
X98634090Y-116075498D01*
X98396547Y-116064653D01*
X98373700Y-116064029D01*
X98219032Y-116059420D01*
X98079653Y-116054210D01*
X97965449Y-116048851D01*
X97886302Y-116043795D01*
X97854977Y-116040296D01*
X97821603Y-116024581D01*
X97798096Y-115985983D01*
X97778708Y-115912513D01*
X97769166Y-115861276D01*
X97748264Y-115686254D01*
X97741198Y-115495426D01*
X97747967Y-115310882D01*
X97768569Y-115154710D01*
X97769198Y-115151663D01*
X97824769Y-114958685D01*
X97910522Y-114781865D01*
X98033187Y-114609787D01*
X98186217Y-114444075D01*
X98413305Y-114219646D01*
X99205405Y-113865092D01*
X99436323Y-113761613D01*
X99687364Y-113648912D01*
X99944974Y-113533090D01*
X100195595Y-113420246D01*
X100425671Y-113316479D01*
X100621645Y-113227889D01*
X100628815Y-113224642D01*
X100797662Y-113148513D01*
X100949876Y-113080527D01*
X101079111Y-113023464D01*
X101179024Y-112980107D01*
X101243269Y-112953237D01*
X101265486Y-112945516D01*
X101275097Y-112971510D01*
X101298542Y-113039617D01*
X101333103Y-113141804D01*
X101376061Y-113270039D01*
X101421867Y-113407744D01*
X101470351Y-113552665D01*
X101513288Y-113678550D01*
X101547922Y-113777514D01*
X101571494Y-113841672D01*
X101581133Y-113863201D01*
X101607555Y-113853616D01*
X101670154Y-113828213D01*
X101756589Y-113792024D01*
X101777868Y-113782991D01*
X101871060Y-113747071D01*
X101947058Y-113724622D01*
X101991908Y-113719608D01*
X101995939Y-113721063D01*
X102013048Y-113723278D01*
X102006679Y-113708861D01*
X102004998Y-113681696D01*
X102015425Y-113678378D01*
X102020102Y-113703900D01*
X102024618Y-113776937D01*
X102028937Y-113892200D01*
X102033024Y-114044399D01*
X102036842Y-114228241D01*
X102040358Y-114438439D01*
X102043534Y-114669699D01*
X102046335Y-114916734D01*
X102048726Y-115174250D01*
X102050671Y-115436960D01*
X102052135Y-115699571D01*
X102053082Y-115956794D01*
X102053475Y-116203337D01*
X102053281Y-116433911D01*
X102052462Y-116643225D01*
X102050985Y-116825989D01*
X102048812Y-116976912D01*
X102045908Y-117090703D01*
X102042238Y-117162073D01*
X102039018Y-117184440D01*
X102023578Y-117210059D01*
X102018811Y-117203222D01*
X102006846Y-117194597D01*
X101997152Y-117205879D01*
X101966112Y-117227909D01*
X101897394Y-117264702D01*
X101802030Y-117310623D01*
X101719137Y-117347891D01*
X101278818Y-117562844D01*
X100829710Y-117826042D01*
X100375707Y-118134469D01*
X99920699Y-118485106D01*
X99468579Y-118874938D01*
X99023237Y-119300947D01*
X98588565Y-119760116D01*
X98545017Y-119808656D01*
X98363981Y-120013317D01*
X98211615Y-120190422D01*
X98079807Y-120350304D01*
X97960442Y-120503294D01*
X97845407Y-120659724D01*
X97726587Y-120829926D01*
X97626341Y-120978472D01*
X97432307Y-121262531D01*
X97257779Y-121503315D01*
X97099082Y-121704997D01*
X96952543Y-121871748D01*
X96814489Y-122007743D01*
X96681247Y-122117153D01*
X96549143Y-122204151D01*
X96545450Y-122206290D01*
X96309480Y-122312863D01*
X96052993Y-122374925D01*
X95785691Y-122391269D01*
X95517278Y-122360687D01*
X95442931Y-122343469D01*
X95271309Y-122299064D01*
X95146760Y-122058574D01*
X95101168Y-121961483D01*
X95043801Y-121825374D01*
X94979058Y-121661498D01*
X94911341Y-121481107D01*
X94845049Y-121295451D01*
X94821489Y-121226869D01*
X94725614Y-120949454D01*
X94639934Y-120715316D01*
X94560220Y-120516933D01*
X94482243Y-120346785D01*
X94401773Y-120197348D01*
X94314580Y-120061104D01*
X94216436Y-119930528D01*
X94103111Y-119798101D01*
X93970375Y-119656301D01*
X93894880Y-119579002D01*
X93747960Y-119432747D01*
X93579541Y-119269574D01*
X93399026Y-119098229D01*
X93215818Y-118927457D01*
X93039318Y-118766005D01*
X92878929Y-118622617D01*
X92744054Y-118506041D01*
X92717441Y-118483784D01*
X92616220Y-118396747D01*
X92553133Y-118333811D01*
X92523125Y-118288693D01*
X92521142Y-118255110D01*
X92525759Y-118245513D01*
X92528314Y-118215732D01*
X92530796Y-118137885D01*
X92533154Y-118016710D01*
X92535340Y-117856948D01*
X92537304Y-117663339D01*
X92538997Y-117440622D01*
X92540369Y-117193537D01*
X92541371Y-116926825D01*
X92541883Y-116696701D01*
X92542659Y-116420632D01*
X92544064Y-116162833D01*
X92546029Y-115927688D01*
X92548483Y-115719581D01*
X92551357Y-115542898D01*
X92554581Y-115402021D01*
X92555758Y-115368191D01*
X92564968Y-115368191D01*
X92574629Y-115389924D01*
X92582571Y-115385793D01*
X92585731Y-115354459D01*
X92582571Y-115350589D01*
X92566874Y-115354213D01*
X92564968Y-115368191D01*
X92555758Y-115368191D01*
X92558085Y-115301337D01*
X92561798Y-115245230D01*
G37*
G36*
X95099688Y-103658426D02*
G01*
X95287716Y-103703451D01*
X95496765Y-103745509D01*
X95707012Y-103781120D01*
X95898633Y-103806802D01*
X95997401Y-103816069D01*
X96124529Y-103826869D01*
X96279256Y-103842333D01*
X96436870Y-103859915D01*
X96512266Y-103869113D01*
X96666033Y-103886327D01*
X96845757Y-103903011D01*
X97024616Y-103916808D01*
X97125455Y-103922993D01*
X97258425Y-103930674D01*
X97358156Y-103939925D01*
X97440332Y-103954679D01*
X97520638Y-103978870D01*
X97614758Y-104016429D01*
X97738376Y-104071291D01*
X97765201Y-104083411D01*
X98024342Y-104192869D01*
X98257341Y-104273160D01*
X98479250Y-104328157D01*
X98705121Y-104361734D01*
X98901767Y-104375909D01*
X99203542Y-104375342D01*
X99483411Y-104347137D01*
X99734733Y-104292699D01*
X99950872Y-104213433D01*
X100113346Y-104119493D01*
X100179536Y-104062004D01*
X100261963Y-103976869D01*
X100346133Y-103879384D01*
X100373555Y-103844876D01*
X100458153Y-103741151D01*
X100525546Y-103677620D01*
X100587131Y-103650093D01*
X100654309Y-103654376D01*
X100738479Y-103686277D01*
X100767484Y-103699994D01*
X100883650Y-103777807D01*
X101007907Y-103899669D01*
X101135046Y-104058523D01*
X101259862Y-104247313D01*
X101377148Y-104458981D01*
X101463390Y-104643137D01*
X101539524Y-104844960D01*
X101611382Y-105083084D01*
X101674560Y-105341006D01*
X101724656Y-105602221D01*
X101732470Y-105651767D01*
X101744374Y-105763972D01*
X101753665Y-105921449D01*
X101760349Y-106116728D01*
X101764437Y-106342339D01*
X101765937Y-106590813D01*
X101764857Y-106854679D01*
X101761207Y-107126467D01*
X101754995Y-107398709D01*
X101746230Y-107663934D01*
X101734921Y-107914673D01*
X101729704Y-108008948D01*
X101692880Y-108636711D01*
X101637292Y-108596448D01*
X101582030Y-108560984D01*
X101502103Y-108514749D01*
X101452746Y-108487910D01*
X101323788Y-108419636D01*
X101140619Y-108544790D01*
X101026031Y-108629990D01*
X100921863Y-108723979D01*
X100824369Y-108832458D01*
X100729806Y-108961131D01*
X100634427Y-109115701D01*
X100534487Y-109301871D01*
X100426242Y-109525342D01*
X100305947Y-109791819D01*
X100274460Y-109863740D01*
X100172017Y-110095792D01*
X100084449Y-110286340D01*
X100007611Y-110443144D01*
X99937356Y-110573962D01*
X99869541Y-110686555D01*
X99800018Y-110788679D01*
X99732507Y-110878125D01*
X99616078Y-111007034D01*
X99479617Y-111128213D01*
X99342383Y-111225168D01*
X99298195Y-111250087D01*
X99253511Y-111260192D01*
X99165860Y-111269603D01*
X99045079Y-111278024D01*
X98901008Y-111285159D01*
X98743483Y-111290712D01*
X98582342Y-111294386D01*
X98427424Y-111295885D01*
X98288567Y-111294912D01*
X98175607Y-111291171D01*
X98109667Y-111285887D01*
X97479815Y-111184909D01*
X96875465Y-111037755D01*
X96296339Y-110844339D01*
X95742163Y-110604572D01*
X95401915Y-110427567D01*
X95144120Y-110272665D01*
X94929716Y-110117449D01*
X94749719Y-109954881D01*
X94633358Y-109825675D01*
X94518917Y-109667782D01*
X94402234Y-109472283D01*
X94290866Y-109253461D01*
X94192374Y-109025599D01*
X94150458Y-108913143D01*
X94089828Y-108731474D01*
X94024433Y-108519798D01*
X93957074Y-108288641D01*
X93890553Y-108048524D01*
X93827671Y-107809973D01*
X93771230Y-107583511D01*
X93724031Y-107379661D01*
X93688875Y-107208947D01*
X93674434Y-107124882D01*
X93647183Y-106960760D01*
X93614034Y-106783473D01*
X93579451Y-106615908D01*
X93551880Y-106496673D01*
X93519542Y-106358920D01*
X93500809Y-106251497D01*
X93493671Y-106154289D01*
X93496119Y-106047181D01*
X93500445Y-105981808D01*
X93537688Y-105679199D01*
X93601860Y-105381764D01*
X93688284Y-105110622D01*
X93700148Y-105080307D01*
X93849110Y-104767922D01*
X94038100Y-104468322D01*
X94259280Y-104191309D01*
X94504813Y-103946689D01*
X94766863Y-103744264D01*
X94769646Y-103742416D01*
X94954469Y-103619895D01*
X95099688Y-103658426D01*
G37*
G36*
X107850377Y-108815145D02*
G01*
X107889023Y-108867231D01*
X107892270Y-108873303D01*
X107917480Y-108928111D01*
X107913485Y-108955642D01*
X107876777Y-108974752D01*
X107873146Y-108976163D01*
X107841833Y-108989564D01*
X107765169Y-109022977D01*
X107646113Y-109075100D01*
X107487629Y-109144629D01*
X107292677Y-109230262D01*
X107064218Y-109330697D01*
X106805215Y-109444630D01*
X106518629Y-109570759D01*
X106207422Y-109707781D01*
X105874554Y-109854393D01*
X105522988Y-110009293D01*
X105155685Y-110171178D01*
X104776507Y-110338348D01*
X104396913Y-110505680D01*
X104030389Y-110667160D01*
X103679870Y-110821500D01*
X103348290Y-110967411D01*
X103038583Y-111103604D01*
X102753685Y-111228793D01*
X102496531Y-111341687D01*
X102270054Y-111440999D01*
X102077191Y-111525440D01*
X101920875Y-111593722D01*
X101804042Y-111644557D01*
X101729625Y-111676656D01*
X101700561Y-111688730D01*
X101700519Y-111688743D01*
X101674023Y-111679538D01*
X101643645Y-111633027D01*
X101605964Y-111543303D01*
X101588636Y-111495564D01*
X101557514Y-111399011D01*
X101538186Y-111321895D01*
X101533702Y-111277142D01*
X101535829Y-111271836D01*
X101566969Y-111253638D01*
X101635218Y-111219787D01*
X101729614Y-111175224D01*
X101839196Y-111124890D01*
X101953003Y-111073727D01*
X102060071Y-111026677D01*
X102149439Y-110988681D01*
X102210146Y-110964680D01*
X102230166Y-110958836D01*
X102253618Y-110981215D01*
X102270550Y-111024844D01*
X102289922Y-111074240D01*
X102307723Y-111090852D01*
X102345755Y-111081896D01*
X102425136Y-111056926D01*
X102537892Y-111018787D01*
X102676049Y-110970326D01*
X102831634Y-110914389D01*
X102996672Y-110853822D01*
X103163188Y-110791471D01*
X103323209Y-110730183D01*
X103376914Y-110709232D01*
X103577742Y-110629752D01*
X103771212Y-110551563D01*
X103964583Y-110471533D01*
X104165113Y-110386529D01*
X104380063Y-110293422D01*
X104616691Y-110189080D01*
X104882257Y-110070370D01*
X105184020Y-109934161D01*
X105383783Y-109843502D01*
X105803215Y-109653434D01*
X106186933Y-109480753D01*
X106533615Y-109326030D01*
X106841935Y-109189837D01*
X107110571Y-109072747D01*
X107338198Y-108975330D01*
X107523492Y-108898159D01*
X107665130Y-108841805D01*
X107761787Y-108806840D01*
X107812140Y-108793837D01*
X107814156Y-108793763D01*
X107850377Y-108815145D01*
G37*
G36*
X98549722Y-88736036D02*
G01*
X98546098Y-88751733D01*
X98532120Y-88753638D01*
X98510387Y-88743977D01*
X98514518Y-88736036D01*
X98545853Y-88732876D01*
X98549722Y-88736036D01*
G37*
G36*
X107978649Y-109912202D02*
G01*
X107986577Y-109975580D01*
X107995066Y-110050466D01*
X108012619Y-110211431D01*
X107516704Y-110464185D01*
X107128186Y-110658776D01*
X106723917Y-110854888D01*
X106312921Y-111048445D01*
X105904224Y-111235370D01*
X105506851Y-111411586D01*
X105129826Y-111573016D01*
X104782175Y-111715583D01*
X104525296Y-111815573D01*
X104188746Y-111946136D01*
X103897968Y-112066893D01*
X103647496Y-112180813D01*
X103431866Y-112290862D01*
X103245610Y-112400009D01*
X103083264Y-112511222D01*
X102939360Y-112627468D01*
X102816712Y-112743281D01*
X102729721Y-112833285D01*
X102674377Y-112897249D01*
X102644069Y-112945534D01*
X102632186Y-112988500D01*
X102631888Y-113032940D01*
X102637837Y-113129175D01*
X102440242Y-113205752D01*
X102338198Y-113245152D01*
X102275686Y-113268522D01*
X102243032Y-113278991D01*
X102230558Y-113279686D01*
X102228586Y-113274159D01*
X102220081Y-113247731D01*
X102196803Y-113181163D01*
X102162105Y-113083915D01*
X102119342Y-112965445D01*
X102109939Y-112939549D01*
X102066741Y-112817762D01*
X102032274Y-112714911D01*
X102009580Y-112640520D01*
X102001703Y-112604113D01*
X102002196Y-112602204D01*
X102026930Y-112590263D01*
X102096134Y-112558155D01*
X102206285Y-112507484D01*
X102353860Y-112439850D01*
X102535335Y-112356855D01*
X102747186Y-112260103D01*
X102985889Y-112151194D01*
X103247922Y-112031732D01*
X103529760Y-111903317D01*
X103827881Y-111767553D01*
X104138759Y-111626040D01*
X104458872Y-111480382D01*
X104784696Y-111332180D01*
X105112708Y-111183037D01*
X105439384Y-111034554D01*
X105761199Y-110888334D01*
X106074632Y-110745978D01*
X106376158Y-110609088D01*
X106662253Y-110479268D01*
X106929394Y-110358118D01*
X107174057Y-110247242D01*
X107392719Y-110148240D01*
X107581856Y-110062715D01*
X107737945Y-109992269D01*
X107857461Y-109938505D01*
X107936882Y-109903023D01*
X107972683Y-109887427D01*
X107974411Y-109886826D01*
X107978649Y-109912202D01*
G37*
G36*
X107298025Y-126708420D02*
G01*
X107284823Y-126721621D01*
X107271621Y-126708420D01*
X107284823Y-126695218D01*
X107298025Y-126708420D01*
G37*
G36*
X109134104Y-108898655D02*
G01*
X109237383Y-108933860D01*
X109338480Y-109000803D01*
X109444496Y-109098922D01*
X109555775Y-109237669D01*
X109663484Y-109421066D01*
X109764724Y-109640960D01*
X109856596Y-109889199D01*
X109936204Y-110157630D01*
X110000647Y-110438101D01*
X110047029Y-110722460D01*
X110059099Y-110827690D01*
X110076492Y-111000184D01*
X109763194Y-111149051D01*
X109536242Y-111251059D01*
X109344990Y-111323084D01*
X109182550Y-111366365D01*
X109042032Y-111382139D01*
X108916548Y-111371644D01*
X108799209Y-111336119D01*
X108776611Y-111326346D01*
X108696865Y-111283043D01*
X108618157Y-111228825D01*
X108553707Y-111174210D01*
X108516735Y-111129718D01*
X108512578Y-111116259D01*
X108537111Y-111102953D01*
X108605048Y-111082074D01*
X108707891Y-111055801D01*
X108837145Y-111026310D01*
X108977891Y-110997050D01*
X109011125Y-110985511D01*
X109023240Y-110958847D01*
X109017990Y-110902143D01*
X109011258Y-110864434D01*
X108994000Y-110779210D01*
X108973559Y-110695731D01*
X108947015Y-110605100D01*
X108911450Y-110498420D01*
X108863945Y-110366795D01*
X108801581Y-110201326D01*
X108747711Y-110061083D01*
X108686236Y-109895780D01*
X108628239Y-109728839D01*
X108578097Y-109573681D01*
X108540187Y-109443724D01*
X108522167Y-109369667D01*
X108500163Y-109259580D01*
X108489305Y-109188626D01*
X108489691Y-109144302D01*
X108501417Y-109114103D01*
X108524364Y-109085763D01*
X108615589Y-109012836D01*
X108739498Y-108950160D01*
X108876013Y-108905848D01*
X109005057Y-108888011D01*
X109013899Y-108887967D01*
X109134104Y-108898655D01*
G37*
G36*
X95960397Y-99667274D02*
G01*
X96027586Y-99688764D01*
X96127950Y-99723384D01*
X96253386Y-99768351D01*
X96372361Y-99812141D01*
X96612519Y-99899045D01*
X96858581Y-99983615D01*
X97097324Y-100061549D01*
X97315528Y-100128550D01*
X97499972Y-100180317D01*
X97522193Y-100186064D01*
X97590023Y-100205814D01*
X97629934Y-100222132D01*
X97634407Y-100226585D01*
X97624908Y-100256522D01*
X97598916Y-100325839D01*
X97560189Y-100425255D01*
X97512484Y-100545490D01*
X97459559Y-100677261D01*
X97405171Y-100811287D01*
X97353078Y-100938287D01*
X97307037Y-101048980D01*
X97270807Y-101134083D01*
X97248144Y-101184317D01*
X97242884Y-101193664D01*
X97212107Y-101193598D01*
X97140914Y-101180933D01*
X97039597Y-101157827D01*
X96918442Y-101126436D01*
X96906087Y-101123050D01*
X96694553Y-101059818D01*
X96455372Y-100980113D01*
X96208182Y-100890974D01*
X95972617Y-100799443D01*
X95797330Y-100725522D01*
X95711004Y-100682871D01*
X95667836Y-100648477D01*
X95660196Y-100616138D01*
X95660624Y-100614410D01*
X95682492Y-100534595D01*
X95712820Y-100426247D01*
X95748879Y-100298854D01*
X95787942Y-100161904D01*
X95827283Y-100024885D01*
X95864173Y-99897285D01*
X95895886Y-99788591D01*
X95919693Y-99708293D01*
X95932868Y-99665877D01*
X95934489Y-99661700D01*
X95960397Y-99667274D01*
G37*
G36*
X95187561Y-100571179D02*
G01*
X95244845Y-100597818D01*
X95319693Y-100636744D01*
X95398327Y-100680385D01*
X95466968Y-100721169D01*
X95511838Y-100751523D01*
X95521740Y-100762317D01*
X95514514Y-100796449D01*
X95496693Y-100862029D01*
X95486187Y-100897931D01*
X95451035Y-101015509D01*
X95302553Y-100793730D01*
X95241175Y-100700318D01*
X95193718Y-100624756D01*
X95166069Y-100576620D01*
X95161620Y-100564401D01*
X95187561Y-100571179D01*
G37*
G36*
X100703905Y-110659487D02*
G01*
X100798831Y-110444400D01*
X100853617Y-110327740D01*
X100955003Y-110108392D01*
X101041842Y-109907183D01*
X101111868Y-109730086D01*
X101162812Y-109583072D01*
X101192407Y-109472114D01*
X101199228Y-109417472D01*
X101210114Y-109409819D01*
X101240552Y-109446493D01*
X101287820Y-109523939D01*
X101306850Y-109558204D01*
X101349744Y-109636405D01*
X101386926Y-109701919D01*
X101423903Y-109763026D01*
X101466180Y-109828004D01*
X101519262Y-109905133D01*
X101588656Y-110002692D01*
X101679867Y-110128959D01*
X101758006Y-110236606D01*
X101845957Y-110361774D01*
X101917209Y-110471276D01*
X101966913Y-110557155D01*
X101990222Y-110611457D01*
X101991360Y-110619454D01*
X101996574Y-110658566D01*
X102012876Y-110648247D01*
X102014221Y-110646169D01*
X102033272Y-110633357D01*
X102047677Y-110669009D01*
X102049881Y-110679803D01*
X102051659Y-110736108D01*
X102038940Y-110763791D01*
X102030902Y-110793411D01*
X102040970Y-110810253D01*
X102055294Y-110837747D01*
X102046455Y-110865571D01*
X102008587Y-110898300D01*
X101935821Y-110940511D01*
X101822288Y-110996778D01*
X101770131Y-111021439D01*
X101642976Y-111080315D01*
X101555906Y-111118127D01*
X101501701Y-111137278D01*
X101473142Y-111140173D01*
X101463007Y-111129214D01*
X101462485Y-111123856D01*
X101449495Y-111086098D01*
X101439836Y-111068964D01*
X101419933Y-111059436D01*
X101377888Y-111067016D01*
X101307289Y-111094048D01*
X101201726Y-111142875D01*
X101099072Y-111193543D01*
X100980775Y-111254000D01*
X100880122Y-111307622D01*
X100806314Y-111349345D01*
X100768553Y-111374105D01*
X100765895Y-111376929D01*
X100768194Y-111409801D01*
X100785243Y-111481899D01*
X100814222Y-111582655D01*
X100852310Y-111701497D01*
X100853163Y-111704038D01*
X100955089Y-112007428D01*
X100838636Y-112064005D01*
X100766279Y-112097057D01*
X100713335Y-112117436D01*
X100699379Y-112120582D01*
X100682636Y-112096921D01*
X100657575Y-112033780D01*
X100628629Y-111942924D01*
X100617309Y-111902754D01*
X100586816Y-111766364D01*
X100561388Y-111608774D01*
X100546024Y-111461591D01*
X100545105Y-111446327D01*
X100543085Y-111297233D01*
X100555456Y-111153063D01*
X100584717Y-111004757D01*
X100633367Y-110843252D01*
X100634607Y-110840021D01*
X102017359Y-110840021D01*
X102030561Y-110853222D01*
X102043763Y-110840021D01*
X102030561Y-110826819D01*
X102017359Y-110840021D01*
X100634607Y-110840021D01*
X100675147Y-110734407D01*
X102017359Y-110734407D01*
X102030561Y-110747609D01*
X102043763Y-110734407D01*
X102030561Y-110721206D01*
X102017359Y-110734407D01*
X100675147Y-110734407D01*
X100703905Y-110659487D01*
G37*
G36*
X107373209Y-125991773D02*
G01*
X107380302Y-126019318D01*
X107392657Y-126086548D01*
X107394345Y-126127478D01*
X107386979Y-126134007D01*
X107372171Y-126098032D01*
X107367747Y-126082388D01*
X107355439Y-126010011D01*
X107353844Y-125969127D01*
X107360089Y-125958186D01*
X107373209Y-125991773D01*
G37*
G36*
X95657480Y-100803412D02*
G01*
X95724964Y-100829921D01*
X95817874Y-100868486D01*
X95880634Y-100895317D01*
X96132888Y-100997131D01*
X96413473Y-101098269D01*
X96698463Y-101190470D01*
X96918325Y-101253525D01*
X97025535Y-101283026D01*
X97112104Y-101308503D01*
X97166290Y-101326410D01*
X97178353Y-101332026D01*
X97172717Y-101358698D01*
X97150714Y-101425283D01*
X97115827Y-101522760D01*
X97071538Y-101642107D01*
X97021330Y-101774303D01*
X96968687Y-101910328D01*
X96917091Y-102041160D01*
X96870024Y-102157778D01*
X96830971Y-102251161D01*
X96803413Y-102312288D01*
X96792511Y-102331408D01*
X96765580Y-102324221D01*
X96707606Y-102289241D01*
X96628019Y-102232593D01*
X96563893Y-102182844D01*
X96452502Y-102087672D01*
X96318552Y-101963927D01*
X96171950Y-101821663D01*
X96022604Y-101670936D01*
X95880423Y-101521800D01*
X95755314Y-101384310D01*
X95657185Y-101268521D01*
X95634932Y-101240099D01*
X95523294Y-101093810D01*
X95566002Y-100943682D01*
X95591555Y-100863735D01*
X95614335Y-100809279D01*
X95626880Y-100793555D01*
X95657480Y-100803412D01*
G37*
G36*
X101218083Y-100407931D02*
G01*
X101218279Y-100437349D01*
X101209367Y-100507409D01*
X101193420Y-100607144D01*
X101172515Y-100725587D01*
X101148724Y-100851769D01*
X101124123Y-100974724D01*
X101100787Y-101083485D01*
X101080789Y-101167085D01*
X101066205Y-101214556D01*
X101065019Y-101217103D01*
X101026475Y-101243656D01*
X100938397Y-101272506D01*
X100803974Y-101302986D01*
X100626396Y-101334430D01*
X100408850Y-101366171D01*
X100261538Y-101384952D01*
X100028899Y-101412108D01*
X99845182Y-101430947D01*
X99707189Y-101441645D01*
X99611723Y-101444381D01*
X99555587Y-101439330D01*
X99535584Y-101426670D01*
X99535447Y-101425136D01*
X99541186Y-101390368D01*
X99556770Y-101315010D01*
X99579750Y-101209829D01*
X99607677Y-101085590D01*
X99638101Y-100953059D01*
X99668574Y-100823003D01*
X99696646Y-100706187D01*
X99719869Y-100613377D01*
X99721843Y-100605781D01*
X99746743Y-100510419D01*
X100188964Y-100496057D01*
X100364905Y-100488057D01*
X100549097Y-100475787D01*
X100723582Y-100460690D01*
X100870405Y-100444208D01*
X100917371Y-100437550D01*
X101034273Y-100420956D01*
X101130902Y-100409949D01*
X101196020Y-100405635D01*
X101218083Y-100407931D01*
G37*
G36*
X115741022Y-105911186D02*
G01*
X115777077Y-105957313D01*
X115811461Y-106019278D01*
X115835036Y-106079933D01*
X115838667Y-106122133D01*
X115835039Y-106128142D01*
X115809188Y-106142231D01*
X115741613Y-106176553D01*
X115637677Y-106228485D01*
X115502744Y-106295404D01*
X115342177Y-106374686D01*
X115161340Y-106463708D01*
X114965595Y-106559846D01*
X114760307Y-106660479D01*
X114550839Y-106762982D01*
X114342555Y-106864732D01*
X114140817Y-106963106D01*
X113950989Y-107055481D01*
X113778436Y-107139234D01*
X113628519Y-107211740D01*
X113506603Y-107270378D01*
X113418051Y-107312523D01*
X113368227Y-107335553D01*
X113359142Y-107339093D01*
X113341633Y-107320391D01*
X113297616Y-107274201D01*
X113245570Y-107219858D01*
X113133551Y-107103111D01*
X113271973Y-107040682D01*
X113323869Y-107016826D01*
X113418123Y-106973026D01*
X113549309Y-106911821D01*
X113712004Y-106835748D01*
X113900782Y-106747346D01*
X114110220Y-106649154D01*
X114334893Y-106543709D01*
X114545738Y-106444660D01*
X114774869Y-106337007D01*
X114989830Y-106236079D01*
X115185809Y-106144131D01*
X115357994Y-106063417D01*
X115501570Y-105996192D01*
X115611725Y-105944712D01*
X115683648Y-105911231D01*
X115712431Y-105898042D01*
X115741022Y-105911186D01*
G37*
G36*
X104184836Y-94042792D02*
G01*
X104202514Y-94073486D01*
X104207038Y-94134224D01*
X104199246Y-94232846D01*
X104185605Y-94337942D01*
X104167000Y-94469958D01*
X104146356Y-94311538D01*
X104132776Y-94215314D01*
X104119328Y-94132719D01*
X104111604Y-94093711D01*
X104110420Y-94048108D01*
X104144922Y-94034466D01*
X104153166Y-94034303D01*
X104184836Y-94042792D01*
G37*
G36*
X107350831Y-125810707D02*
G01*
X107337630Y-125823908D01*
X107324428Y-125810707D01*
X107337630Y-125797505D01*
X107350831Y-125810707D01*
G37*
G36*
X98472163Y-88711283D02*
G01*
X98464288Y-88723283D01*
X98437508Y-88725150D01*
X98409335Y-88718702D01*
X98421556Y-88709198D01*
X98462821Y-88706051D01*
X98472163Y-88711283D01*
G37*
G36*
X85139774Y-125443819D02*
G01*
X85359468Y-125636336D01*
X85533223Y-125809485D01*
X85663230Y-125965627D01*
X85747099Y-126098226D01*
X85783749Y-126176604D01*
X85805294Y-126250622D01*
X85815541Y-126339505D01*
X85818286Y-126457588D01*
X85806739Y-126636873D01*
X85766602Y-126786876D01*
X85691313Y-126923174D01*
X85574309Y-127061344D01*
X85556192Y-127079756D01*
X85475868Y-127158774D01*
X85408693Y-127217127D01*
X85344021Y-127258893D01*
X85271203Y-127288146D01*
X85179591Y-127308964D01*
X85058538Y-127325422D01*
X84897397Y-127341597D01*
X84864035Y-127344725D01*
X84440898Y-127389542D01*
X84048010Y-127441777D01*
X83689959Y-127500603D01*
X83371332Y-127565191D01*
X83096717Y-127634715D01*
X82892331Y-127700331D01*
X82806102Y-127736011D01*
X82684218Y-127792286D01*
X82537143Y-127864025D01*
X82375336Y-127946095D01*
X82209259Y-128033365D01*
X82166239Y-128056507D01*
X81992255Y-128149940D01*
X81856322Y-128220915D01*
X81750472Y-128272869D01*
X81666733Y-128309236D01*
X81597136Y-128333454D01*
X81533711Y-128348957D01*
X81468488Y-128359182D01*
X81462370Y-128359947D01*
X81331316Y-128373354D01*
X81206561Y-128379183D01*
X81075576Y-128376985D01*
X80925829Y-128366307D01*
X80744793Y-128346698D01*
X80605348Y-128329072D01*
X80447419Y-128306295D01*
X80287906Y-128279707D01*
X80143919Y-128252381D01*
X80032568Y-128227387D01*
X80018954Y-128223818D01*
X79807735Y-128150126D01*
X79633382Y-128054450D01*
X79499760Y-127940030D01*
X79410731Y-127810108D01*
X79371683Y-127680831D01*
X79366854Y-127614196D01*
X79381066Y-127567768D01*
X79423753Y-127521110D01*
X79459419Y-127490729D01*
X79573486Y-127407935D01*
X79703530Y-127337595D01*
X79856029Y-127277783D01*
X80037464Y-127226571D01*
X80254313Y-127182033D01*
X80513057Y-127142242D01*
X80716529Y-127116878D01*
X81018513Y-127079272D01*
X81267706Y-127042423D01*
X81464105Y-127006331D01*
X81607708Y-126970999D01*
X81670159Y-126949501D01*
X81747779Y-126917829D01*
X81499461Y-126769967D01*
X81316545Y-126662302D01*
X81170084Y-126579857D01*
X81052061Y-126519375D01*
X80954462Y-126477596D01*
X80869273Y-126451262D01*
X80788478Y-126437114D01*
X80704062Y-126431893D01*
X80667192Y-126431575D01*
X80476066Y-126441562D01*
X80294297Y-126473364D01*
X80107134Y-126530872D01*
X79899828Y-126617975D01*
X79824688Y-126653776D01*
X79522176Y-126822865D01*
X79267895Y-127011825D01*
X79060729Y-127221738D01*
X78899557Y-127453685D01*
X78812352Y-127632536D01*
X78768700Y-127731673D01*
X78730018Y-127795506D01*
X78684550Y-127838818D01*
X78620542Y-127876394D01*
X78617040Y-127878185D01*
X78498742Y-127918473D01*
X78352360Y-127939549D01*
X78199455Y-127940201D01*
X78061587Y-127919216D01*
X78033700Y-127911013D01*
X77925558Y-127853589D01*
X77859450Y-127770615D01*
X77835029Y-127668049D01*
X77851950Y-127551847D01*
X77909869Y-127427967D01*
X78008440Y-127302366D01*
X78072514Y-127241086D01*
X78203357Y-127141937D01*
X78369311Y-127044166D01*
X78574502Y-126945828D01*
X78823060Y-126844977D01*
X79119110Y-126739669D01*
X79178482Y-126719852D01*
X79474407Y-126618300D01*
X79719417Y-126526229D01*
X79914471Y-126443241D01*
X80060530Y-126368938D01*
X80129321Y-126325344D01*
X80190166Y-126256512D01*
X80206661Y-126177125D01*
X80182938Y-126097556D01*
X80123129Y-126028178D01*
X80031367Y-125979365D01*
X79986964Y-125967981D01*
X79927021Y-125953287D01*
X79904185Y-125937907D01*
X79920850Y-125921165D01*
X79979409Y-125902384D01*
X80082257Y-125880889D01*
X80231787Y-125856004D01*
X80430393Y-125827051D01*
X80538253Y-125812268D01*
X80671080Y-125794770D01*
X80802744Y-125778467D01*
X80940431Y-125762628D01*
X81091325Y-125746526D01*
X81262610Y-125729431D01*
X81461472Y-125710616D01*
X81695094Y-125689351D01*
X81970662Y-125664909D01*
X82122453Y-125651615D01*
X82529367Y-125614889D01*
X82889283Y-125579660D01*
X83207960Y-125545112D01*
X83491156Y-125510430D01*
X83744630Y-125474798D01*
X83974140Y-125437400D01*
X84185445Y-125397420D01*
X84384302Y-125354044D01*
X84576471Y-125306455D01*
X84596476Y-125301185D01*
X84879024Y-125226355D01*
X85139774Y-125443819D01*
G37*
G36*
X101034852Y-101415855D02*
G01*
X101024596Y-101483574D01*
X101007134Y-101579823D01*
X100993665Y-101648017D01*
X100971022Y-101774315D01*
X100960760Y-101866808D01*
X100963603Y-101918026D01*
X100966974Y-101924085D01*
X100957568Y-101950218D01*
X100909118Y-102003211D01*
X100825542Y-102079215D01*
X100718889Y-102167849D01*
X100505169Y-102334238D01*
X100312817Y-102470862D01*
X100127707Y-102587057D01*
X99935714Y-102692156D01*
X99891891Y-102714344D01*
X99776645Y-102768776D01*
X99650469Y-102823150D01*
X99522419Y-102874214D01*
X99401553Y-102918712D01*
X99296925Y-102953393D01*
X99217595Y-102975002D01*
X99172616Y-102980285D01*
X99165800Y-102975197D01*
X99171665Y-102945310D01*
X99187957Y-102872548D01*
X99212724Y-102765113D01*
X99244012Y-102631208D01*
X99279868Y-102479036D01*
X99318338Y-102316798D01*
X99357469Y-102152699D01*
X99395309Y-101994939D01*
X99429903Y-101851722D01*
X99459299Y-101731251D01*
X99481544Y-101641727D01*
X99494683Y-101591353D01*
X99497219Y-101583426D01*
X99525915Y-101575754D01*
X99596639Y-101566785D01*
X99698670Y-101557646D01*
X99818213Y-101549641D01*
X100109645Y-101525998D01*
X100419354Y-101488685D01*
X100718961Y-101441378D01*
X100855613Y-101415228D01*
X100943796Y-101398542D01*
X101008733Y-101388859D01*
X101036016Y-101388227D01*
X101034852Y-101415855D01*
G37*
G36*
X102735412Y-99953857D02*
G01*
X102693508Y-100009969D01*
X102628176Y-100093814D01*
X102544591Y-100198965D01*
X102447929Y-100318993D01*
X102343366Y-100447471D01*
X102236078Y-100577970D01*
X102131239Y-100704063D01*
X102036558Y-100816347D01*
X101953490Y-100910275D01*
X101879514Y-100987116D01*
X101822746Y-101038881D01*
X101791491Y-101057588D01*
X101750646Y-101064802D01*
X101671893Y-101084278D01*
X101567803Y-101112766D01*
X101485023Y-101136798D01*
X101374086Y-101169414D01*
X101283152Y-101195508D01*
X101223329Y-101211931D01*
X101205545Y-101216008D01*
X101200219Y-101195002D01*
X101204638Y-101169802D01*
X101213723Y-101128457D01*
X101230709Y-101045689D01*
X101253497Y-100931925D01*
X101279987Y-100797592D01*
X101292373Y-100734147D01*
X101323575Y-100579240D01*
X101348566Y-100469686D01*
X101369429Y-100398688D01*
X101388249Y-100359447D01*
X101407110Y-100345167D01*
X101411756Y-100344698D01*
X101464952Y-100336392D01*
X101559410Y-100313190D01*
X101686556Y-100277666D01*
X101837820Y-100232397D01*
X102004628Y-100179956D01*
X102178410Y-100122919D01*
X102350592Y-100063861D01*
X102373158Y-100055905D01*
X102502836Y-100010590D01*
X102613474Y-99973002D01*
X102696233Y-99946060D01*
X102742274Y-99932682D01*
X102748711Y-99931906D01*
X102735412Y-99953857D01*
G37*
G36*
X100306914Y-94711051D02*
G01*
X100383661Y-94856687D01*
X100431838Y-95015793D01*
X100453956Y-95200273D01*
X100453329Y-95405249D01*
X100429749Y-95650661D01*
X100379332Y-95861484D01*
X100296267Y-96051571D01*
X100174742Y-96234774D01*
X100038751Y-96393412D01*
X99971726Y-96461875D01*
X99894763Y-96535338D01*
X99816926Y-96605862D01*
X99747279Y-96665508D01*
X99694887Y-96706338D01*
X99668814Y-96720411D01*
X99667463Y-96718592D01*
X99679994Y-96690639D01*
X99712861Y-96630522D01*
X99758974Y-96551205D01*
X99759413Y-96550467D01*
X99884205Y-96304838D01*
X99993185Y-96016384D01*
X100084057Y-95693326D01*
X100154526Y-95343886D01*
X100202296Y-94976288D01*
X100203970Y-94958420D01*
X100236776Y-94601975D01*
X100306914Y-94711051D01*
G37*
G36*
X98073387Y-93938822D02*
G01*
X98076923Y-93939951D01*
X98076389Y-93968891D01*
X98065325Y-94036135D01*
X98045966Y-94128745D01*
X98039332Y-94157593D01*
X98012575Y-94316033D01*
X97996282Y-94507877D01*
X97990310Y-94717782D01*
X97994516Y-94930403D01*
X98008758Y-95130396D01*
X98032894Y-95302420D01*
X98050693Y-95380873D01*
X98148531Y-95681450D01*
X98265678Y-95939507D01*
X98400819Y-96153341D01*
X98552638Y-96321251D01*
X98719817Y-96441534D01*
X98901041Y-96512490D01*
X98931167Y-96519134D01*
X99095219Y-96533217D01*
X99245386Y-96504760D01*
X99389820Y-96430823D01*
X99536674Y-96308466D01*
X99548922Y-96296347D01*
X99625629Y-96220404D01*
X99670562Y-96179287D01*
X99688856Y-96170054D01*
X99685646Y-96189763D01*
X99669852Y-96227061D01*
X99542049Y-96472578D01*
X99392595Y-96691428D01*
X99227476Y-96876677D01*
X99052680Y-97021388D01*
X98915615Y-97100662D01*
X98739168Y-97163631D01*
X98556755Y-97194120D01*
X98384618Y-97190421D01*
X98281289Y-97167362D01*
X98051511Y-97063966D01*
X97836092Y-96912631D01*
X97637056Y-96716764D01*
X97456425Y-96479771D01*
X97296223Y-96205060D01*
X97158476Y-95896037D01*
X97045205Y-95556109D01*
X96958434Y-95188682D01*
X96906514Y-94852998D01*
X96891080Y-94700424D01*
X96879814Y-94542566D01*
X96872852Y-94388708D01*
X96870326Y-94248130D01*
X96872372Y-94130116D01*
X96879124Y-94043946D01*
X96890715Y-93998904D01*
X96894120Y-93995313D01*
X96926481Y-93989700D01*
X97001638Y-93982881D01*
X97110317Y-93975288D01*
X97243240Y-93967357D01*
X97391132Y-93959521D01*
X97544718Y-93952215D01*
X97694721Y-93945872D01*
X97831865Y-93940928D01*
X97946875Y-93937815D01*
X98030474Y-93936968D01*
X98073387Y-93938822D01*
G37*
G36*
X104255364Y-95345686D02*
G01*
X104243728Y-95424516D01*
X104219076Y-95553132D01*
X104195632Y-95666271D01*
X104142408Y-95898688D01*
X104086290Y-96097243D01*
X104020697Y-96280747D01*
X103939045Y-96468016D01*
X103856531Y-96635550D01*
X103767086Y-96822757D01*
X103709712Y-96975973D01*
X103683891Y-97102759D01*
X103689108Y-97210679D01*
X103724846Y-97307293D01*
X103790588Y-97400164D01*
X103803326Y-97414595D01*
X103898140Y-97519542D01*
X103782854Y-97517631D01*
X103700453Y-97510247D01*
X103589338Y-97492520D01*
X103471721Y-97468071D01*
X103456341Y-97464400D01*
X103355397Y-97434277D01*
X103232770Y-97389283D01*
X103099710Y-97334542D01*
X102967464Y-97275179D01*
X102847283Y-97216317D01*
X102750414Y-97163081D01*
X102688108Y-97120594D01*
X102676518Y-97109176D01*
X102663163Y-97083746D01*
X102686204Y-97072748D01*
X102739295Y-97070686D01*
X102896556Y-97047870D01*
X103068182Y-96982668D01*
X103244968Y-96879947D01*
X103417705Y-96744574D01*
X103494487Y-96671446D01*
X103691324Y-96441451D01*
X103870223Y-96167770D01*
X104032639Y-95847897D01*
X104168723Y-95510754D01*
X104210663Y-95399178D01*
X104238983Y-95333891D01*
X104253832Y-95315770D01*
X104255364Y-95345686D01*
G37*
G36*
X104288045Y-95209251D02*
G01*
X104274844Y-95222453D01*
X104261642Y-95209251D01*
X104274844Y-95196050D01*
X104288045Y-95209251D01*
G37*
G36*
X101120252Y-112556688D02*
G01*
X101155909Y-112622166D01*
X101175378Y-112672935D01*
X101201109Y-112750549D01*
X101216485Y-112803996D01*
X101218575Y-112819687D01*
X101193607Y-112831324D01*
X101128842Y-112861117D01*
X101032516Y-112905285D01*
X100912867Y-112960051D01*
X100829210Y-112998299D01*
X100654882Y-113078073D01*
X100456026Y-113169239D01*
X100256058Y-113261055D01*
X100078391Y-113342777D01*
X100063513Y-113349630D01*
X99848091Y-113448311D01*
X99676215Y-113525832D01*
X99548699Y-113581842D01*
X99466356Y-113615992D01*
X99429998Y-113627932D01*
X99439312Y-113618045D01*
X99481189Y-113590847D01*
X99555821Y-113542532D01*
X99651595Y-113480615D01*
X99729748Y-113430136D01*
X99877092Y-113325161D01*
X100034279Y-113196800D01*
X100178911Y-113063489D01*
X100196333Y-113046037D01*
X100293046Y-112949697D01*
X100370645Y-112879304D01*
X100443402Y-112825238D01*
X100525585Y-112777874D01*
X100631464Y-112727592D01*
X100737602Y-112681055D01*
X100858930Y-112629182D01*
X100964522Y-112585179D01*
X101044009Y-112553285D01*
X101087027Y-112537739D01*
X101089651Y-112537087D01*
X101120252Y-112556688D01*
G37*
G36*
X105542846Y-91624361D02*
G01*
X105700623Y-91636988D01*
X106014864Y-91692781D01*
X106327943Y-91795922D01*
X106630851Y-91941541D01*
X106914579Y-92124765D01*
X107170115Y-92340722D01*
X107339334Y-92523031D01*
X107460893Y-92691636D01*
X107574643Y-92889808D01*
X107671105Y-93098450D01*
X107740800Y-93298461D01*
X107757856Y-93366231D01*
X107797274Y-93665795D01*
X107786867Y-93970864D01*
X107728652Y-94276903D01*
X107624646Y-94579373D01*
X107476866Y-94873739D01*
X107287330Y-95155463D01*
X107058056Y-95420008D01*
X106791060Y-95662837D01*
X106707724Y-95727899D01*
X106605605Y-95802385D01*
X106506897Y-95870060D01*
X106427056Y-95920494D01*
X106400493Y-95935250D01*
X106300715Y-95986153D01*
X106282754Y-95782525D01*
X106223396Y-95403638D01*
X106113630Y-95040424D01*
X105953629Y-94693388D01*
X105848244Y-94515762D01*
X105759727Y-94387001D01*
X105668519Y-94276614D01*
X105566868Y-94178765D01*
X105447020Y-94087617D01*
X105301220Y-93997336D01*
X105121715Y-93902085D01*
X104900750Y-93796028D01*
X104877873Y-93785434D01*
X104881858Y-93760278D01*
X104895411Y-93691082D01*
X104916979Y-93585430D01*
X104945007Y-93450904D01*
X104977942Y-93295086D01*
X104989212Y-93242204D01*
X105026296Y-93063881D01*
X105064983Y-92869597D01*
X105103872Y-92667213D01*
X105141564Y-92464595D01*
X105176658Y-92269605D01*
X105207755Y-92090107D01*
X105233454Y-91933964D01*
X105252357Y-91809040D01*
X105263062Y-91723198D01*
X105264968Y-91693306D01*
X105279986Y-91655858D01*
X105328172Y-91632290D01*
X105414225Y-91621994D01*
X105542846Y-91624361D01*
G37*
G36*
X95654158Y-103341476D02*
G01*
X95640956Y-103354678D01*
X95627754Y-103341476D01*
X95640956Y-103328274D01*
X95654158Y-103341476D01*
G37*
G36*
X99413933Y-94185954D02*
G01*
X99497699Y-94211554D01*
X99619324Y-94256165D01*
X99654262Y-94269330D01*
X99839085Y-94339038D01*
X99847206Y-94481169D01*
X99841128Y-94626713D01*
X99801127Y-94740176D01*
X99722913Y-94833185D01*
X99714819Y-94840139D01*
X99613559Y-94894801D01*
X99505466Y-94900573D01*
X99402386Y-94857158D01*
X99390472Y-94848281D01*
X99314792Y-94762806D01*
X99255296Y-94647916D01*
X99222793Y-94526728D01*
X99219766Y-94483160D01*
X99231146Y-94400200D01*
X99259571Y-94305394D01*
X99271035Y-94277791D01*
X99296578Y-94225285D01*
X99322694Y-94192614D01*
X99358706Y-94179573D01*
X99413933Y-94185954D01*
G37*
G36*
X115937105Y-106264947D02*
G01*
X115971581Y-106323559D01*
X116013549Y-106398172D01*
X116055485Y-106475094D01*
X116089870Y-106540634D01*
X116109181Y-106581100D01*
X116110808Y-106587668D01*
X116084567Y-106598690D01*
X116021617Y-106623981D01*
X115934417Y-106658546D01*
X115913744Y-106666690D01*
X115827692Y-106703803D01*
X115706990Y-106760310D01*
X115563427Y-106830467D01*
X115408794Y-106908529D01*
X115280065Y-106975432D01*
X114979801Y-107133037D01*
X114721510Y-107266977D01*
X114501034Y-107379289D01*
X114314215Y-107472008D01*
X114156893Y-107547169D01*
X114024913Y-107606808D01*
X113914114Y-107652960D01*
X113836905Y-107681902D01*
X113731355Y-107717934D01*
X113642769Y-107745924D01*
X113584203Y-107761850D01*
X113570249Y-107764033D01*
X113544445Y-107741091D01*
X113510338Y-107681156D01*
X113477726Y-107603428D01*
X113449016Y-107520098D01*
X113431170Y-107459150D01*
X113427982Y-107434600D01*
X113455222Y-107419539D01*
X113524207Y-107384616D01*
X113629554Y-107332423D01*
X113765883Y-107265549D01*
X113927812Y-107186585D01*
X114109959Y-107098123D01*
X114306945Y-107002753D01*
X114513386Y-106903064D01*
X114723902Y-106801649D01*
X114933112Y-106701098D01*
X115135634Y-106604001D01*
X115326087Y-106512950D01*
X115499090Y-106430534D01*
X115649261Y-106359344D01*
X115771219Y-106301972D01*
X115859583Y-106261007D01*
X115908972Y-106239041D01*
X115917641Y-106236029D01*
X115937105Y-106264947D01*
G37*
G36*
X108486174Y-128583056D02*
G01*
X108472973Y-128596258D01*
X108459771Y-128583056D01*
X108472973Y-128569854D01*
X108486174Y-128583056D01*
G37*
G36*
X103224417Y-91934265D02*
G01*
X103392910Y-91985867D01*
X103552466Y-92084414D01*
X103700393Y-92227034D01*
X103833996Y-92410856D01*
X103950582Y-92633009D01*
X104047459Y-92890621D01*
X104090201Y-93041774D01*
X104121680Y-93178559D01*
X104149359Y-93321150D01*
X104168872Y-93446188D01*
X104173612Y-93488165D01*
X104190784Y-93672928D01*
X104104098Y-93655591D01*
X104030647Y-93643374D01*
X103974886Y-93638179D01*
X103974506Y-93638177D01*
X103932530Y-93617668D01*
X103885458Y-93567431D01*
X103878794Y-93557765D01*
X103824711Y-93494952D01*
X103747941Y-93427494D01*
X103709246Y-93399421D01*
X103567833Y-93334692D01*
X103415287Y-93317615D01*
X103258733Y-93346292D01*
X103105294Y-93418825D01*
X102962094Y-93533315D01*
X102886071Y-93618785D01*
X102823264Y-93692866D01*
X102764294Y-93743622D01*
X102691380Y-93782959D01*
X102586734Y-93822781D01*
X102575483Y-93826682D01*
X102285119Y-93939370D01*
X102038482Y-94061462D01*
X101838545Y-94191280D01*
X101689493Y-94325809D01*
X101637995Y-94376797D01*
X101603641Y-94399289D01*
X101594906Y-94393448D01*
X101601489Y-94315400D01*
X101619505Y-94198700D01*
X101646358Y-94055605D01*
X101679448Y-93898371D01*
X101716179Y-93739255D01*
X101753953Y-93590512D01*
X101790172Y-93464401D01*
X101795134Y-93448738D01*
X101913976Y-93125347D01*
X102051176Y-92833674D01*
X102204118Y-92576879D01*
X102370188Y-92358123D01*
X102546770Y-92180568D01*
X102731249Y-92047374D01*
X102921010Y-91961702D01*
X103049680Y-91932478D01*
X103224417Y-91934265D01*
G37*
G36*
X100998493Y-112170152D02*
G01*
X101024423Y-112224490D01*
X101048726Y-112292273D01*
X101064743Y-112354478D01*
X101065815Y-112392079D01*
X101063882Y-112394788D01*
X101037073Y-112408361D01*
X100972067Y-112438642D01*
X100878965Y-112480985D01*
X100780541Y-112525103D01*
X100658627Y-112577784D01*
X100578778Y-112607994D01*
X100536011Y-112617232D01*
X100525341Y-112607004D01*
X100527140Y-112601498D01*
X100547084Y-112551150D01*
X100576136Y-112472870D01*
X100593597Y-112424220D01*
X100624117Y-112348870D01*
X100659754Y-112299184D01*
X100715835Y-112259627D01*
X100794192Y-112220894D01*
X100878581Y-112183600D01*
X100945545Y-112157313D01*
X100977597Y-112148285D01*
X100998493Y-112170152D01*
G37*
G36*
X100082198Y-111823544D02*
G01*
X100039925Y-112078748D01*
X99957440Y-112316579D01*
X99832725Y-112539464D01*
X99663761Y-112749829D01*
X99448533Y-112950099D01*
X99185022Y-113142702D01*
X98871212Y-113330063D01*
X98795917Y-113370454D01*
X98616912Y-113453578D01*
X98466331Y-113499884D01*
X98426507Y-113506430D01*
X98239963Y-113537146D01*
X98033877Y-113583943D01*
X97827042Y-113641653D01*
X97638255Y-113705109D01*
X97507074Y-113759210D01*
X97323105Y-113865423D01*
X97147153Y-114004648D01*
X96993289Y-114163906D01*
X96875586Y-114330215D01*
X96862625Y-114353640D01*
X96801174Y-114491365D01*
X96751355Y-114645246D01*
X96719215Y-114793766D01*
X96710291Y-114895697D01*
X96729470Y-115045033D01*
X96783343Y-115214327D01*
X96866416Y-115389286D01*
X96953571Y-115528517D01*
X97072766Y-115713825D01*
X97199804Y-115940916D01*
X97330295Y-116200204D01*
X97459849Y-116482103D01*
X97584075Y-116777026D01*
X97698583Y-117075387D01*
X97798983Y-117367598D01*
X97806290Y-117390473D01*
X97821951Y-117511438D01*
X97787676Y-117616816D01*
X97704104Y-117706207D01*
X97571873Y-117779213D01*
X97391624Y-117835435D01*
X97163994Y-117874473D01*
X97007602Y-117889292D01*
X96737242Y-117908567D01*
X96687959Y-117793525D01*
X96654764Y-117712548D01*
X96618436Y-117616342D01*
X96576431Y-117497562D01*
X96526205Y-117348861D01*
X96465214Y-117162893D01*
X96406575Y-116981152D01*
X96335374Y-116768089D01*
X96272610Y-116598261D01*
X96219084Y-116473409D01*
X96175595Y-116395272D01*
X96142945Y-116365591D01*
X96127306Y-116374031D01*
X96107094Y-116416948D01*
X96077015Y-116493219D01*
X96044841Y-116582744D01*
X96004975Y-116751919D01*
X95987041Y-116952512D01*
X95991016Y-117167914D01*
X96016876Y-117381519D01*
X96046164Y-117514353D01*
X96145359Y-117803853D01*
X96286063Y-118098057D01*
X96460364Y-118383052D01*
X96660354Y-118644926D01*
X96738780Y-118732642D01*
X96898189Y-118903051D01*
X96744832Y-119024464D01*
X96621760Y-119111943D01*
X96484008Y-119193949D01*
X96347558Y-119262063D01*
X96228392Y-119307866D01*
X96186566Y-119318580D01*
X96142088Y-119324047D01*
X96109866Y-119312360D01*
X96079002Y-119273935D01*
X96038601Y-119199185D01*
X96028804Y-119179800D01*
X95990539Y-119097084D01*
X95940359Y-118978999D01*
X95884159Y-118839886D01*
X95827838Y-118694088D01*
X95815069Y-118659994D01*
X95731458Y-118439516D01*
X95659659Y-118260824D01*
X95595643Y-118115330D01*
X95535383Y-117994443D01*
X95474852Y-117889574D01*
X95410023Y-117792135D01*
X95404451Y-117784294D01*
X95336780Y-117699294D01*
X95257354Y-117614106D01*
X95176763Y-117538503D01*
X95105598Y-117482257D01*
X95054451Y-117455142D01*
X95046570Y-117454054D01*
X95022039Y-117477149D01*
X94991124Y-117536238D01*
X94960017Y-117616028D01*
X94934909Y-117701227D01*
X94924142Y-117756450D01*
X94919216Y-117845544D01*
X94929232Y-117946754D01*
X94956127Y-118068201D01*
X95001836Y-118218008D01*
X95068295Y-118404296D01*
X95095976Y-118477427D01*
X95164673Y-118662835D01*
X95213711Y-118808376D01*
X95242471Y-118911891D01*
X95250334Y-118971224D01*
X95241677Y-118985447D01*
X95191209Y-118970498D01*
X95109622Y-118930173D01*
X95007684Y-118871250D01*
X94896162Y-118800511D01*
X94785825Y-118724733D01*
X94687439Y-118650698D01*
X94623243Y-118596054D01*
X94476030Y-118448450D01*
X94342967Y-118289569D01*
X94222717Y-118115525D01*
X94113941Y-117922435D01*
X94015304Y-117706415D01*
X93925467Y-117463579D01*
X93843093Y-117190044D01*
X93766845Y-116881924D01*
X93695386Y-116535336D01*
X93627377Y-116146395D01*
X93561482Y-115711216D01*
X93516474Y-115381393D01*
X93493070Y-115204257D01*
X93471298Y-115041298D01*
X93452306Y-114900958D01*
X93437240Y-114791678D01*
X93427248Y-114721902D01*
X93424426Y-114703960D01*
X93412176Y-114633803D01*
X93589248Y-114636168D01*
X93741405Y-114626618D01*
X93866254Y-114590023D01*
X93969534Y-114521188D01*
X94056980Y-114414914D01*
X94134331Y-114266005D01*
X94204039Y-114079259D01*
X94261671Y-113907163D01*
X94311527Y-113775415D01*
X94361741Y-113677482D01*
X94420443Y-113606831D01*
X94495766Y-113556932D01*
X94595841Y-113521251D01*
X94728800Y-113493255D01*
X94902774Y-113466414D01*
X94980873Y-113455224D01*
X95488292Y-113377826D01*
X95947636Y-113297290D01*
X96363604Y-113212410D01*
X96740890Y-113121979D01*
X97084193Y-113024792D01*
X97398209Y-112919643D01*
X97687635Y-112805325D01*
X97913018Y-112702387D01*
X98060448Y-112628367D01*
X98184356Y-112559535D01*
X98296056Y-112487847D01*
X98406863Y-112405258D01*
X98528090Y-112303723D01*
X98671052Y-112175198D01*
X98726693Y-112123855D01*
X98922599Y-111954716D01*
X99103869Y-111827446D01*
X99281030Y-111737491D01*
X99464611Y-111680294D01*
X99665139Y-111651300D01*
X99832494Y-111645322D01*
X100097575Y-111645322D01*
X100082198Y-111823544D01*
G37*
G36*
X101772779Y-119123706D02*
G01*
X101949032Y-119149455D01*
X102154003Y-119198236D01*
X102395980Y-119270343D01*
X102457589Y-119290209D01*
X102811952Y-119416275D01*
X103170121Y-119563414D01*
X103522334Y-119726641D01*
X103858826Y-119900969D01*
X104169834Y-120081410D01*
X104445593Y-120262978D01*
X104621790Y-120395588D01*
X104809949Y-120556548D01*
X104986796Y-120728629D01*
X105156124Y-120917076D01*
X105321724Y-121127135D01*
X105487386Y-121364051D01*
X105656902Y-121633068D01*
X105834064Y-121939432D01*
X106022662Y-122288388D01*
X106106703Y-122449898D01*
X106299523Y-122840243D01*
X106459160Y-123201423D01*
X106588311Y-123543018D01*
X106689671Y-123874608D01*
X106765938Y-124205775D01*
X106819808Y-124546098D01*
X106853977Y-124905158D01*
X106866804Y-125150623D01*
X106869798Y-125298208D01*
X106868921Y-125465161D01*
X106864679Y-125641656D01*
X106857576Y-125817868D01*
X106848115Y-125983970D01*
X106836801Y-126130137D01*
X106824137Y-126246543D01*
X106810627Y-126323362D01*
X106805857Y-126338911D01*
X106820225Y-126369175D01*
X106872299Y-126413707D01*
X106933452Y-126453089D01*
X107028768Y-126513085D01*
X107121184Y-126578559D01*
X107166008Y-126614383D01*
X107258420Y-126694202D01*
X106255093Y-126688109D01*
X105998192Y-126686422D01*
X105789232Y-126684621D01*
X105623347Y-126682450D01*
X105495673Y-126679655D01*
X105401344Y-126675979D01*
X105335495Y-126671166D01*
X105293260Y-126664962D01*
X105269774Y-126657110D01*
X105260172Y-126647356D01*
X105259525Y-126635811D01*
X105258809Y-126622853D01*
X105248246Y-126612564D01*
X105222467Y-126604639D01*
X105176101Y-126598772D01*
X105103778Y-126594657D01*
X105000127Y-126591988D01*
X104859779Y-126590460D01*
X104677363Y-126589768D01*
X104447623Y-126589605D01*
X104218249Y-126589508D01*
X104036214Y-126588982D01*
X103896050Y-126587676D01*
X103792289Y-126585237D01*
X103719463Y-126581312D01*
X103672105Y-126575549D01*
X103644746Y-126567597D01*
X103631919Y-126557102D01*
X103628156Y-126543713D01*
X103627962Y-126536798D01*
X103627477Y-126530181D01*
X103624484Y-126524142D01*
X103616679Y-126518653D01*
X103601758Y-126513689D01*
X103577415Y-126509223D01*
X103541347Y-126505229D01*
X103491248Y-126501680D01*
X103424814Y-126498550D01*
X103339741Y-126495813D01*
X103233723Y-126493443D01*
X103104456Y-126491413D01*
X102949636Y-126489696D01*
X102766958Y-126488267D01*
X102554117Y-126487099D01*
X102308808Y-126486166D01*
X102028727Y-126485441D01*
X101711570Y-126484899D01*
X101355032Y-126484512D01*
X100956807Y-126484254D01*
X100514592Y-126484100D01*
X100026082Y-126484022D01*
X99488973Y-126483995D01*
X99007380Y-126483991D01*
X98428419Y-126483997D01*
X97899959Y-126484031D01*
X97419697Y-126484120D01*
X96985328Y-126484291D01*
X96594547Y-126484569D01*
X96245050Y-126484981D01*
X95934531Y-126485554D01*
X95660687Y-126486313D01*
X95421212Y-126487285D01*
X95213803Y-126488497D01*
X95036154Y-126489974D01*
X94885961Y-126491744D01*
X94760919Y-126493831D01*
X94658723Y-126496264D01*
X94577070Y-126499067D01*
X94513654Y-126502268D01*
X94466171Y-126505893D01*
X94432315Y-126509968D01*
X94409784Y-126514519D01*
X94396271Y-126519573D01*
X94389472Y-126525156D01*
X94387083Y-126531294D01*
X94386798Y-126536798D01*
X94385293Y-126551585D01*
X94377129Y-126563318D01*
X94356835Y-126572350D01*
X94318940Y-126579034D01*
X94257971Y-126583723D01*
X94168457Y-126586771D01*
X94044926Y-126588530D01*
X93881906Y-126589353D01*
X93673927Y-126589593D01*
X93568295Y-126589605D01*
X93339100Y-126589702D01*
X93157241Y-126590229D01*
X93017244Y-126591538D01*
X92913639Y-126593983D01*
X92840954Y-126597916D01*
X92793717Y-126603691D01*
X92766457Y-126611661D01*
X92753701Y-126622178D01*
X92749978Y-126635596D01*
X92749792Y-126642411D01*
X92748465Y-126655869D01*
X92741201Y-126666841D01*
X92723072Y-126675600D01*
X92689152Y-126682419D01*
X92634514Y-126687569D01*
X92554230Y-126691324D01*
X92443374Y-126693955D01*
X92297018Y-126695735D01*
X92110237Y-126696938D01*
X91878103Y-126697834D01*
X91739864Y-126698264D01*
X91513486Y-126699100D01*
X91303440Y-126700171D01*
X91115641Y-126701424D01*
X90956006Y-126702806D01*
X90830452Y-126704267D01*
X90744895Y-126705752D01*
X90705252Y-126707209D01*
X90703534Y-126707444D01*
X90659068Y-126713408D01*
X90604521Y-126717600D01*
X90550466Y-126731952D01*
X90531912Y-126757273D01*
X90506684Y-126776116D01*
X90435675Y-126793050D01*
X90325897Y-126807350D01*
X90184362Y-126818292D01*
X90018083Y-126825151D01*
X89854571Y-126827235D01*
X89751346Y-126829382D01*
X89691201Y-126837131D01*
X89664535Y-126852443D01*
X89660603Y-126866840D01*
X89653114Y-126882555D01*
X89625747Y-126893854D01*
X89571150Y-126901559D01*
X89481972Y-126906494D01*
X89350861Y-126909484D01*
X89271153Y-126910466D01*
X89131870Y-126912284D01*
X89010920Y-126914579D01*
X88918358Y-126917103D01*
X88864237Y-126919612D01*
X88855301Y-126920622D01*
X88818646Y-126923632D01*
X88742542Y-126926562D01*
X88640347Y-126928959D01*
X88584667Y-126929802D01*
X88466615Y-126932811D01*
X88392490Y-126939300D01*
X88353447Y-126950814D01*
X88340641Y-126968898D01*
X88340436Y-126972453D01*
X88328656Y-127007624D01*
X88318688Y-127012058D01*
X88315916Y-126989255D01*
X88328442Y-126928959D01*
X88353613Y-126843337D01*
X88359097Y-126826726D01*
X88435727Y-126516293D01*
X88463375Y-126192141D01*
X88442530Y-125859017D01*
X88373685Y-125521670D01*
X88257328Y-125184846D01*
X88169925Y-124994893D01*
X88025120Y-124707146D01*
X88173608Y-124453625D01*
X88514595Y-123911127D01*
X88886818Y-123392842D01*
X89285026Y-122905000D01*
X89703968Y-122453832D01*
X90138394Y-122045568D01*
X90360291Y-121859053D01*
X90704971Y-121603289D01*
X91083788Y-121362660D01*
X91481934Y-121145299D01*
X91884602Y-120959335D01*
X92248129Y-120822369D01*
X92443788Y-120762384D01*
X92660993Y-120704114D01*
X92884350Y-120651073D01*
X93098467Y-120606773D01*
X93287953Y-120574725D01*
X93387161Y-120562465D01*
X93509666Y-120550386D01*
X93632396Y-120756708D01*
X93677193Y-120838262D01*
X93738566Y-120958996D01*
X93812055Y-121109657D01*
X93893202Y-121280990D01*
X93977547Y-121463738D01*
X94042852Y-121608621D01*
X94124318Y-121789963D01*
X94203590Y-121963751D01*
X94276734Y-122121562D01*
X94339815Y-122254973D01*
X94388900Y-122355562D01*
X94416506Y-122408655D01*
X94603360Y-122715671D01*
X94795522Y-122972840D01*
X94996062Y-123183076D01*
X95208050Y-123349290D01*
X95434556Y-123474396D01*
X95610429Y-123541309D01*
X95793787Y-123587435D01*
X95990867Y-123617022D01*
X96184572Y-123628745D01*
X96357806Y-123621280D01*
X96448445Y-123606199D01*
X96619775Y-123554996D01*
X96800450Y-123478661D01*
X96994386Y-123374671D01*
X97205501Y-123240503D01*
X97437709Y-123073636D01*
X97694928Y-122871546D01*
X97981074Y-122631710D01*
X98039100Y-122581610D01*
X98182436Y-122458911D01*
X98345965Y-122321440D01*
X98510309Y-122185352D01*
X98656089Y-122066808D01*
X98666576Y-122058401D01*
X98781338Y-121964450D01*
X98883007Y-121875530D01*
X98977042Y-121785299D01*
X99068900Y-121687414D01*
X99164040Y-121575535D01*
X99267920Y-121443320D01*
X99385997Y-121284426D01*
X99523731Y-121092513D01*
X99641109Y-120926091D01*
X99864450Y-120611842D01*
X100064422Y-120339444D01*
X100244411Y-120105221D01*
X100407803Y-119905497D01*
X100557984Y-119736596D01*
X100698338Y-119594842D01*
X100832252Y-119476558D01*
X100963111Y-119378068D01*
X101094300Y-119295697D01*
X101189183Y-119245141D01*
X101333445Y-119181707D01*
X101473274Y-119140127D01*
X101616956Y-119120695D01*
X101772779Y-119123706D01*
G37*
G36*
X97368518Y-101367809D02*
G01*
X97442550Y-101381219D01*
X97494049Y-101392076D01*
X98008412Y-101481061D01*
X98552476Y-101535979D01*
X98868301Y-101551423D01*
X99043532Y-101556955D01*
X99172733Y-101561947D01*
X99262658Y-101567369D01*
X99320060Y-101574192D01*
X99351696Y-101583390D01*
X99364317Y-101595932D01*
X99364680Y-101612790D01*
X99362532Y-101622503D01*
X99352908Y-101662706D01*
X99332942Y-101746697D01*
X99304439Y-101866870D01*
X99269200Y-102015622D01*
X99229028Y-102185348D01*
X99194038Y-102333283D01*
X99151264Y-102511990D01*
X99111601Y-102673547D01*
X99076867Y-102810876D01*
X99048881Y-102916902D01*
X99029460Y-102984548D01*
X99021064Y-103006568D01*
X98986664Y-103015468D01*
X98911097Y-103022201D01*
X98805962Y-103026696D01*
X98682856Y-103028881D01*
X98553378Y-103028684D01*
X98429127Y-103026032D01*
X98321700Y-103020855D01*
X98242695Y-103013080D01*
X98232700Y-103011454D01*
X98086753Y-102978915D01*
X97914213Y-102930283D01*
X97736231Y-102872025D01*
X97573956Y-102810609D01*
X97568399Y-102808306D01*
X97474898Y-102765899D01*
X97363311Y-102710001D01*
X97244770Y-102646841D01*
X97130407Y-102582650D01*
X97031355Y-102523657D01*
X96958745Y-102476092D01*
X96925439Y-102448488D01*
X96920249Y-102421826D01*
X96929905Y-102367746D01*
X96955930Y-102281353D01*
X96999846Y-102157749D01*
X97063177Y-101992036D01*
X97083392Y-101940480D01*
X97142917Y-101789270D01*
X97196947Y-101651982D01*
X97242048Y-101537344D01*
X97274785Y-101454087D01*
X97291724Y-101410941D01*
X97291978Y-101410291D01*
X97305927Y-101381201D01*
X97327209Y-101367422D01*
X97368518Y-101367809D01*
G37*
G36*
X95669329Y-111834116D02*
G01*
X95747920Y-111846782D01*
X95861826Y-111866249D01*
X96002748Y-111891092D01*
X96162385Y-111919886D01*
X96202027Y-111927128D01*
X96736694Y-112025051D01*
X96736694Y-112512537D01*
X96650883Y-112540291D01*
X96417074Y-112599720D01*
X96164578Y-112635982D01*
X95913963Y-112647194D01*
X95685796Y-112631473D01*
X95673960Y-112629737D01*
X95601351Y-112618738D01*
X95601351Y-112224441D01*
X95602495Y-112063019D01*
X95606246Y-111948625D01*
X95613083Y-111875521D01*
X95623487Y-111837972D01*
X95634355Y-111829676D01*
X95669329Y-111834116D01*
G37*
G36*
X114439574Y-123938461D02*
G01*
X114639341Y-123945973D01*
X114697289Y-123949725D01*
X115035519Y-123984519D01*
X115338457Y-124037503D01*
X115603052Y-124107658D01*
X115826252Y-124193964D01*
X116005005Y-124295402D01*
X116136260Y-124410951D01*
X116158239Y-124437876D01*
X116230418Y-124532508D01*
X116141994Y-124623738D01*
X116082787Y-124677638D01*
X116033381Y-124710386D01*
X116017753Y-124714969D01*
X115981762Y-124707835D01*
X115904071Y-124688042D01*
X115793589Y-124658006D01*
X115659225Y-124620140D01*
X115532014Y-124583343D01*
X115264563Y-124507852D01*
X115037432Y-124450238D01*
X114841895Y-124408815D01*
X114669222Y-124381896D01*
X114510686Y-124367793D01*
X114400519Y-124364629D01*
X114158559Y-124382973D01*
X113936159Y-124438304D01*
X113741331Y-124527700D01*
X113582086Y-124648241D01*
X113559442Y-124671288D01*
X113500308Y-124734233D01*
X113634306Y-124854708D01*
X113708666Y-124915937D01*
X113787860Y-124967607D01*
X113878220Y-125011433D01*
X113986078Y-125049131D01*
X114117765Y-125082418D01*
X114279615Y-125113009D01*
X114477960Y-125142619D01*
X114719130Y-125172966D01*
X114874880Y-125190879D01*
X115029247Y-125208702D01*
X115164649Y-125225260D01*
X115272693Y-125239452D01*
X115344985Y-125250174D01*
X115373112Y-125256307D01*
X115375963Y-125286771D01*
X115368729Y-125346946D01*
X115367307Y-125354794D01*
X115334473Y-125452706D01*
X115272066Y-125574384D01*
X115188278Y-125706685D01*
X115091300Y-125836465D01*
X115007796Y-125931664D01*
X114862578Y-126083581D01*
X114652652Y-126102562D01*
X114469345Y-126112376D01*
X114241494Y-126113401D01*
X113976561Y-126106013D01*
X113682005Y-126090589D01*
X113365289Y-126067507D01*
X113033873Y-126037145D01*
X112750311Y-126006374D01*
X112511121Y-125979184D01*
X112310398Y-125958274D01*
X112134284Y-125942811D01*
X111968921Y-125931962D01*
X111800450Y-125924895D01*
X111615015Y-125920777D01*
X111398755Y-125918776D01*
X111284927Y-125918336D01*
X111031593Y-125918564D01*
X110819565Y-125921829D01*
X110637365Y-125929693D01*
X110473514Y-125943715D01*
X110316533Y-125965457D01*
X110154941Y-125996478D01*
X109977261Y-126038338D01*
X109772014Y-126092599D01*
X109552416Y-126153839D01*
X109410489Y-126193436D01*
X109285836Y-126227287D01*
X109187529Y-126253002D01*
X109124645Y-126268188D01*
X109106652Y-126271279D01*
X109077898Y-126251477D01*
X109028346Y-126200653D01*
X108971239Y-126132898D01*
X108822778Y-125910101D01*
X108725813Y-125681778D01*
X108680625Y-125449806D01*
X108687497Y-125216065D01*
X108746712Y-124982432D01*
X108784454Y-124890876D01*
X108871262Y-124747060D01*
X109002110Y-124593854D01*
X109170699Y-124437830D01*
X109352300Y-124298447D01*
X109571543Y-124143876D01*
X109748349Y-124167492D01*
X109855510Y-124177227D01*
X110005393Y-124184421D01*
X110187976Y-124189105D01*
X110393236Y-124191308D01*
X110611151Y-124191060D01*
X110831700Y-124188390D01*
X111044859Y-124183329D01*
X111240608Y-124175906D01*
X111408923Y-124166150D01*
X111456548Y-124162439D01*
X111583740Y-124151250D01*
X111752025Y-124135746D01*
X111949968Y-124117020D01*
X112166133Y-124096165D01*
X112389087Y-124074272D01*
X112592750Y-124053913D01*
X113002206Y-124014349D01*
X113364472Y-123983237D01*
X113684446Y-123960334D01*
X113967023Y-123945399D01*
X114217100Y-123938189D01*
X114439574Y-123938461D01*
G37*
G36*
X95972034Y-99409015D02*
G01*
X95818988Y-99352521D01*
X95691998Y-99306550D01*
X95627754Y-99283970D01*
X95503140Y-99243809D01*
X95358040Y-99201325D01*
X95203613Y-99159314D01*
X95051018Y-99120573D01*
X94911412Y-99087896D01*
X94795955Y-99064080D01*
X94715803Y-99051921D01*
X94697699Y-99050935D01*
X94639865Y-99043907D01*
X94630681Y-99021586D01*
X94670266Y-98982117D01*
X94703638Y-98958524D01*
X94760817Y-98913733D01*
X94776935Y-98873309D01*
X94753200Y-98821647D01*
X94717783Y-98775641D01*
X94654617Y-98698371D01*
X94296279Y-98967415D01*
X94178220Y-99057317D01*
X94076539Y-99137155D01*
X93998167Y-99201291D01*
X93950035Y-99244086D01*
X93937941Y-99258951D01*
X93954367Y-99298106D01*
X93992957Y-99350695D01*
X94037686Y-99397773D01*
X94072527Y-99420393D01*
X94074676Y-99420582D01*
X94109737Y-99405309D01*
X94168743Y-99366381D01*
X94205994Y-99338189D01*
X94267676Y-99293578D01*
X94311399Y-99269797D01*
X94323198Y-99268970D01*
X94335048Y-99299128D01*
X94354922Y-99367668D01*
X94379102Y-99461491D01*
X94386496Y-99492006D01*
X94464675Y-99746430D01*
X94581343Y-100024650D01*
X94731872Y-100319970D01*
X94911637Y-100625696D01*
X95116009Y-100935134D01*
X95340363Y-101241589D01*
X95580071Y-101538367D01*
X95830507Y-101818774D01*
X96087045Y-102076114D01*
X96309257Y-102274072D01*
X96694339Y-102571353D01*
X97076148Y-102816011D01*
X97455165Y-103008098D01*
X97831872Y-103147664D01*
X98206748Y-103234761D01*
X98580275Y-103269440D01*
X98952932Y-103251751D01*
X99325202Y-103181745D01*
X99697564Y-103059473D01*
X100070499Y-102884986D01*
X100374661Y-102704546D01*
X100468594Y-102644360D01*
X100545065Y-102596829D01*
X100593956Y-102568160D01*
X100606070Y-102562578D01*
X100601930Y-102584323D01*
X100575711Y-102644496D01*
X100531229Y-102735502D01*
X100472301Y-102849748D01*
X100402742Y-102979638D01*
X100334088Y-103103846D01*
X100222124Y-103292854D01*
X100121679Y-103438131D01*
X100027402Y-103545985D01*
X99933941Y-103622723D01*
X99857954Y-103665134D01*
X99688576Y-103726041D01*
X99493449Y-103769733D01*
X99293842Y-103792965D01*
X99111029Y-103792488D01*
X99060187Y-103786890D01*
X98884929Y-103759562D01*
X98720689Y-103728451D01*
X98561184Y-103691300D01*
X98400134Y-103645855D01*
X98231257Y-103589860D01*
X98048272Y-103521059D01*
X97844898Y-103437198D01*
X97614853Y-103336021D01*
X97351856Y-103215274D01*
X97049626Y-103072700D01*
X96984304Y-103041551D01*
X96666630Y-102891592D01*
X96375790Y-102758629D01*
X96104735Y-102640357D01*
X95846417Y-102534466D01*
X95593785Y-102438650D01*
X95339793Y-102350601D01*
X95077389Y-102268011D01*
X94799527Y-102188572D01*
X94499156Y-102109977D01*
X94169228Y-102029918D01*
X93802694Y-101946088D01*
X93392505Y-101856178D01*
X93307807Y-101837951D01*
X92983873Y-101766563D01*
X92676278Y-101695175D01*
X92389890Y-101625101D01*
X92129573Y-101557657D01*
X91900195Y-101494157D01*
X91706621Y-101435916D01*
X91553716Y-101384249D01*
X91446348Y-101340471D01*
X91422882Y-101328604D01*
X91377874Y-101301309D01*
X91327117Y-101264170D01*
X91266658Y-101213364D01*
X91192545Y-101145067D01*
X91100824Y-101055454D01*
X90987541Y-100940701D01*
X90848745Y-100796983D01*
X90680481Y-100620477D01*
X90565975Y-100499613D01*
X90384238Y-100298706D01*
X90242643Y-100120401D01*
X90137705Y-99957555D01*
X90065936Y-99803019D01*
X90023849Y-99649650D01*
X90007959Y-99490301D01*
X90011139Y-99362508D01*
X90045999Y-99147546D01*
X90121245Y-98952564D01*
X90239336Y-98774548D01*
X90402729Y-98610479D01*
X90613885Y-98457342D01*
X90861954Y-98318743D01*
X90939374Y-98282470D01*
X91054153Y-98231854D01*
X91194527Y-98171934D01*
X91348735Y-98107747D01*
X91469230Y-98058692D01*
X91800721Y-97920019D01*
X92087744Y-97788040D01*
X92337485Y-97658479D01*
X92557131Y-97527057D01*
X92753867Y-97389497D01*
X92934881Y-97241523D01*
X93095507Y-97090716D01*
X93347847Y-96802032D01*
X93562363Y-96476911D01*
X93738599Y-96116226D01*
X93876100Y-95720852D01*
X93938474Y-95473476D01*
X93959716Y-95373982D01*
X93978154Y-95279269D01*
X93994041Y-95184712D01*
X94007627Y-95085686D01*
X94019166Y-94977566D01*
X94028907Y-94855726D01*
X94037103Y-94715541D01*
X94044005Y-94552386D01*
X94049865Y-94361635D01*
X94054934Y-94138663D01*
X94059463Y-93878846D01*
X94063705Y-93577557D01*
X94067910Y-93230171D01*
X94069860Y-93057380D01*
X94074162Y-92689336D01*
X94078397Y-92370005D01*
X94082692Y-92095290D01*
X94087172Y-91861100D01*
X94091964Y-91663338D01*
X94097195Y-91497911D01*
X94102988Y-91360725D01*
X94109472Y-91247685D01*
X94116772Y-91154696D01*
X94125014Y-91077666D01*
X94132440Y-91024324D01*
X94228142Y-90537391D01*
X94358939Y-90086650D01*
X94526439Y-89667464D01*
X94732246Y-89275196D01*
X94746785Y-89250857D01*
X94803399Y-89167225D01*
X94868362Y-89097257D01*
X94955541Y-89027901D01*
X95053404Y-88962286D01*
X95418677Y-88745720D01*
X95766139Y-88576447D01*
X96098671Y-88453178D01*
X96324985Y-88393379D01*
X96472633Y-88368704D01*
X96650308Y-88350785D01*
X96843313Y-88339989D01*
X97036950Y-88336687D01*
X97216520Y-88341246D01*
X97367327Y-88354036D01*
X97436382Y-88365490D01*
X97513767Y-88385251D01*
X97617315Y-88416175D01*
X97737627Y-88454930D01*
X97865309Y-88498184D01*
X97990961Y-88542605D01*
X98105188Y-88584861D01*
X98198593Y-88621620D01*
X98261777Y-88649551D01*
X98285345Y-88665320D01*
X98284943Y-88666373D01*
X98256397Y-88665608D01*
X98187752Y-88655207D01*
X98090443Y-88637070D01*
X98013858Y-88621315D01*
X97791198Y-88583670D01*
X97546502Y-88558971D01*
X97294940Y-88547581D01*
X97051684Y-88549863D01*
X96831907Y-88566181D01*
X96683887Y-88589438D01*
X96553974Y-88620483D01*
X96424535Y-88657863D01*
X96317343Y-88695091D01*
X96287837Y-88707456D01*
X96059454Y-88837735D01*
X95850335Y-89014228D01*
X95659367Y-89238156D01*
X95485434Y-89510736D01*
X95397063Y-89680935D01*
X95326148Y-89830506D01*
X95276672Y-89941620D01*
X95249186Y-90012576D01*
X95244242Y-90041677D01*
X95262392Y-90027223D01*
X95303750Y-89968191D01*
X95444517Y-89793785D01*
X95633436Y-89626962D01*
X95866099Y-89470221D01*
X96138098Y-89326061D01*
X96445024Y-89196979D01*
X96782469Y-89085476D01*
X96934719Y-89043848D01*
X97247605Y-88975783D01*
X97549538Y-88937284D01*
X97850291Y-88928772D01*
X98159639Y-88950668D01*
X98487356Y-89003392D01*
X98843216Y-89087368D01*
X99007264Y-89133173D01*
X99107632Y-89161510D01*
X99186267Y-89182167D01*
X99231381Y-89192119D01*
X99237602Y-89192300D01*
X99223015Y-89172418D01*
X99178905Y-89124584D01*
X99113585Y-89057686D01*
X99085183Y-89029363D01*
X98981323Y-88934624D01*
X98888268Y-88870972D01*
X98787058Y-88825874D01*
X98766693Y-88818821D01*
X98606650Y-88765189D01*
X98961867Y-88775569D01*
X99151447Y-88777589D01*
X99333392Y-88771278D01*
X99515358Y-88755256D01*
X99705001Y-88728145D01*
X99909977Y-88688566D01*
X100137942Y-88635139D01*
X100396551Y-88566485D01*
X100693460Y-88481227D01*
X100842411Y-88436833D01*
X101151738Y-88345483D01*
X101419159Y-88270642D01*
X101652418Y-88210834D01*
X101859259Y-88164583D01*
X102047426Y-88130414D01*
X102224663Y-88106850D01*
X102398714Y-88092416D01*
X102577322Y-88085637D01*
X102690644Y-88084630D01*
X102854254Y-88085754D01*
X102974911Y-88089710D01*
X103062432Y-88097427D01*
X103126637Y-88109833D01*
X103177345Y-88127857D01*
X103185016Y-88131397D01*
X103236754Y-88162736D01*
X103303309Y-88212243D01*
X103376586Y-88272516D01*
X103448489Y-88336152D01*
X103510923Y-88395748D01*
X103555792Y-88443899D01*
X103575003Y-88473204D01*
X103563112Y-88477172D01*
X103490668Y-88463421D01*
X103378415Y-88453127D01*
X103239249Y-88446527D01*
X103086069Y-88443855D01*
X102931774Y-88445347D01*
X102789261Y-88451238D01*
X102677442Y-88461013D01*
X102443717Y-88496352D01*
X102183466Y-88547019D01*
X101918944Y-88608112D01*
X101672400Y-88674726D01*
X101581704Y-88702488D01*
X101463887Y-88742257D01*
X101379454Y-88779047D01*
X101310767Y-88823481D01*
X101240187Y-88886183D01*
X101185654Y-88941033D01*
X101111751Y-89018956D01*
X101073126Y-89065841D01*
X101066533Y-89086767D01*
X101088727Y-89086813D01*
X101093243Y-89085637D01*
X101370055Y-89011262D01*
X101605384Y-88952076D01*
X101807889Y-88906708D01*
X101986229Y-88873786D01*
X102149064Y-88851939D01*
X102305054Y-88839796D01*
X102462857Y-88835986D01*
X102631134Y-88839136D01*
X102646387Y-88839688D01*
X102952829Y-88864708D01*
X103257088Y-88918470D01*
X103573180Y-89004005D01*
X103852129Y-89100387D01*
X103963531Y-89143352D01*
X104036906Y-89177133D01*
X104084058Y-89210023D01*
X104116791Y-89250316D01*
X104146908Y-89306304D01*
X104147794Y-89308108D01*
X104249823Y-89538263D01*
X104350534Y-89806289D01*
X104445488Y-90097339D01*
X104530247Y-90396570D01*
X104600374Y-90689136D01*
X104651430Y-90960194D01*
X104660896Y-91024324D01*
X104675805Y-91172741D01*
X104686242Y-91360860D01*
X104692198Y-91575765D01*
X104693666Y-91804542D01*
X104690640Y-92034274D01*
X104683110Y-92252047D01*
X104671071Y-92444945D01*
X104661775Y-92542515D01*
X104636427Y-92753499D01*
X104608707Y-92958202D01*
X104579779Y-93150126D01*
X104550805Y-93322778D01*
X104522949Y-93469660D01*
X104497374Y-93584278D01*
X104475243Y-93660135D01*
X104457720Y-93690736D01*
X104456103Y-93691060D01*
X104428661Y-93667020D01*
X104420062Y-93606849D01*
X104414646Y-93524593D01*
X104399787Y-93402966D01*
X104377568Y-93254130D01*
X104350071Y-93090248D01*
X104319379Y-92923481D01*
X104287575Y-92765994D01*
X104256742Y-92629947D01*
X104244581Y-92582120D01*
X104148558Y-92282704D01*
X104030423Y-92020091D01*
X103892376Y-91796713D01*
X103736619Y-91615000D01*
X103565357Y-91477384D01*
X103380790Y-91386295D01*
X103185121Y-91344166D01*
X103120621Y-91341422D01*
X102897022Y-91367213D01*
X102680316Y-91444846D01*
X102471209Y-91573718D01*
X102270407Y-91753229D01*
X102078615Y-91982776D01*
X101896538Y-92261758D01*
X101773250Y-92490111D01*
X101595965Y-92894866D01*
X101460127Y-93320222D01*
X101364846Y-93770296D01*
X101309232Y-94249206D01*
X101292343Y-94714189D01*
X101291268Y-95222453D01*
X101060742Y-95222453D01*
X100949792Y-95221597D01*
X100880823Y-95217258D01*
X100843015Y-95206779D01*
X100825547Y-95187504D01*
X100818769Y-95163046D01*
X100786951Y-95004987D01*
X100759044Y-94885849D01*
X100731186Y-94792318D01*
X100699513Y-94711083D01*
X100668599Y-94645538D01*
X100581706Y-94498640D01*
X100476147Y-94361544D01*
X100364603Y-94249396D01*
X100291016Y-94194623D01*
X100242202Y-94160053D01*
X100213731Y-94121392D01*
X100197869Y-94062073D01*
X100187577Y-93972984D01*
X100155319Y-93736622D01*
X100101598Y-93468783D01*
X100030562Y-93184171D01*
X99946357Y-92897490D01*
X99853132Y-92623445D01*
X99755032Y-92376738D01*
X99708604Y-92274793D01*
X99592174Y-92045391D01*
X99479081Y-91854174D01*
X99360369Y-91687975D01*
X99227079Y-91533624D01*
X99152193Y-91456800D01*
X98937752Y-91274434D01*
X98715762Y-91143228D01*
X98489071Y-91063201D01*
X98260527Y-91034368D01*
X98032978Y-91056749D01*
X97809273Y-91130359D01*
X97592259Y-91255217D01*
X97384784Y-91431340D01*
X97370374Y-91445914D01*
X97167619Y-91685726D01*
X96992675Y-91962733D01*
X96844830Y-92278795D01*
X96723373Y-92635773D01*
X96627591Y-93035526D01*
X96556773Y-93479915D01*
X96541483Y-93611089D01*
X96531468Y-93648361D01*
X96503120Y-93673411D01*
X96444159Y-93693314D01*
X96370683Y-93709478D01*
X96186235Y-93755057D01*
X95981521Y-93819104D01*
X95777954Y-93894096D01*
X95596947Y-93972506D01*
X95537027Y-94002423D01*
X95319974Y-94142613D01*
X95112587Y-94326689D01*
X94921156Y-94545837D01*
X94751969Y-94791244D01*
X94611319Y-95054098D01*
X94505495Y-95325585D01*
X94455027Y-95518377D01*
X94417602Y-95809684D01*
X94429408Y-96086254D01*
X94491158Y-96354198D01*
X94577564Y-96567626D01*
X94654809Y-96695192D01*
X94767354Y-96838093D01*
X94904526Y-96985676D01*
X95055656Y-97127285D01*
X95210075Y-97252268D01*
X95357112Y-97349968D01*
X95366283Y-97355190D01*
X95740734Y-97538296D01*
X96145210Y-97684779D01*
X96568369Y-97790837D01*
X96769309Y-97825466D01*
X96998174Y-97848980D01*
X97258279Y-97858745D01*
X97532015Y-97855276D01*
X97801775Y-97839087D01*
X98049952Y-97810689D01*
X98202079Y-97783680D01*
X98580778Y-97685841D01*
X98942961Y-97558299D01*
X99284453Y-97404134D01*
X99601078Y-97226428D01*
X99888662Y-97028262D01*
X100143029Y-96812718D01*
X100360005Y-96582876D01*
X100535415Y-96341818D01*
X100665082Y-96092626D01*
X100724432Y-95922141D01*
X100768502Y-95763721D01*
X101347930Y-95748877D01*
X101392515Y-95956355D01*
X101458105Y-96177595D01*
X101558533Y-96408592D01*
X101684602Y-96629959D01*
X101769618Y-96751264D01*
X101835068Y-96837176D01*
X101891431Y-96911338D01*
X101928262Y-96960003D01*
X101932337Y-96965428D01*
X101947825Y-96990319D01*
X101938031Y-96998629D01*
X101893754Y-96991218D01*
X101829293Y-96975058D01*
X101549365Y-96918457D01*
X101272661Y-96892772D01*
X101005093Y-96896623D01*
X100752574Y-96928631D01*
X100521015Y-96987416D01*
X100316331Y-97071598D01*
X100144432Y-97179796D01*
X100011232Y-97310631D01*
X99944138Y-97415034D01*
X99873158Y-97580183D01*
X99820880Y-97753316D01*
X99788284Y-97924608D01*
X99776349Y-98084237D01*
X99786056Y-98222379D01*
X99818382Y-98329211D01*
X99848561Y-98373685D01*
X99939928Y-98437764D01*
X100050383Y-98453890D01*
X100132802Y-98439384D01*
X100200012Y-98414546D01*
X100217299Y-98385240D01*
X100187327Y-98342193D01*
X100166423Y-98322398D01*
X100081688Y-98214873D01*
X100042098Y-98092839D01*
X100048244Y-97985559D01*
X100644386Y-97985559D01*
X100652634Y-98068606D01*
X100684044Y-98124339D01*
X100713955Y-98151306D01*
X100775781Y-98193884D01*
X100820924Y-98199511D01*
X100869871Y-98166721D01*
X100899626Y-98138013D01*
X100942840Y-98085369D01*
X100958403Y-98029839D01*
X100955438Y-97971960D01*
X101462889Y-97971960D01*
X101481182Y-98068356D01*
X101529742Y-98141031D01*
X101599095Y-98177564D01*
X101621309Y-98179626D01*
X101678788Y-98161706D01*
X101726923Y-98126819D01*
X101766716Y-98057332D01*
X101777354Y-97969907D01*
X101762719Y-97879101D01*
X101726693Y-97799472D01*
X101673158Y-97745578D01*
X101621309Y-97730769D01*
X101560967Y-97754651D01*
X101508054Y-97816321D01*
X101472399Y-97900816D01*
X101462889Y-97971960D01*
X100955438Y-97971960D01*
X100954477Y-97953204D01*
X100932047Y-97846267D01*
X100890823Y-97783603D01*
X100825497Y-97758429D01*
X100801070Y-97757172D01*
X100722984Y-97780415D01*
X100669998Y-97846744D01*
X100645613Y-97951056D01*
X100644386Y-97985559D01*
X100048244Y-97985559D01*
X100049293Y-97967249D01*
X100097220Y-97860089D01*
X100205662Y-97740991D01*
X100352954Y-97642221D01*
X100531954Y-97563645D01*
X100735519Y-97505133D01*
X100956508Y-97466550D01*
X101187777Y-97447764D01*
X101422186Y-97448643D01*
X101652592Y-97469053D01*
X101871853Y-97508862D01*
X102072826Y-97567938D01*
X102248371Y-97646147D01*
X102391344Y-97743356D01*
X102494603Y-97859434D01*
X102520344Y-97905120D01*
X102555495Y-97974333D01*
X102579506Y-98003060D01*
X102603670Y-97998622D01*
X102630354Y-97976425D01*
X102707876Y-97877867D01*
X102748569Y-97763739D01*
X102751137Y-97686849D01*
X102750410Y-97625730D01*
X102766430Y-97609124D01*
X102768458Y-97609912D01*
X103008015Y-97714561D01*
X103219190Y-97792277D01*
X103416828Y-97846456D01*
X103615775Y-97880493D01*
X103830877Y-97897786D01*
X104044570Y-97901850D01*
X104447977Y-97901309D01*
X104477071Y-97998415D01*
X104489006Y-98048529D01*
X104488898Y-98095214D01*
X104473473Y-98151869D01*
X104439459Y-98231894D01*
X104399544Y-98315796D01*
X104239128Y-98610642D01*
X104037601Y-98920657D01*
X103801293Y-99237816D01*
X103536534Y-99554095D01*
X103249655Y-99861469D01*
X102961457Y-100138773D01*
X102720817Y-100357900D01*
X103445183Y-99446142D01*
X103375019Y-99354152D01*
X103329458Y-99298267D01*
X103297171Y-99265629D01*
X103290678Y-99262162D01*
X103254856Y-99278372D01*
X103202761Y-99317467D01*
X103150496Y-99365141D01*
X103114165Y-99407088D01*
X103106854Y-99425458D01*
X103089365Y-99463046D01*
X103028661Y-99513444D01*
X102931556Y-99572557D01*
X102804860Y-99636287D01*
X102655387Y-99700539D01*
X102637837Y-99707467D01*
X102197451Y-99870925D01*
X101787884Y-100003298D01*
X101398873Y-100106676D01*
X101020152Y-100183151D01*
X100641457Y-100234812D01*
X100252524Y-100263751D01*
X99865488Y-100272101D01*
X99383876Y-100258883D01*
X98909409Y-100218958D01*
X98434666Y-100150786D01*
X97952223Y-100052828D01*
X97454658Y-99923546D01*
X96934546Y-99761401D01*
X96384465Y-99564854D01*
X96301039Y-99533125D01*
X96201001Y-99495115D01*
X100899489Y-99495115D01*
X100940506Y-99586480D01*
X101011077Y-99645020D01*
X101075223Y-99675722D01*
X101107417Y-99672118D01*
X101118547Y-99627200D01*
X101119646Y-99575132D01*
X101127827Y-99501282D01*
X101149733Y-99395478D01*
X101181411Y-99275526D01*
X101198856Y-99218371D01*
X101232701Y-99110132D01*
X101259332Y-99020049D01*
X101275195Y-98960419D01*
X101278066Y-98944328D01*
X101261556Y-98930232D01*
X101218807Y-98947194D01*
X101159989Y-98988026D01*
X101095270Y-99045538D01*
X101034823Y-99112541D01*
X101028370Y-99120837D01*
X100943612Y-99256516D01*
X100900587Y-99383201D01*
X100899489Y-99495115D01*
X96201001Y-99495115D01*
X96137322Y-99470920D01*
X95972034Y-99409015D01*
G37*
G36*
X104816052Y-94189496D02*
G01*
X104881536Y-94212022D01*
X104971419Y-94250308D01*
X105027845Y-94276890D01*
X105243311Y-94404278D01*
X105427589Y-94563429D01*
X105584299Y-94758892D01*
X105717064Y-94995218D01*
X105829505Y-95276956D01*
X105833608Y-95289167D01*
X105874568Y-95447799D01*
X105904120Y-95634887D01*
X105921017Y-95832750D01*
X105924012Y-96023705D01*
X105911855Y-96190068D01*
X105901447Y-96250635D01*
X105834355Y-96460758D01*
X105727735Y-96668523D01*
X105591879Y-96854071D01*
X105584223Y-96862722D01*
X105514660Y-96938337D01*
X105460857Y-96984702D01*
X105404347Y-97011710D01*
X105326663Y-97029256D01*
X105251551Y-97040944D01*
X105104918Y-97057055D01*
X104943251Y-97065597D01*
X104783039Y-97066507D01*
X104640766Y-97059725D01*
X104532920Y-97045186D01*
X104526311Y-97043694D01*
X104421953Y-96993696D01*
X104348380Y-96904243D01*
X104322687Y-96836318D01*
X104318872Y-96777762D01*
X104323926Y-96674976D01*
X104336914Y-96535617D01*
X104356904Y-96367344D01*
X104382963Y-96177816D01*
X104414158Y-95974690D01*
X104449558Y-95765626D01*
X104460499Y-95704853D01*
X104489894Y-95548310D01*
X104524080Y-95373533D01*
X104561486Y-95187850D01*
X104600538Y-94998590D01*
X104639664Y-94813083D01*
X104677290Y-94638658D01*
X104711845Y-94482642D01*
X104741756Y-94352365D01*
X104765448Y-94255157D01*
X104781351Y-94198345D01*
X104786247Y-94186930D01*
X104816052Y-94189496D01*
G37*
G36*
X112806707Y-107474160D02*
G01*
X112886973Y-107513181D01*
X112930674Y-107559407D01*
X113023949Y-107713274D01*
X113109211Y-107911356D01*
X113184319Y-108145393D01*
X113247131Y-108407120D01*
X113295506Y-108688276D01*
X113327302Y-108980597D01*
X113336108Y-109123804D01*
X113341907Y-109268190D01*
X113343203Y-109372161D01*
X113338906Y-109447997D01*
X113327928Y-109507979D01*
X113309180Y-109564388D01*
X113293727Y-109601673D01*
X113200438Y-109761786D01*
X113077646Y-109882393D01*
X112930214Y-109959291D01*
X112858122Y-109978324D01*
X112732333Y-109998833D01*
X112639737Y-110003945D01*
X112563224Y-109994327D01*
X112547385Y-109990442D01*
X112526903Y-109977903D01*
X112510534Y-109948143D01*
X112497365Y-109894860D01*
X112486481Y-109811753D01*
X112476968Y-109692521D01*
X112467911Y-109530861D01*
X112461880Y-109401039D01*
X112453784Y-109268078D01*
X112440460Y-109147423D01*
X112419259Y-109024283D01*
X112387534Y-108883868D01*
X112342639Y-108711386D01*
X112330434Y-108666583D01*
X112273565Y-108452885D01*
X112232092Y-108280812D01*
X112204649Y-108141912D01*
X112189874Y-108027733D01*
X112186402Y-107929823D01*
X112192869Y-107839730D01*
X112194719Y-107825592D01*
X112204606Y-107764195D01*
X112220324Y-107720972D01*
X112251614Y-107685547D01*
X112308214Y-107647541D01*
X112399864Y-107596578D01*
X112419758Y-107585811D01*
X112578050Y-107510219D01*
X112705383Y-107473087D01*
X112806707Y-107474160D01*
G37*
G36*
X112872122Y-104791241D02*
G01*
X112975460Y-104805986D01*
X113037002Y-104826039D01*
X113064224Y-104862634D01*
X113064598Y-104927001D01*
X113045598Y-105030372D01*
X113042187Y-105046817D01*
X112962707Y-105307730D01*
X112838878Y-105540075D01*
X112671293Y-105742956D01*
X112469305Y-105909510D01*
X112359236Y-105970445D01*
X112233111Y-106007807D01*
X112165667Y-106019147D01*
X111942826Y-106046192D01*
X111760247Y-106058223D01*
X111607690Y-106055660D01*
X111516006Y-106045815D01*
X111421232Y-106028048D01*
X111340015Y-106006446D01*
X111304779Y-105992740D01*
X111243606Y-105953166D01*
X111179527Y-105899945D01*
X111127108Y-105846660D01*
X111100914Y-105806894D01*
X111100104Y-105801876D01*
X111117119Y-105760797D01*
X111163118Y-105690947D01*
X111230532Y-105601664D01*
X111311791Y-105502287D01*
X111399328Y-105402154D01*
X111485571Y-105310604D01*
X111544745Y-105253289D01*
X111789852Y-105059680D01*
X112047353Y-104916073D01*
X112315399Y-104823111D01*
X112592143Y-104781438D01*
X112872122Y-104791241D01*
G37*
G36*
X107969140Y-109593522D02*
G01*
X107980182Y-109680263D01*
X107968850Y-109736805D01*
X107943411Y-109750614D01*
X107873424Y-109784658D01*
X107762414Y-109837322D01*
X107613907Y-109906993D01*
X107431428Y-109992055D01*
X107218504Y-110090895D01*
X106978659Y-110201896D01*
X106715420Y-110323446D01*
X106432312Y-110453930D01*
X106132862Y-110591733D01*
X105820593Y-110735240D01*
X105499034Y-110882837D01*
X105171708Y-111032910D01*
X104842142Y-111183844D01*
X104513861Y-111334025D01*
X104190391Y-111481837D01*
X103875259Y-111625667D01*
X103571988Y-111763900D01*
X103284106Y-111894922D01*
X103015138Y-112017118D01*
X102768609Y-112128873D01*
X102548046Y-112228573D01*
X102356974Y-112314604D01*
X102198918Y-112385351D01*
X102077404Y-112439200D01*
X101995959Y-112474535D01*
X101958107Y-112489743D01*
X101956026Y-112490228D01*
X101943773Y-112467710D01*
X101920266Y-112409855D01*
X101901343Y-112358863D01*
X101876252Y-112279529D01*
X101863364Y-112219208D01*
X101863452Y-112199457D01*
X101888321Y-112185486D01*
X101958626Y-112151552D01*
X102071469Y-112098958D01*
X102223951Y-112029007D01*
X102413174Y-111943001D01*
X102636238Y-111842244D01*
X102890245Y-111728040D01*
X103172298Y-111601692D01*
X103479496Y-111464502D01*
X103808941Y-111317774D01*
X104157735Y-111162811D01*
X104522980Y-111000917D01*
X104901775Y-110833394D01*
X104908852Y-110830268D01*
X107944906Y-109489120D01*
X107969140Y-109593522D01*
G37*
G36*
X103548752Y-126576403D02*
G01*
X103535551Y-126589605D01*
X103522349Y-126576403D01*
X103535551Y-126563201D01*
X103548752Y-126576403D01*
G37*
G36*
X119796180Y-103456702D02*
G01*
X119996519Y-103463854D01*
X120179578Y-103471921D01*
X120338673Y-103480488D01*
X120467121Y-103489142D01*
X120558235Y-103497468D01*
X120605332Y-103505049D01*
X120609966Y-103507201D01*
X120616976Y-103540763D01*
X120622421Y-103623507D01*
X120626231Y-103751828D01*
X120628336Y-103922123D01*
X120628667Y-104130788D01*
X120627156Y-104374220D01*
X120626987Y-104391714D01*
X120625131Y-104659794D01*
X120625345Y-104877474D01*
X120627619Y-105044262D01*
X120631943Y-105159664D01*
X120638305Y-105223189D01*
X120644906Y-105236299D01*
X120650898Y-105239646D01*
X120631704Y-105261906D01*
X120588129Y-105288393D01*
X120509247Y-105321721D01*
X120410837Y-105355352D01*
X120394074Y-105360400D01*
X120318896Y-105384158D01*
X120202172Y-105423039D01*
X120052027Y-105474245D01*
X119876588Y-105534974D01*
X119683980Y-105602427D01*
X119482329Y-105673804D01*
X119417151Y-105697039D01*
X119039573Y-105830884D01*
X118686780Y-105953935D01*
X118361569Y-106065293D01*
X118066735Y-106164059D01*
X117805073Y-106249334D01*
X117579378Y-106320220D01*
X117392445Y-106375817D01*
X117247070Y-106415227D01*
X117146047Y-106437551D01*
X117099051Y-106442504D01*
X117051182Y-106432663D01*
X116973344Y-106408563D01*
X116902806Y-106383097D01*
X116822190Y-106347549D01*
X116755318Y-106304079D01*
X116688392Y-106241422D01*
X116607614Y-106148314D01*
X116592318Y-106129638D01*
X116446198Y-105932538D01*
X116302581Y-105706484D01*
X116171064Y-105468575D01*
X116061245Y-105235911D01*
X115996430Y-105067918D01*
X115965875Y-104970668D01*
X115929928Y-104845319D01*
X115891227Y-104702401D01*
X115852412Y-104552443D01*
X115816122Y-104405975D01*
X115784996Y-104273528D01*
X115761672Y-104165631D01*
X115748790Y-104092815D01*
X115747089Y-104073023D01*
X115768774Y-104050381D01*
X115824440Y-104015207D01*
X115872505Y-103989883D01*
X116211699Y-103844612D01*
X116593970Y-103722038D01*
X117020027Y-103622065D01*
X117490577Y-103544598D01*
X118006326Y-103489540D01*
X118567983Y-103456796D01*
X119176254Y-103446268D01*
X119796180Y-103456702D01*
G37*
G36*
X98364899Y-88683229D02*
G01*
X98361275Y-88698926D01*
X98347297Y-88700831D01*
X98325564Y-88691171D01*
X98329695Y-88683229D01*
X98361029Y-88680069D01*
X98364899Y-88683229D01*
G37*
G36*
X110053522Y-107879351D02*
G01*
X110027832Y-107921711D01*
X109988921Y-107959974D01*
X109927513Y-108000400D01*
X109834334Y-108049246D01*
X109723961Y-108101718D01*
X109436800Y-108235169D01*
X109397142Y-108178550D01*
X109360287Y-108101951D01*
X109369960Y-108046366D01*
X109425567Y-108014769D01*
X109430093Y-108013755D01*
X109504955Y-107991834D01*
X109596635Y-107952318D01*
X109716206Y-107890179D01*
X109777489Y-107856080D01*
X109879534Y-107812048D01*
X109978971Y-107791039D01*
X109994889Y-107790436D01*
X110095923Y-107790436D01*
X110053522Y-107879351D01*
G37*
G36*
X109990383Y-108129678D02*
G01*
X109989562Y-108185666D01*
X109976664Y-108258415D01*
X109953509Y-108331100D01*
X109952906Y-108332553D01*
X109913496Y-108402931D01*
X109876042Y-108423026D01*
X109846205Y-108398133D01*
X109813161Y-108376014D01*
X109747285Y-108349097D01*
X109706030Y-108335877D01*
X109581912Y-108299603D01*
X109772677Y-108203440D01*
X109862939Y-108158745D01*
X109933919Y-108125105D01*
X109973482Y-108108224D01*
X109977303Y-108107276D01*
X109990383Y-108129678D01*
G37*
G36*
X87759563Y-128424636D02*
G01*
X87746361Y-128437838D01*
X87733160Y-128424636D01*
X87746361Y-128411434D01*
X87759563Y-128424636D01*
G37*
G36*
X111204964Y-108059434D02*
G01*
X111364747Y-108138648D01*
X111519530Y-108264950D01*
X111666835Y-108437300D01*
X111804181Y-108654660D01*
X111868663Y-108780561D01*
X111973425Y-109022976D01*
X112047044Y-109252975D01*
X112094086Y-109489551D01*
X112119115Y-109751696D01*
X112123039Y-109838868D01*
X112136218Y-110210687D01*
X112062791Y-110268445D01*
X111968550Y-110321913D01*
X111831289Y-110371213D01*
X111660773Y-110413639D01*
X111466768Y-110446483D01*
X111384980Y-110456310D01*
X111255745Y-110469650D01*
X111163673Y-110477134D01*
X111093440Y-110478750D01*
X111029727Y-110474483D01*
X110957213Y-110464320D01*
X110906037Y-110455878D01*
X110811843Y-110439319D01*
X110752675Y-110420530D01*
X110720404Y-110388252D01*
X110706901Y-110331223D01*
X110704036Y-110238183D01*
X110704054Y-110176078D01*
X110692934Y-109982911D01*
X110659890Y-109745603D01*
X110625062Y-109560524D01*
X110563418Y-109244668D01*
X110516617Y-108971787D01*
X110484969Y-108743976D01*
X110468782Y-108563329D01*
X110466579Y-108488882D01*
X110469004Y-108396800D01*
X110481903Y-108336606D01*
X110513377Y-108287434D01*
X110565436Y-108234249D01*
X110720418Y-108114716D01*
X110880320Y-108046428D01*
X111042662Y-108028348D01*
X111204964Y-108059434D01*
G37*
G36*
X82792462Y-128412023D02*
G01*
X82927754Y-128364031D01*
X83312206Y-128241048D01*
X83701670Y-128135689D01*
X84103262Y-128046800D01*
X84524096Y-127973229D01*
X84604272Y-127962578D01*
X86654792Y-127962578D01*
X86658942Y-128000061D01*
X86668110Y-127995582D01*
X86671597Y-127941525D01*
X86668110Y-127929574D01*
X86658473Y-127926257D01*
X86654792Y-127962578D01*
X84604272Y-127962578D01*
X84971288Y-127913822D01*
X85451953Y-127867426D01*
X85609847Y-127856964D01*
X86571413Y-127856964D01*
X86591506Y-127882600D01*
X86597817Y-127883368D01*
X86623453Y-127863275D01*
X86624220Y-127856964D01*
X86604128Y-127831328D01*
X86597817Y-127830561D01*
X86572181Y-127850653D01*
X86571413Y-127856964D01*
X85609847Y-127856964D01*
X85973207Y-127832888D01*
X86298045Y-127817790D01*
X86456587Y-127812303D01*
X86569067Y-127810774D01*
X86642100Y-127813505D01*
X86682306Y-127820798D01*
X86696299Y-127832955D01*
X86696536Y-127835964D01*
X86697262Y-127947747D01*
X86711221Y-128010391D01*
X86738956Y-128026013D01*
X86744610Y-128024328D01*
X86783766Y-128030483D01*
X86800496Y-128064762D01*
X86837202Y-128109299D01*
X86909930Y-128127951D01*
X86976338Y-128123367D01*
X86999910Y-128141814D01*
X87011929Y-128171163D01*
X87046015Y-128214004D01*
X87124817Y-128239619D01*
X87128470Y-128240250D01*
X87200068Y-128261251D01*
X87231015Y-128290620D01*
X87231496Y-128294940D01*
X87246520Y-128328561D01*
X87257900Y-128332224D01*
X87280969Y-128310691D01*
X87284303Y-128290419D01*
X87300367Y-128260198D01*
X87317307Y-128260154D01*
X87342671Y-128291959D01*
X87343208Y-128312311D01*
X87353883Y-128346846D01*
X87369611Y-128351618D01*
X87413197Y-128351591D01*
X87490024Y-128352904D01*
X87553421Y-128354468D01*
X87638274Y-128358719D01*
X87681823Y-128368535D01*
X87695561Y-128388589D01*
X87693555Y-128411434D01*
X87692010Y-128433279D01*
X87702848Y-128448089D01*
X87734364Y-128457227D01*
X87794851Y-128462057D01*
X87892604Y-128463939D01*
X88014990Y-128464241D01*
X88152013Y-128464647D01*
X88244432Y-128466772D01*
X88300446Y-128471980D01*
X88328258Y-128481633D01*
X88336067Y-128497094D01*
X88332786Y-128517048D01*
X88329949Y-128534633D01*
X88336225Y-128547806D01*
X88358104Y-128557204D01*
X88402075Y-128563464D01*
X88474628Y-128567221D01*
X88582250Y-128569114D01*
X88731433Y-128569779D01*
X88870975Y-128569854D01*
X89054896Y-128570046D01*
X89192668Y-128571047D01*
X89290946Y-128573494D01*
X89356387Y-128578023D01*
X89395648Y-128585271D01*
X89415385Y-128595876D01*
X89422254Y-128610473D01*
X89422973Y-128622661D01*
X89426863Y-128647478D01*
X89445149Y-128663041D01*
X89487748Y-128671507D01*
X89564582Y-128675032D01*
X89667203Y-128675758D01*
X89852090Y-128679516D01*
X89986115Y-128690441D01*
X90070769Y-128708761D01*
X90107540Y-128734704D01*
X90109459Y-128743639D01*
X90115181Y-128753074D01*
X90134820Y-128761256D01*
X90172084Y-128768321D01*
X90230683Y-128774402D01*
X90314324Y-128779636D01*
X90426718Y-128784157D01*
X90571572Y-128788101D01*
X90752596Y-128791603D01*
X90973498Y-128794797D01*
X91237988Y-128797819D01*
X91549773Y-128800805D01*
X91719407Y-128802282D01*
X91947705Y-128804578D01*
X92128598Y-128807359D01*
X92267489Y-128810932D01*
X92369780Y-128815604D01*
X92440873Y-128821683D01*
X92486171Y-128829475D01*
X92511075Y-128839288D01*
X92519420Y-128847795D01*
X92556766Y-128873358D01*
X92636306Y-128885402D01*
X92691696Y-128886801D01*
X92860534Y-128888894D01*
X93024859Y-128894496D01*
X93176669Y-128902953D01*
X93307966Y-128913613D01*
X93410748Y-128925821D01*
X93477015Y-128938923D01*
X93498766Y-128952265D01*
X93498617Y-128952744D01*
X93512296Y-128973047D01*
X93572737Y-128989415D01*
X93672014Y-129001726D01*
X93716269Y-129003377D01*
X93810194Y-129004917D01*
X93950653Y-129006344D01*
X94134508Y-129007661D01*
X94358624Y-129008868D01*
X94619864Y-129009965D01*
X94915091Y-129010953D01*
X95241170Y-129011832D01*
X95594962Y-129012605D01*
X95973332Y-129013270D01*
X96373144Y-129013829D01*
X96791261Y-129014282D01*
X97224545Y-129014630D01*
X97669862Y-129014874D01*
X98124073Y-129015014D01*
X98584044Y-129015052D01*
X99046636Y-129014986D01*
X99508714Y-129014819D01*
X99967141Y-129014551D01*
X100418781Y-129014183D01*
X100860497Y-129013715D01*
X101289152Y-129013147D01*
X101701611Y-129012481D01*
X102094736Y-129011718D01*
X102465391Y-129010857D01*
X102810439Y-129009900D01*
X103126744Y-129008846D01*
X103411170Y-129007698D01*
X103660580Y-129006455D01*
X103871837Y-129005118D01*
X104041804Y-129003688D01*
X104167346Y-129002166D01*
X104245326Y-129000551D01*
X104268243Y-128999518D01*
X104364346Y-128986274D01*
X104413961Y-128966158D01*
X104420062Y-128954293D01*
X104445196Y-128938915D01*
X104515522Y-128924375D01*
X104623426Y-128911326D01*
X104761292Y-128900424D01*
X104921508Y-128892321D01*
X105096458Y-128887673D01*
X105205561Y-128886814D01*
X105308026Y-128884550D01*
X105367440Y-128876587D01*
X105393430Y-128860925D01*
X105396985Y-128847089D01*
X105402857Y-128835086D01*
X105424220Y-128825727D01*
X105466689Y-128818697D01*
X105535882Y-128813680D01*
X105637416Y-128810361D01*
X105776909Y-128808424D01*
X105959978Y-128807553D01*
X106103274Y-128807410D01*
X106433382Y-128806366D01*
X106735437Y-128803392D01*
X107006280Y-128798609D01*
X107242750Y-128792142D01*
X107441689Y-128784113D01*
X107599937Y-128774647D01*
X107714334Y-128763867D01*
X107781721Y-128751896D01*
X107799688Y-128741119D01*
X107824863Y-128721527D01*
X107895521Y-128704366D01*
X108004363Y-128690487D01*
X108144089Y-128680743D01*
X108307399Y-128675984D01*
X108360758Y-128675655D01*
X108464023Y-128674386D01*
X108525278Y-128668953D01*
X108555300Y-128656563D01*
X108564869Y-128634427D01*
X108565384Y-128622661D01*
X108567359Y-128605240D01*
X108577670Y-128592142D01*
X108602900Y-128582750D01*
X108649630Y-128576451D01*
X108724441Y-128572627D01*
X108833915Y-128570664D01*
X108984633Y-128569946D01*
X109130122Y-128569854D01*
X109317066Y-128569559D01*
X109457661Y-128568325D01*
X109464750Y-128568135D01*
X109733604Y-128568135D01*
X109737216Y-128569854D01*
X109761311Y-128551267D01*
X109766736Y-128543451D01*
X109773464Y-128518767D01*
X109769852Y-128517048D01*
X109745757Y-128535635D01*
X109740332Y-128543451D01*
X109733604Y-128568135D01*
X109464750Y-128568135D01*
X109558360Y-128565626D01*
X109625619Y-128560940D01*
X109665894Y-128553741D01*
X109685639Y-128543506D01*
X109691310Y-128529710D01*
X109691193Y-128524285D01*
X109690598Y-128503846D01*
X109832744Y-128503846D01*
X109845946Y-128517048D01*
X109859147Y-128503846D01*
X109845946Y-128490644D01*
X109832744Y-128503846D01*
X109690598Y-128503846D01*
X109690538Y-128501767D01*
X109698793Y-128486700D01*
X109724813Y-128477410D01*
X109777453Y-128472221D01*
X109865569Y-128469458D01*
X109991164Y-128467541D01*
X110104131Y-128465053D01*
X110174330Y-128459831D01*
X110211797Y-128449508D01*
X110214179Y-128446639D01*
X110290402Y-128446639D01*
X110294026Y-128462335D01*
X110308004Y-128464241D01*
X110329737Y-128454580D01*
X110325606Y-128446639D01*
X110294271Y-128443479D01*
X110290402Y-128446639D01*
X110214179Y-128446639D01*
X110226570Y-128431712D01*
X110228794Y-128411434D01*
X110231535Y-128398233D01*
X110360810Y-128398233D01*
X110374012Y-128411434D01*
X110387214Y-128398233D01*
X110374012Y-128385031D01*
X110360810Y-128398233D01*
X110231535Y-128398233D01*
X110235049Y-128381311D01*
X110261986Y-128364961D01*
X110321862Y-128357935D01*
X110380613Y-128356315D01*
X110464779Y-128352955D01*
X110552638Y-128346192D01*
X110634384Y-128337383D01*
X110700215Y-128327889D01*
X110740325Y-128319067D01*
X110744911Y-128312276D01*
X110719456Y-128309349D01*
X110668595Y-128299445D01*
X110667769Y-128280863D01*
X110716353Y-128259837D01*
X110724620Y-128257659D01*
X110785838Y-128247640D01*
X110879492Y-128238054D01*
X110985230Y-128230776D01*
X111042254Y-128228404D01*
X111083218Y-128218411D01*
X111088029Y-128202032D01*
X111090681Y-128167773D01*
X111137405Y-128140383D01*
X111219503Y-128124775D01*
X111225675Y-128124298D01*
X111274319Y-128095436D01*
X111309154Y-128019606D01*
X111316395Y-127975779D01*
X111416943Y-127975779D01*
X111430145Y-127988981D01*
X111443347Y-127975779D01*
X111430145Y-127962578D01*
X111416943Y-127975779D01*
X111316395Y-127975779D01*
X111328721Y-127901182D01*
X111328903Y-127896569D01*
X111443347Y-127896569D01*
X111456548Y-127909771D01*
X111469750Y-127896569D01*
X111456548Y-127883368D01*
X111443347Y-127896569D01*
X111328903Y-127896569D01*
X111332559Y-127804158D01*
X111333561Y-127777754D01*
X111364137Y-127777754D01*
X111369993Y-127843890D01*
X111384622Y-127880675D01*
X111390540Y-127883368D01*
X111407074Y-127859944D01*
X111416270Y-127801429D01*
X111416943Y-127777754D01*
X111411088Y-127711619D01*
X111396459Y-127674834D01*
X111390540Y-127672141D01*
X111374006Y-127695565D01*
X111364810Y-127754080D01*
X111364137Y-127777754D01*
X111333561Y-127777754D01*
X111335842Y-127717634D01*
X111344084Y-127657552D01*
X111355130Y-127637181D01*
X111397134Y-127650048D01*
X111421618Y-127659069D01*
X111453015Y-127662520D01*
X111453325Y-127628633D01*
X111451349Y-127620680D01*
X111426393Y-127580061D01*
X111386000Y-127581170D01*
X111323997Y-127582160D01*
X111284238Y-127550339D01*
X111280272Y-127498855D01*
X111286411Y-127484545D01*
X111299291Y-127445529D01*
X111274289Y-127434547D01*
X111271096Y-127434511D01*
X111242192Y-127423158D01*
X111243612Y-127410875D01*
X111235743Y-127384519D01*
X111196599Y-127360631D01*
X111146941Y-127350684D01*
X111136298Y-127351562D01*
X111106644Y-127333556D01*
X111092564Y-127302919D01*
X111082088Y-127278698D01*
X111059243Y-127263169D01*
X111013988Y-127254428D01*
X110936287Y-127250570D01*
X110816101Y-127249688D01*
X110812139Y-127249688D01*
X110691305Y-127248976D01*
X110613756Y-127245582D01*
X110569977Y-127237621D01*
X110550453Y-127223208D01*
X110545669Y-127200457D01*
X110545634Y-127196881D01*
X110543421Y-127183680D01*
X110624844Y-127183680D01*
X110638045Y-127196881D01*
X110651247Y-127183680D01*
X110638045Y-127170478D01*
X110624844Y-127183680D01*
X110543421Y-127183680D01*
X110541224Y-127170571D01*
X110520913Y-127154802D01*
X110474078Y-127146920D01*
X110390099Y-127144269D01*
X110334407Y-127144075D01*
X110229165Y-127142972D01*
X110166091Y-127137894D01*
X110134562Y-127126186D01*
X110123958Y-127105191D01*
X110123180Y-127091268D01*
X110119004Y-127065592D01*
X110099591Y-127049908D01*
X110054616Y-127041788D01*
X109973754Y-127038801D01*
X109898752Y-127038461D01*
X109789942Y-127037677D01*
X109723471Y-127033484D01*
X109688877Y-127023124D01*
X109675696Y-127003835D01*
X109673521Y-126979054D01*
X109670163Y-126939127D01*
X109656576Y-126948177D01*
X109645806Y-126965852D01*
X109609804Y-127005386D01*
X109579411Y-127006158D01*
X109568711Y-126974126D01*
X109567386Y-126972453D01*
X109595114Y-126972453D01*
X109608316Y-126985655D01*
X109621517Y-126972453D01*
X109608316Y-126959251D01*
X109595114Y-126972453D01*
X109567386Y-126972453D01*
X109544390Y-126943424D01*
X109482900Y-126927920D01*
X109459278Y-126921624D01*
X109467577Y-126908794D01*
X109512126Y-126887481D01*
X109597255Y-126855738D01*
X109727292Y-126811617D01*
X109779937Y-126794291D01*
X110128481Y-126685577D01*
X110439798Y-126601754D01*
X110723126Y-126542622D01*
X110987701Y-126507980D01*
X111242763Y-126497628D01*
X111497548Y-126511365D01*
X111761294Y-126548992D01*
X112043239Y-126610308D01*
X112352620Y-126695112D01*
X112486278Y-126735614D01*
X112736465Y-126809705D01*
X112953432Y-126865596D01*
X113152328Y-126906276D01*
X113348301Y-126934735D01*
X113556499Y-126953964D01*
X113610847Y-126957593D01*
X114124258Y-126965833D01*
X114619460Y-126925331D01*
X115095522Y-126836321D01*
X115551518Y-126699040D01*
X115986517Y-126513723D01*
X116399590Y-126280605D01*
X116473957Y-126231973D01*
X116760275Y-126030311D01*
X116998959Y-125838837D01*
X117193254Y-125653592D01*
X117346401Y-125470620D01*
X117461646Y-125285962D01*
X117542230Y-125095659D01*
X117591398Y-124895755D01*
X117596671Y-124861882D01*
X117613272Y-124576718D01*
X117580245Y-124306272D01*
X117499306Y-124052910D01*
X117372169Y-123819000D01*
X117200548Y-123606906D01*
X116986159Y-123418996D01*
X116730716Y-123257634D01*
X116435933Y-123125189D01*
X116305694Y-123080299D01*
X116049758Y-123008365D01*
X115801400Y-122959398D01*
X115542385Y-122930765D01*
X115254479Y-122919836D01*
X115191958Y-122919542D01*
X115002345Y-122921644D01*
X114815502Y-122928481D01*
X114625542Y-122940846D01*
X114426577Y-122959536D01*
X114212719Y-122985346D01*
X113978082Y-123019070D01*
X113716778Y-123061504D01*
X113422919Y-123113443D01*
X113090619Y-123175682D01*
X112713990Y-123249016D01*
X112631496Y-123265348D01*
X112406483Y-123309284D01*
X112175158Y-123353163D01*
X111948919Y-123394915D01*
X111739159Y-123432471D01*
X111557275Y-123463760D01*
X111414662Y-123486713D01*
X111403742Y-123488359D01*
X111078652Y-123531657D01*
X110755888Y-123564531D01*
X110441315Y-123586991D01*
X110140800Y-123599052D01*
X109860207Y-123600725D01*
X109605402Y-123592022D01*
X109382250Y-123572955D01*
X109196617Y-123543537D01*
X109054368Y-123503780D01*
X109007731Y-123483372D01*
X108942446Y-123423481D01*
X108883714Y-123318095D01*
X108832763Y-123174253D01*
X108790822Y-122998998D01*
X108759120Y-122799372D01*
X108738887Y-122582414D01*
X108731352Y-122355168D01*
X108737744Y-122124675D01*
X108748001Y-121995426D01*
X108761155Y-121882978D01*
X108781895Y-121729951D01*
X108808522Y-121547752D01*
X108839338Y-121347785D01*
X108872643Y-121141458D01*
X108895511Y-121005301D01*
X108947304Y-120694102D01*
X108988255Y-120428461D01*
X109018935Y-120202375D01*
X109039913Y-120009843D01*
X109051759Y-119844863D01*
X109055044Y-119701435D01*
X109050338Y-119573556D01*
X109040828Y-119475392D01*
X109015967Y-119315389D01*
X108981124Y-119177684D01*
X108930869Y-119052282D01*
X108859769Y-118929191D01*
X108762393Y-118798416D01*
X108633307Y-118649966D01*
X108534856Y-118544549D01*
X108437150Y-118437269D01*
X108345420Y-118328548D01*
X108270428Y-118231617D01*
X108225367Y-118164047D01*
X108146764Y-118026419D01*
X108323070Y-117902427D01*
X108550199Y-117716130D01*
X108741855Y-117498810D01*
X108813091Y-117397802D01*
X108920671Y-117203230D01*
X108990956Y-116995264D01*
X109028271Y-116759969D01*
X109033343Y-116688339D01*
X109034869Y-116492788D01*
X109013859Y-116315879D01*
X108966501Y-116140481D01*
X108888984Y-115949465D01*
X108851293Y-115870170D01*
X108794743Y-115762584D01*
X108735214Y-115669378D01*
X108662502Y-115577145D01*
X108566405Y-115472476D01*
X108488382Y-115393231D01*
X108385967Y-115294525D01*
X108286148Y-115207665D01*
X108183462Y-115130197D01*
X108072447Y-115059668D01*
X107947639Y-114993624D01*
X107803575Y-114929614D01*
X107634794Y-114865183D01*
X107435830Y-114797879D01*
X107201222Y-114725248D01*
X106925507Y-114644837D01*
X106647104Y-114566408D01*
X106289116Y-114464963D01*
X105978547Y-114373069D01*
X105711208Y-114289083D01*
X105482910Y-114211364D01*
X105289465Y-114138269D01*
X105126686Y-114068157D01*
X104990382Y-113999385D01*
X104876367Y-113930312D01*
X104780450Y-113859295D01*
X104729365Y-113814622D01*
X104615277Y-113691755D01*
X104543960Y-113568711D01*
X104508046Y-113428747D01*
X104499852Y-113293146D01*
X104504024Y-113175835D01*
X104521646Y-113083200D01*
X104559086Y-112987588D01*
X104580295Y-112943798D01*
X104657207Y-112816530D01*
X104758398Y-112697309D01*
X104887286Y-112584314D01*
X105047288Y-112475722D01*
X105241821Y-112369710D01*
X105474301Y-112264457D01*
X105748145Y-112158139D01*
X106066772Y-112048934D01*
X106433597Y-111935020D01*
X106519126Y-111909727D01*
X106692588Y-111858523D01*
X106858690Y-111808931D01*
X107007271Y-111764028D01*
X107128167Y-111726891D01*
X107211214Y-111700597D01*
X107225610Y-111695830D01*
X107377624Y-111644630D01*
X107512585Y-111713020D01*
X107586149Y-111759877D01*
X107686287Y-111837342D01*
X107803416Y-111937536D01*
X107927956Y-112052578D01*
X107942452Y-112066532D01*
X108061926Y-112177907D01*
X108177202Y-112277898D01*
X108278299Y-112358276D01*
X108355238Y-112410811D01*
X108369247Y-112418487D01*
X108547504Y-112488410D01*
X108751092Y-112528428D01*
X108988384Y-112539894D01*
X109100158Y-112536518D01*
X109301017Y-112516779D01*
X109491537Y-112475913D01*
X109679238Y-112410390D01*
X109871638Y-112316682D01*
X110076257Y-112191259D01*
X110300615Y-112030592D01*
X110483273Y-111887332D01*
X110777356Y-111649878D01*
X111106175Y-111569898D01*
X111299916Y-111520597D01*
X111491524Y-111466958D01*
X111689566Y-111406144D01*
X111902612Y-111335316D01*
X112139230Y-111251635D01*
X112407986Y-111152264D01*
X112684303Y-111047116D01*
X112860682Y-110979261D01*
X113022955Y-110916713D01*
X113163934Y-110862251D01*
X113276430Y-110818657D01*
X113353254Y-110788712D01*
X113385892Y-110775754D01*
X113433164Y-110731390D01*
X113481129Y-110641153D01*
X113527275Y-110511880D01*
X113569092Y-110350409D01*
X113598869Y-110195892D01*
X113613876Y-110086842D01*
X113625163Y-109959124D01*
X113633060Y-109805188D01*
X113637897Y-109617486D01*
X113640004Y-109388467D01*
X113640132Y-109251763D01*
X113639285Y-108561219D01*
X114039705Y-108401700D01*
X114277334Y-108307805D01*
X114509903Y-108217640D01*
X114741061Y-108130006D01*
X114974460Y-108043701D01*
X115213751Y-107957527D01*
X115462584Y-107870283D01*
X115724611Y-107780770D01*
X116003482Y-107687788D01*
X116302849Y-107590136D01*
X116626362Y-107486615D01*
X116977672Y-107376025D01*
X117360430Y-107257166D01*
X117778287Y-107128838D01*
X118234893Y-106989841D01*
X118733901Y-106838975D01*
X119278960Y-106675040D01*
X119443555Y-106625666D01*
X120017757Y-106452624D01*
X120567393Y-106285225D01*
X121090316Y-106124172D01*
X121584379Y-105970164D01*
X122047434Y-105823905D01*
X122477337Y-105686095D01*
X122871939Y-105557436D01*
X123229094Y-105438630D01*
X123546654Y-105330377D01*
X123822474Y-105233381D01*
X124054407Y-105148341D01*
X124240305Y-105075961D01*
X124378022Y-105016940D01*
X124404094Y-105004634D01*
X124691213Y-104854319D01*
X124928373Y-104704448D01*
X125118330Y-104552298D01*
X125263836Y-104395144D01*
X125367646Y-104230261D01*
X125432513Y-104054924D01*
X125450075Y-103969747D01*
X125454477Y-103827095D01*
X125428500Y-103679568D01*
X125377142Y-103547261D01*
X125326068Y-103471344D01*
X125219474Y-103380704D01*
X125064862Y-103294255D01*
X124866947Y-103213398D01*
X124630445Y-103139531D01*
X124360070Y-103074054D01*
X124060538Y-103018368D01*
X123736563Y-102973871D01*
X123602079Y-102959606D01*
X123381391Y-102941561D01*
X123115190Y-102925576D01*
X122810734Y-102911742D01*
X122475281Y-102900153D01*
X122116086Y-102890899D01*
X121740409Y-102884073D01*
X121355506Y-102879766D01*
X120968635Y-102878071D01*
X120587053Y-102879078D01*
X120218017Y-102882881D01*
X119868785Y-102889570D01*
X119546614Y-102899238D01*
X119377546Y-102906131D01*
X118435720Y-102957913D01*
X117528323Y-103026046D01*
X116661236Y-103110041D01*
X116037526Y-103183585D01*
X115836526Y-103209211D01*
X115681206Y-103229631D01*
X115564922Y-103246742D01*
X115481027Y-103262442D01*
X115422874Y-103278627D01*
X115383819Y-103297197D01*
X115357215Y-103320047D01*
X115336416Y-103349075D01*
X115314776Y-103386178D01*
X115312153Y-103390674D01*
X115267748Y-103472590D01*
X115230199Y-103558220D01*
X115196934Y-103656640D01*
X115165381Y-103776925D01*
X115132969Y-103928151D01*
X115097125Y-104119393D01*
X115082921Y-104199584D01*
X115054559Y-104355444D01*
X115026600Y-104498368D01*
X115001212Y-104618045D01*
X114980562Y-104704165D01*
X114968929Y-104741922D01*
X114953927Y-104770759D01*
X114930114Y-104797146D01*
X114890751Y-104824562D01*
X114829098Y-104856485D01*
X114738416Y-104896394D01*
X114611966Y-104947766D01*
X114443008Y-105014079D01*
X114437182Y-105016348D01*
X114273557Y-105080891D01*
X114116144Y-105144526D01*
X113975611Y-105202824D01*
X113862625Y-105251357D01*
X113787856Y-105285696D01*
X113785661Y-105286787D01*
X113632860Y-105363081D01*
X113594001Y-105270080D01*
X113576459Y-105206928D01*
X113558110Y-105105515D01*
X113541228Y-104980293D01*
X113529012Y-104857243D01*
X113505327Y-104647727D01*
X113471947Y-104486932D01*
X113427784Y-104371481D01*
X113371749Y-104297994D01*
X113342263Y-104277658D01*
X113296580Y-104264337D01*
X113216689Y-104256840D01*
X113096928Y-104254949D01*
X112931635Y-104258447D01*
X112884322Y-104260073D01*
X112578764Y-104280586D01*
X112311344Y-104320614D01*
X112069852Y-104383739D01*
X111842080Y-104473543D01*
X111615821Y-104593608D01*
X111498597Y-104666658D01*
X111366059Y-104758311D01*
X111240562Y-104857655D01*
X111117611Y-104969781D01*
X110992709Y-105099781D01*
X110861362Y-105252746D01*
X110719074Y-105433767D01*
X110561348Y-105647934D01*
X110383689Y-105900340D01*
X110293854Y-106030954D01*
X110192763Y-106177978D01*
X110116108Y-106286630D01*
X110059036Y-106362482D01*
X110016696Y-106411101D01*
X109984236Y-106438059D01*
X109956803Y-106448923D01*
X109929546Y-106449265D01*
X109929436Y-106449253D01*
X109814193Y-106449336D01*
X109669909Y-106467252D01*
X109515723Y-106499211D01*
X109370773Y-106541425D01*
X109278274Y-106578170D01*
X109215304Y-106610474D01*
X109153041Y-106649866D01*
X109084978Y-106701931D01*
X109004605Y-106772253D01*
X108905415Y-106866415D01*
X108780898Y-106990001D01*
X108684199Y-107087839D01*
X108533345Y-107239556D01*
X108412050Y-107357402D01*
X108314353Y-107446582D01*
X108234296Y-107512302D01*
X108165919Y-107559768D01*
X108106046Y-107592841D01*
X108055648Y-107618176D01*
X108015343Y-107637011D01*
X107978073Y-107647752D01*
X107936781Y-107648806D01*
X107884409Y-107638578D01*
X107813899Y-107615474D01*
X107718193Y-107577901D01*
X107590235Y-107524265D01*
X107422966Y-107452971D01*
X107350831Y-107422279D01*
X107074521Y-107302650D01*
X106840693Y-107195614D01*
X106641889Y-107096606D01*
X106470650Y-107001063D01*
X106319515Y-106904422D01*
X106181027Y-106802119D01*
X106047726Y-106689591D01*
X105912152Y-106562275D01*
X105859043Y-106509626D01*
X105750969Y-106398429D01*
X105647082Y-106285021D01*
X105543011Y-106163752D01*
X105434385Y-106028970D01*
X105316832Y-105875026D01*
X105185980Y-105696268D01*
X105037458Y-105487045D01*
X104866893Y-105241707D01*
X104776624Y-105110499D01*
X104568962Y-104810990D01*
X104384563Y-104552246D01*
X104219648Y-104329676D01*
X104070435Y-104138687D01*
X103933144Y-103974689D01*
X103803995Y-103833090D01*
X103679209Y-103709298D01*
X103555004Y-103598721D01*
X103484441Y-103540976D01*
X103313487Y-103413136D01*
X103153193Y-103313202D01*
X102990100Y-103235447D01*
X102810745Y-103174141D01*
X102601670Y-103123557D01*
X102426611Y-103090805D01*
X102175461Y-103043129D01*
X101969056Y-102992985D01*
X101799335Y-102937687D01*
X101658236Y-102874545D01*
X101537698Y-102800873D01*
X101520972Y-102788806D01*
X101441794Y-102728589D01*
X101379827Y-102677882D01*
X101347270Y-102646720D01*
X101345997Y-102644898D01*
X101346345Y-102598621D01*
X101380079Y-102519860D01*
X101444001Y-102414217D01*
X101534915Y-102287292D01*
X101591037Y-102215679D01*
X101719316Y-102066863D01*
X101888105Y-101888843D01*
X102097820Y-101681220D01*
X102348877Y-101443590D01*
X102641690Y-101175554D01*
X102976677Y-100876709D01*
X102981081Y-100872822D01*
X103266399Y-100617330D01*
X103537434Y-100367277D01*
X103789993Y-100126837D01*
X104019882Y-99900186D01*
X104222907Y-99691497D01*
X104394875Y-99504945D01*
X104531593Y-99344706D01*
X104585719Y-99275364D01*
X104756098Y-99028438D01*
X104890117Y-98792015D01*
X104985637Y-98570869D01*
X105040519Y-98369773D01*
X105053742Y-98230534D01*
X105053742Y-98106204D01*
X105548804Y-98119470D01*
X105884645Y-98121619D01*
X106186852Y-98107676D01*
X106472623Y-98075871D01*
X106759151Y-98024431D01*
X106987549Y-97971228D01*
X107430147Y-97835110D01*
X107845719Y-97658247D01*
X108231622Y-97442966D01*
X108585213Y-97191591D01*
X108903850Y-96906450D01*
X109184887Y-96589869D01*
X109425684Y-96244174D01*
X109623596Y-95871691D01*
X109756693Y-95534073D01*
X109852478Y-95186413D01*
X109921017Y-94802488D01*
X109962282Y-94391289D01*
X109976243Y-93961803D01*
X109962870Y-93523021D01*
X109922134Y-93083929D01*
X109854006Y-92653518D01*
X109767308Y-92273676D01*
X109624488Y-91818368D01*
X109445929Y-91389327D01*
X109234097Y-90989421D01*
X108991455Y-90621514D01*
X108720471Y-90288474D01*
X108423608Y-89993168D01*
X108103332Y-89738462D01*
X107762108Y-89527222D01*
X107402401Y-89362316D01*
X107205613Y-89294835D01*
X106863659Y-89212614D01*
X106494635Y-89163006D01*
X106113484Y-89146638D01*
X105735151Y-89164136D01*
X105374581Y-89216124D01*
X105366188Y-89217817D01*
X105326350Y-89222544D01*
X105301768Y-89208940D01*
X105284408Y-89165903D01*
X105266236Y-89082329D01*
X105265518Y-89078692D01*
X105162005Y-88670276D01*
X105011435Y-88249487D01*
X104816669Y-87821175D01*
X104580570Y-87390191D01*
X104305997Y-86961383D01*
X103995814Y-86539602D01*
X103652882Y-86129697D01*
X103312228Y-85768550D01*
X103151645Y-85610444D01*
X103012108Y-85480575D01*
X102881905Y-85369991D01*
X102749328Y-85269740D01*
X102602664Y-85170872D01*
X102430205Y-85064434D01*
X102261331Y-84965230D01*
X102025125Y-84819760D01*
X101835731Y-84682318D01*
X101688865Y-84547600D01*
X101580244Y-84410302D01*
X101505584Y-84265122D01*
X101460601Y-84106753D01*
X101442082Y-83950882D01*
X101440447Y-83786922D01*
X101458388Y-83640255D01*
X101499824Y-83504386D01*
X101568671Y-83372823D01*
X101668849Y-83239071D01*
X101804274Y-83096639D01*
X101978865Y-82939032D01*
X102126927Y-82815839D01*
X102224267Y-82731955D01*
X102313890Y-82646299D01*
X102381779Y-82572594D01*
X102401594Y-82546855D01*
X102441136Y-82477303D01*
X102479238Y-82389928D01*
X102511012Y-82299415D01*
X102531569Y-82220447D01*
X102536020Y-82167711D01*
X102531541Y-82156523D01*
X102495217Y-82149924D01*
X102418216Y-82153799D01*
X102311230Y-82166392D01*
X102184956Y-82185951D01*
X102050085Y-82210721D01*
X101917313Y-82238949D01*
X101797332Y-82268880D01*
X101735391Y-82287099D01*
X101640199Y-82320737D01*
X101506748Y-82372640D01*
X101344668Y-82438815D01*
X101163585Y-82515269D01*
X100973128Y-82598008D01*
X100806795Y-82672225D01*
X100612508Y-82758696D01*
X100415961Y-82843681D01*
X100227549Y-82922867D01*
X100057671Y-82991937D01*
X99916724Y-83046578D01*
X99829872Y-83077642D01*
X99708298Y-83115340D01*
X99572612Y-83152685D01*
X99432752Y-83187512D01*
X99298658Y-83217653D01*
X99180269Y-83240942D01*
X99087523Y-83255211D01*
X99030359Y-83258294D01*
X99017900Y-83254664D01*
X99012594Y-83216420D01*
X99025999Y-83138439D01*
X99055586Y-83029328D01*
X99098826Y-82897695D01*
X99153190Y-82752150D01*
X99196678Y-82646203D01*
X99254334Y-82508155D01*
X99293819Y-82403206D01*
X99319040Y-82316484D01*
X99333906Y-82233120D01*
X99342323Y-82138242D01*
X99345413Y-82080197D01*
X99356922Y-81835967D01*
X125753950Y-81835967D01*
X125753950Y-133190436D01*
X75746050Y-133190436D01*
X75746050Y-81835967D01*
X87422921Y-81836085D01*
X99099792Y-81836204D01*
X98928534Y-81987904D01*
X98828236Y-82077560D01*
X98709997Y-82184456D01*
X98594523Y-82289845D01*
X98558887Y-82322633D01*
X98317921Y-82537063D01*
X98096774Y-82715889D01*
X97884772Y-82866619D01*
X97671240Y-82996761D01*
X97445504Y-83113823D01*
X97409979Y-83130696D01*
X97246041Y-83204567D01*
X97082818Y-83270909D01*
X96913881Y-83331429D01*
X96732800Y-83387837D01*
X96533145Y-83441839D01*
X96308487Y-83495145D01*
X96052396Y-83549463D01*
X95758443Y-83606502D01*
X95420198Y-83667968D01*
X95324116Y-83684902D01*
X95109962Y-83723168D01*
X94895325Y-83762837D01*
X94690705Y-83801872D01*
X94506605Y-83838236D01*
X94353524Y-83869891D01*
X94241966Y-83894802D01*
X94241580Y-83894894D01*
X93863466Y-83995773D01*
X93509239Y-84113325D01*
X93172989Y-84251147D01*
X92848804Y-84412837D01*
X92530772Y-84601993D01*
X92212984Y-84822212D01*
X91889527Y-85077093D01*
X91554492Y-85370232D01*
X91201966Y-85705229D01*
X91098153Y-85808186D01*
X90614074Y-86312803D01*
X90180951Y-86807704D01*
X89798058Y-87294012D01*
X89464668Y-87772851D01*
X89180056Y-88245342D01*
X88943496Y-88712608D01*
X88754261Y-89175772D01*
X88611624Y-89635957D01*
X88604632Y-89663105D01*
X88573091Y-89787740D01*
X88545033Y-89900005D01*
X88523881Y-89986126D01*
X88514121Y-90027431D01*
X88497934Y-90099872D01*
X88274406Y-89929320D01*
X88059505Y-89773628D01*
X87856654Y-89646323D01*
X87653956Y-89542287D01*
X87439512Y-89456401D01*
X87201426Y-89383547D01*
X86927798Y-89318607D01*
X86789596Y-89290542D01*
X86667141Y-89267522D01*
X86559966Y-89250020D01*
X86457424Y-89237258D01*
X86348870Y-89228459D01*
X86223660Y-89222845D01*
X86071148Y-89219639D01*
X85880689Y-89218063D01*
X85792515Y-89217718D01*
X85583064Y-89217565D01*
X85416507Y-89219017D01*
X85282942Y-89222695D01*
X85172467Y-89229221D01*
X85075178Y-89239218D01*
X84981173Y-89253307D01*
X84880548Y-89272111D01*
X84859586Y-89276324D01*
X84386934Y-89397747D01*
X83940141Y-89564409D01*
X83520597Y-89774752D01*
X83129690Y-90027223D01*
X82768806Y-90320264D01*
X82439336Y-90652319D01*
X82142666Y-91021834D01*
X81880185Y-91427253D01*
X81653282Y-91867019D01*
X81463344Y-92339576D01*
X81311759Y-92843370D01*
X81199917Y-93376843D01*
X81199703Y-93378124D01*
X81158598Y-93695332D01*
X81133833Y-94045329D01*
X81125405Y-94411642D01*
X81133312Y-94777796D01*
X81157551Y-95127320D01*
X81198120Y-95443740D01*
X81200032Y-95455178D01*
X81298323Y-95883828D01*
X81443891Y-96291440D01*
X81634949Y-96676502D01*
X81869710Y-97037502D01*
X82146386Y-97372926D01*
X82463190Y-97681262D01*
X82818334Y-97960997D01*
X83210032Y-98210620D01*
X83636495Y-98428616D01*
X84095938Y-98613474D01*
X84586572Y-98763681D01*
X85106610Y-98877724D01*
X85277650Y-98906135D01*
X85480931Y-98930653D01*
X85722500Y-98948905D01*
X85988185Y-98960644D01*
X86263810Y-98965626D01*
X86535202Y-98963605D01*
X86788188Y-98954334D01*
X87008594Y-98937568D01*
X87020270Y-98936340D01*
X87585395Y-98857147D01*
X88129830Y-98741326D01*
X88671078Y-98584785D01*
X88974116Y-98479715D01*
X89097982Y-98431898D01*
X89186365Y-98389699D01*
X89254465Y-98343905D01*
X89317481Y-98285303D01*
X89346920Y-98253740D01*
X89468892Y-98119594D01*
X89482669Y-98869100D01*
X89490855Y-99185502D01*
X89503670Y-99455887D01*
X89522344Y-99686935D01*
X89548105Y-99885327D01*
X89582182Y-100057743D01*
X89625803Y-100210863D01*
X89680198Y-100351368D01*
X89746596Y-100485937D01*
X89795862Y-100571876D01*
X89907993Y-100742274D01*
X90035538Y-100903240D01*
X90182938Y-101058229D01*
X90354636Y-101210699D01*
X90555073Y-101364107D01*
X90788689Y-101521911D01*
X91059927Y-101687567D01*
X91373228Y-101864532D01*
X91640890Y-102008027D01*
X91791102Y-102087235D01*
X91924929Y-102158084D01*
X92035532Y-102216930D01*
X92116071Y-102260128D01*
X92159706Y-102284036D01*
X92165456Y-102287507D01*
X92157231Y-102312981D01*
X92116391Y-102366657D01*
X92049575Y-102441420D01*
X91963425Y-102530154D01*
X91864581Y-102625742D01*
X91766349Y-102715202D01*
X91671623Y-102794466D01*
X91545257Y-102894025D01*
X91399387Y-103004645D01*
X91246152Y-103117090D01*
X91125987Y-103202454D01*
X90827625Y-103413773D01*
X90570594Y-103602970D01*
X90350509Y-103774353D01*
X90162986Y-103932229D01*
X90003639Y-104080908D01*
X89868083Y-104224696D01*
X89751934Y-104367902D01*
X89650807Y-104514834D01*
X89560315Y-104669800D01*
X89488320Y-104811400D01*
X89382409Y-105060863D01*
X89302802Y-105317781D01*
X89247561Y-105592240D01*
X89214745Y-105894323D01*
X89202415Y-106234116D01*
X89202220Y-106298648D01*
X89206159Y-106533517D01*
X89218294Y-106757004D01*
X89240091Y-106976179D01*
X89273018Y-107198114D01*
X89318540Y-107429882D01*
X89378126Y-107678554D01*
X89453241Y-107951201D01*
X89545353Y-108254896D01*
X89655927Y-108596709D01*
X89716388Y-108777569D01*
X89973519Y-109540274D01*
X89788361Y-109523066D01*
X89654646Y-109507324D01*
X89512131Y-109483439D01*
X89354539Y-109449783D01*
X89175595Y-109404728D01*
X88969024Y-109346644D01*
X88728549Y-109273905D01*
X88447895Y-109184882D01*
X88300831Y-109137118D01*
X88093994Y-109070367D01*
X87892324Y-109006816D01*
X87704254Y-108949010D01*
X87538219Y-108899491D01*
X87402650Y-108860803D01*
X87305982Y-108835489D01*
X87284303Y-108830556D01*
X87118784Y-108803277D01*
X86937453Y-108786861D01*
X86749595Y-108780788D01*
X86564492Y-108784532D01*
X86391427Y-108797572D01*
X86239684Y-108819383D01*
X86118545Y-108849444D01*
X86037294Y-108887229D01*
X86020359Y-108901792D01*
X85969008Y-108976874D01*
X85911488Y-109094479D01*
X85850981Y-109245161D01*
X85790668Y-109419470D01*
X85733732Y-109607961D01*
X85683354Y-109801183D01*
X85642716Y-109989690D01*
X85630041Y-110060808D01*
X85606078Y-110258628D01*
X85592028Y-110493916D01*
X85587776Y-110752295D01*
X85593205Y-111019388D01*
X85608198Y-111280818D01*
X85632640Y-111522208D01*
X85642438Y-111592874D01*
X85753744Y-112173029D01*
X85913815Y-112758328D01*
X86119893Y-113342347D01*
X86369218Y-113918663D01*
X86659031Y-114480854D01*
X86986572Y-115022497D01*
X87320759Y-115499669D01*
X87602730Y-115837889D01*
X87925749Y-116159071D01*
X88278399Y-116452177D01*
X88393243Y-116536533D01*
X88585085Y-116675428D01*
X88738298Y-116791321D01*
X88851662Y-116883173D01*
X88923956Y-116949943D01*
X88953959Y-116990592D01*
X88942020Y-117004071D01*
X88879616Y-117000369D01*
X88776354Y-116988489D01*
X88643248Y-116970134D01*
X88491313Y-116947002D01*
X88331567Y-116920793D01*
X88175023Y-116893208D01*
X88032698Y-116865946D01*
X87989951Y-116857147D01*
X87692862Y-116783997D01*
X87391415Y-116690371D01*
X87107372Y-116583459D01*
X86948190Y-116513008D01*
X86658781Y-116353511D01*
X86373779Y-116154818D01*
X86105811Y-115927471D01*
X85867502Y-115682014D01*
X85700876Y-115471519D01*
X85585868Y-115292426D01*
X85467325Y-115078275D01*
X85353234Y-114845542D01*
X85251587Y-114610703D01*
X85170372Y-114390235D01*
X85158301Y-114352585D01*
X85120791Y-114230123D01*
X85088960Y-114118734D01*
X85062252Y-114012683D01*
X85040109Y-113906232D01*
X85021977Y-113793644D01*
X85007299Y-113669183D01*
X84995519Y-113527112D01*
X84986080Y-113361693D01*
X84978427Y-113167190D01*
X84972003Y-112937866D01*
X84966253Y-112667984D01*
X84960619Y-112351806D01*
X84959839Y-112305405D01*
X84951579Y-111880626D01*
X84941571Y-111502958D01*
X84929388Y-111166722D01*
X84914603Y-110866239D01*
X84896787Y-110595829D01*
X84875514Y-110349814D01*
X84850356Y-110122515D01*
X84820884Y-109908252D01*
X84786672Y-109701347D01*
X84748936Y-109504191D01*
X84635090Y-109040766D01*
X84490439Y-108620022D01*
X84314703Y-108241552D01*
X84107599Y-107904945D01*
X83868846Y-107609793D01*
X83598162Y-107355686D01*
X83295267Y-107142214D01*
X83026172Y-106998834D01*
X82753622Y-106885514D01*
X82480148Y-106800991D01*
X82194078Y-106742975D01*
X81883742Y-106709177D01*
X81537470Y-106697307D01*
X81488773Y-106697256D01*
X81029898Y-106717047D01*
X80582999Y-106775418D01*
X80141685Y-106874185D01*
X79699565Y-107015163D01*
X79250250Y-107200168D01*
X78787348Y-107431015D01*
X78659964Y-107501015D01*
X78442255Y-107625292D01*
X78264036Y-107733046D01*
X78116942Y-107830081D01*
X77992610Y-107922205D01*
X77882676Y-108015223D01*
X77785961Y-108107685D01*
X77648536Y-108258024D01*
X77497330Y-108444079D01*
X77340913Y-108653720D01*
X77187854Y-108874821D01*
X77046726Y-109095253D01*
X76926096Y-109302889D01*
X76881335Y-109387833D01*
X76786108Y-109580745D01*
X76714765Y-109738987D01*
X76663715Y-109872987D01*
X76629369Y-109993173D01*
X76608138Y-110109970D01*
X76597968Y-110210904D01*
X76593200Y-110323015D01*
X76600366Y-110404409D01*
X76622478Y-110476415D01*
X76641350Y-110518196D01*
X76732166Y-110645326D01*
X76870397Y-110749922D01*
X77013409Y-110816573D01*
X77126723Y-110844474D01*
X77274311Y-110860053D01*
X77439098Y-110863308D01*
X77604010Y-110854240D01*
X77751973Y-110832846D01*
X77817330Y-110816616D01*
X77981773Y-110760114D01*
X78128717Y-110692082D01*
X78265392Y-110606681D01*
X78399028Y-110498072D01*
X78536856Y-110360418D01*
X78686105Y-110187879D01*
X78844333Y-109987283D01*
X78950184Y-109852459D01*
X79059963Y-109718790D01*
X79163779Y-109597914D01*
X79251742Y-109501470D01*
X79290250Y-109462603D01*
X79509973Y-109277761D01*
X79764552Y-109107459D01*
X80038061Y-108960568D01*
X80314575Y-108845959D01*
X80495895Y-108791066D01*
X80782769Y-108745400D01*
X81071517Y-108750155D01*
X81355636Y-108803615D01*
X81628621Y-108904062D01*
X81883971Y-109049781D01*
X82085114Y-109210561D01*
X82218688Y-109345322D01*
X82339767Y-109492698D01*
X82451025Y-109658162D01*
X82555135Y-109847185D01*
X82654772Y-110065241D01*
X82752607Y-110317801D01*
X82851316Y-110610339D01*
X82953570Y-110948326D01*
X82981199Y-111044786D01*
X83029300Y-111218294D01*
X83070137Y-111376361D01*
X83104870Y-111526665D01*
X83134660Y-111676883D01*
X83160666Y-111834695D01*
X83184049Y-112007779D01*
X83205968Y-112203811D01*
X83227584Y-112430471D01*
X83250057Y-112695437D01*
X83271393Y-112965488D01*
X83307184Y-113386292D01*
X83345566Y-113755548D01*
X83386698Y-114074459D01*
X83430736Y-114344229D01*
X83477838Y-114566061D01*
X83483647Y-114589293D01*
X83508844Y-114694227D01*
X83540405Y-114834563D01*
X83574731Y-114993844D01*
X83608225Y-115155613D01*
X83616456Y-115196569D01*
X83673387Y-115462198D01*
X83731129Y-115684071D01*
X83793991Y-115871127D01*
X83866281Y-116032299D01*
X83952308Y-116176526D01*
X84056379Y-116312742D01*
X84182804Y-116449884D01*
X84254941Y-116520823D01*
X84349615Y-116608938D01*
X84447561Y-116693809D01*
X84554893Y-116779883D01*
X84677727Y-116871605D01*
X84822176Y-116973420D01*
X84994356Y-117089773D01*
X85200381Y-117225111D01*
X85409667Y-117360314D01*
X85902666Y-117666193D01*
X86366076Y-117931059D01*
X86802117Y-118156051D01*
X87213012Y-118342304D01*
X87600982Y-118490955D01*
X87653210Y-118508702D01*
X87759579Y-118544834D01*
X87845394Y-118575057D01*
X87899497Y-118595380D01*
X87912393Y-118601409D01*
X87895847Y-118619007D01*
X87844011Y-118659613D01*
X87765425Y-118716779D01*
X87688705Y-118770328D01*
X87397080Y-118980638D01*
X87153056Y-119179367D01*
X86953621Y-119369997D01*
X86795762Y-119556008D01*
X86676467Y-119740884D01*
X86592723Y-119928106D01*
X86547785Y-120089085D01*
X86528252Y-120235569D01*
X86520302Y-120428805D01*
X86523885Y-120664034D01*
X86538947Y-120936498D01*
X86559710Y-121183135D01*
X86576124Y-121382452D01*
X86583901Y-121563238D01*
X86581322Y-121731633D01*
X86566665Y-121893773D01*
X86538212Y-122055797D01*
X86494244Y-122223842D01*
X86433039Y-122404045D01*
X86352879Y-122602544D01*
X86252044Y-122825477D01*
X86128814Y-123078981D01*
X85981469Y-123369194D01*
X85906726Y-123513617D01*
X85835166Y-123656430D01*
X85763916Y-123807449D01*
X85701478Y-123948154D01*
X85658261Y-124054885D01*
X85574464Y-124279314D01*
X85366650Y-124390502D01*
X85176863Y-124485114D01*
X84975963Y-124570921D01*
X84760127Y-124648635D01*
X84525531Y-124718968D01*
X84268352Y-124782631D01*
X83984767Y-124840336D01*
X83670951Y-124892796D01*
X83323082Y-124940723D01*
X82937337Y-124984827D01*
X82509891Y-125025821D01*
X82036922Y-125064417D01*
X81567983Y-125097771D01*
X81116654Y-125129150D01*
X80713279Y-125159738D01*
X80353026Y-125190115D01*
X80031059Y-125220860D01*
X79742546Y-125252553D01*
X79482651Y-125285772D01*
X79246542Y-125321098D01*
X79029384Y-125359109D01*
X78826343Y-125400386D01*
X78632585Y-125445507D01*
X78600899Y-125453431D01*
X78166144Y-125581538D01*
X77777355Y-125735079D01*
X77433853Y-125914736D01*
X77134957Y-126121196D01*
X76879984Y-126355142D01*
X76668256Y-126617258D01*
X76499090Y-126908228D01*
X76371806Y-127228738D01*
X76285723Y-127579470D01*
X76252634Y-127813444D01*
X76230792Y-128020755D01*
X76360112Y-128143485D01*
X76588719Y-128343014D01*
X76840449Y-128532023D01*
X77105653Y-128704956D01*
X77374684Y-128856256D01*
X77637893Y-128980364D01*
X77885632Y-129071724D01*
X78043123Y-129112892D01*
X78126261Y-129128564D01*
X78200485Y-129137004D01*
X78276968Y-129137472D01*
X78366882Y-129129227D01*
X78481401Y-129111530D01*
X78631698Y-129083639D01*
X78707370Y-129068866D01*
X78869823Y-129040198D01*
X79014690Y-129023612D01*
X79152126Y-129020182D01*
X79292288Y-129030982D01*
X79445331Y-129057086D01*
X79621413Y-129099569D01*
X79830689Y-129159504D01*
X79970582Y-129202468D01*
X80196274Y-129269163D01*
X80392330Y-129316436D01*
X80567264Y-129342932D01*
X80729591Y-129347292D01*
X80887824Y-129328160D01*
X81050478Y-129284177D01*
X81226067Y-129213987D01*
X81423105Y-129116232D01*
X81650107Y-128989555D01*
X81778764Y-128914202D01*
X82017000Y-128776157D01*
X82224927Y-128662931D01*
X82415106Y-128568509D01*
X82451948Y-128552252D01*
X88243624Y-128552252D01*
X88247248Y-128567949D01*
X88261226Y-128569854D01*
X88282959Y-128560194D01*
X88278828Y-128552252D01*
X88247494Y-128549092D01*
X88243624Y-128552252D01*
X82451948Y-128552252D01*
X82600098Y-128486878D01*
X82792462Y-128412023D01*
G37*
G36*
X92538565Y-118206549D02*
G01*
X92525363Y-118219750D01*
X92512162Y-118206549D01*
X92525363Y-118193347D01*
X92538565Y-118206549D01*
G37*
G36*
X97776542Y-100252315D02*
G01*
X97841733Y-100265702D01*
X97936951Y-100286369D01*
X98021953Y-100305363D01*
X98239650Y-100349635D01*
X98490907Y-100392727D01*
X98756499Y-100431886D01*
X99017204Y-100464357D01*
X99253798Y-100487384D01*
X99330821Y-100492924D01*
X99446037Y-100502126D01*
X99538766Y-100513163D01*
X99598244Y-100524516D01*
X99614657Y-100532919D01*
X99608972Y-100564225D01*
X99593537Y-100636342D01*
X99570786Y-100738696D01*
X99543149Y-100860715D01*
X99513057Y-100991826D01*
X99482943Y-101121457D01*
X99455238Y-101239034D01*
X99432373Y-101333986D01*
X99416780Y-101395739D01*
X99413527Y-101407432D01*
X99401980Y-101427645D01*
X99375440Y-101440680D01*
X99324587Y-101447797D01*
X99240100Y-101450257D01*
X99112657Y-101449319D01*
X99104613Y-101449200D01*
X98972751Y-101446569D01*
X98849368Y-101442964D01*
X98750711Y-101438919D01*
X98703742Y-101436004D01*
X98531962Y-101419983D01*
X98347489Y-101399714D01*
X98158596Y-101376416D01*
X97973554Y-101351314D01*
X97800633Y-101325629D01*
X97648105Y-101300583D01*
X97524241Y-101277397D01*
X97437312Y-101257296D01*
X97397810Y-101243050D01*
X97394232Y-101215284D01*
X97410316Y-101146969D01*
X97446701Y-101036109D01*
X97504024Y-100880711D01*
X97559320Y-100738352D01*
X97617966Y-100589572D01*
X97669474Y-100458810D01*
X97710906Y-100353536D01*
X97739321Y-100281218D01*
X97751781Y-100249327D01*
X97752099Y-100248469D01*
X97776542Y-100252315D01*
G37*
G36*
X107951741Y-109088819D02*
G01*
X107957280Y-109141094D01*
X107958108Y-109209040D01*
X107958108Y-109362141D01*
X104915124Y-110705646D01*
X104535136Y-110873359D01*
X104168197Y-111035207D01*
X103817240Y-111189900D01*
X103485196Y-111336151D01*
X103174997Y-111472672D01*
X102889574Y-111598176D01*
X102631860Y-111711375D01*
X102404786Y-111810982D01*
X102211283Y-111895707D01*
X102054285Y-111964265D01*
X101936721Y-112015366D01*
X101861525Y-112047724D01*
X101831627Y-112060050D01*
X101831495Y-112060088D01*
X101799808Y-112049669D01*
X101769070Y-111996360D01*
X101749261Y-111940979D01*
X101707674Y-111810932D01*
X104786685Y-110456675D01*
X105169227Y-110288398D01*
X105538793Y-110125784D01*
X105892459Y-109970123D01*
X106227301Y-109822704D01*
X106540392Y-109684816D01*
X106828809Y-109557749D01*
X107089627Y-109442791D01*
X107319921Y-109341232D01*
X107516766Y-109254361D01*
X107677238Y-109183466D01*
X107798411Y-109129838D01*
X107877361Y-109094765D01*
X107911163Y-109079537D01*
X107911902Y-109079178D01*
X107937820Y-109071566D01*
X107951741Y-109088819D01*
G37*
G36*
X78004623Y-126581139D02*
G01*
X77858185Y-126763747D01*
X77704432Y-126977130D01*
X77555753Y-127203069D01*
X77424535Y-127423345D01*
X77393285Y-127480269D01*
X77331428Y-127586356D01*
X77279789Y-127648333D01*
X77229826Y-127671452D01*
X77172999Y-127660964D01*
X77132224Y-127640821D01*
X76996235Y-127547977D01*
X76905644Y-127449619D01*
X76862566Y-127349310D01*
X76869114Y-127250611D01*
X76882286Y-127219464D01*
X76983646Y-127063598D01*
X77124651Y-126904385D01*
X77294077Y-126752665D01*
X77480704Y-126619278D01*
X77541476Y-126582668D01*
X77669402Y-126520472D01*
X77825314Y-126461247D01*
X77984698Y-126413640D01*
X78079709Y-126392815D01*
X78182288Y-126374647D01*
X78004623Y-126581139D01*
G37*
G36*
X99377027Y-113665176D02*
G01*
X99363825Y-113678378D01*
X99350623Y-113665176D01*
X99363825Y-113651975D01*
X99377027Y-113665176D01*
G37*
G36*
X103895532Y-94280688D02*
G01*
X103967462Y-94335348D01*
X104022454Y-94419243D01*
X104053487Y-94528303D01*
X104053534Y-94658461D01*
X104045420Y-94705978D01*
X104002578Y-94822441D01*
X103934937Y-94911677D01*
X103851642Y-94968770D01*
X103761839Y-94988803D01*
X103674674Y-94966859D01*
X103626908Y-94930962D01*
X103553976Y-94822481D01*
X103524039Y-94691672D01*
X103538026Y-94548131D01*
X103578926Y-94435767D01*
X103648362Y-94332803D01*
X103728958Y-94275347D01*
X103813690Y-94259332D01*
X103895532Y-94280688D01*
G37*
G36*
X94684701Y-99279868D02*
G01*
X94787242Y-99300476D01*
X94910759Y-99328184D01*
X95045250Y-99360772D01*
X95180714Y-99396023D01*
X95276553Y-99422764D01*
X95475850Y-99482898D01*
X95634544Y-99536238D01*
X95749801Y-99581677D01*
X95818790Y-99618111D01*
X95838981Y-99642107D01*
X95832017Y-99675869D01*
X95812675Y-99751707D01*
X95783276Y-99860978D01*
X95746142Y-99995040D01*
X95706964Y-100133472D01*
X95664950Y-100280848D01*
X95628456Y-100409521D01*
X95599769Y-100511374D01*
X95581177Y-100578287D01*
X95574948Y-100602097D01*
X95563931Y-100608040D01*
X95526860Y-100596377D01*
X95457705Y-100564530D01*
X95350438Y-100509922D01*
X95310914Y-100489237D01*
X95210787Y-100438223D01*
X95126582Y-100398294D01*
X95070230Y-100374959D01*
X95055331Y-100371193D01*
X95027862Y-100348576D01*
X94984070Y-100286988D01*
X94929178Y-100195671D01*
X94868406Y-100083867D01*
X94806978Y-99960817D01*
X94750115Y-99835761D01*
X94741978Y-99816632D01*
X94707189Y-99726551D01*
X94670891Y-99620490D01*
X94636592Y-99510499D01*
X94607799Y-99408625D01*
X94588017Y-99326920D01*
X94580753Y-99277432D01*
X94582560Y-99268825D01*
X94613140Y-99268578D01*
X94684701Y-99279868D01*
G37*
G36*
X86814372Y-91907642D02*
G01*
X87046319Y-91930429D01*
X87248575Y-91967545D01*
X87271101Y-91973230D01*
X87487841Y-92043739D01*
X87708243Y-92140159D01*
X87920638Y-92255625D01*
X88113359Y-92383273D01*
X88274738Y-92516238D01*
X88373354Y-92621725D01*
X88409415Y-92680398D01*
X88436461Y-92760220D01*
X88458335Y-92874154D01*
X88467354Y-92938770D01*
X88484180Y-93054440D01*
X88508670Y-93204266D01*
X88537819Y-93370686D01*
X88568628Y-93536137D01*
X88575680Y-93572450D01*
X88607974Y-93745476D01*
X88640422Y-93933525D01*
X88669489Y-94115243D01*
X88691639Y-94269278D01*
X88693720Y-94285325D01*
X88724994Y-94486265D01*
X88764093Y-94650914D01*
X88814932Y-94795643D01*
X88816822Y-94800190D01*
X88881518Y-94976649D01*
X88935912Y-95167101D01*
X88978225Y-95360606D01*
X89006682Y-95546231D01*
X89019506Y-95713037D01*
X89014919Y-95850087D01*
X88999565Y-95925033D01*
X88953232Y-96034336D01*
X88881493Y-96167928D01*
X88794045Y-96310647D01*
X88700585Y-96447334D01*
X88610812Y-96562828D01*
X88549703Y-96628337D01*
X88460634Y-96705641D01*
X88365939Y-96778211D01*
X88301267Y-96820995D01*
X88092362Y-96919508D01*
X87848147Y-96994410D01*
X87581651Y-97043345D01*
X87305902Y-97063958D01*
X87033930Y-97053896D01*
X87020270Y-97052504D01*
X86873212Y-97032034D01*
X86694627Y-96999647D01*
X86503329Y-96959382D01*
X86318130Y-96915277D01*
X86157842Y-96871371D01*
X86115813Y-96858323D01*
X85996987Y-96815490D01*
X85849531Y-96755606D01*
X85691488Y-96686326D01*
X85540899Y-96615304D01*
X85528482Y-96609164D01*
X85178549Y-96412279D01*
X84858575Y-96185600D01*
X84572239Y-95933250D01*
X84323221Y-95659351D01*
X84115202Y-95368023D01*
X83951862Y-95063391D01*
X83836880Y-94749575D01*
X83823330Y-94699230D01*
X83791295Y-94522093D01*
X83775323Y-94317500D01*
X83775677Y-94106726D01*
X83792617Y-93911042D01*
X83812303Y-93803472D01*
X83906878Y-93514968D01*
X84049317Y-93239413D01*
X84235573Y-92980077D01*
X84461599Y-92740228D01*
X84723347Y-92523133D01*
X85016769Y-92332062D01*
X85337820Y-92170281D01*
X85682451Y-92041059D01*
X86046616Y-91947664D01*
X86129856Y-91932091D01*
X86337193Y-91907790D01*
X86571681Y-91899868D01*
X86814372Y-91907642D01*
G37*
G36*
X98602776Y-91686839D02*
G01*
X98807368Y-91781354D01*
X99011198Y-91928175D01*
X99125776Y-92034424D01*
X99330463Y-92268688D01*
X99505375Y-92532546D01*
X99653823Y-92832006D01*
X99779120Y-93173077D01*
X99810565Y-93277058D01*
X99837230Y-93376796D01*
X99865442Y-93495036D01*
X99893055Y-93620969D01*
X99917922Y-93743786D01*
X99937899Y-93852677D01*
X99950840Y-93936831D01*
X99954600Y-93985439D01*
X99952642Y-93992896D01*
X99923983Y-93991852D01*
X99905093Y-93987639D01*
X99876373Y-93960336D01*
X99833760Y-93896524D01*
X99784770Y-93807968D01*
X99765489Y-93769120D01*
X99645206Y-93560215D01*
X99505033Y-93388069D01*
X99349605Y-93255731D01*
X99183555Y-93166246D01*
X99011519Y-93122663D01*
X98838132Y-93128027D01*
X98801989Y-93135656D01*
X98635290Y-93201413D01*
X98478654Y-93315928D01*
X98357146Y-93445785D01*
X98245713Y-93582482D01*
X97583615Y-93592013D01*
X97379153Y-93594718D01*
X97221478Y-93596001D01*
X97104583Y-93595542D01*
X97022459Y-93593020D01*
X96969100Y-93588116D01*
X96938496Y-93580508D01*
X96924640Y-93569876D01*
X96921517Y-93556707D01*
X96929591Y-93492358D01*
X96951548Y-93390093D01*
X96983990Y-93261895D01*
X97023520Y-93119747D01*
X97066739Y-92975633D01*
X97110252Y-92841537D01*
X97150659Y-92729440D01*
X97168416Y-92685896D01*
X97267032Y-92474598D01*
X97366238Y-92300347D01*
X97475636Y-92148154D01*
X97604828Y-92003033D01*
X97608004Y-91999767D01*
X97799429Y-91832362D01*
X97995751Y-91717392D01*
X98195836Y-91654832D01*
X98398555Y-91644656D01*
X98602776Y-91686839D01*
G37*
G36*
X101670885Y-101230488D02*
G01*
X101656741Y-101251590D01*
X101611258Y-101303702D01*
X101540342Y-101380399D01*
X101449901Y-101475255D01*
X101377147Y-101550028D01*
X101073438Y-101859705D01*
X101120411Y-101615200D01*
X101142019Y-101507916D01*
X101161247Y-101421756D01*
X101175297Y-101368831D01*
X101179774Y-101358306D01*
X101210236Y-101345366D01*
X101276733Y-101324641D01*
X101365484Y-101299716D01*
X101462707Y-101274179D01*
X101554622Y-101251616D01*
X101627446Y-101235615D01*
X101667400Y-101229761D01*
X101670885Y-101230488D01*
G37*
D17*
%TO.C,U3*%
X196110153Y-76967184D02*
X131204745Y-83211731D01*
X201056561Y-103244065D02*
X198729133Y-79126105D01*
X129045824Y-85830712D02*
X131365312Y-109919517D01*
X198894296Y-105828315D02*
X133984293Y-112078438D01*
D18*
X198894296Y-105828314D02*
G75*
G03*
X201053217Y-103209335I-131019J2307332D01*
G01*
X131204745Y-83211731D02*
G75*
G03*
X129045824Y-85830712I131020J-2307333D01*
G01*
X131365312Y-109919517D02*
G75*
G03*
X133984293Y-112078438I2307333J131020D01*
G01*
X198729132Y-79126105D02*
G75*
G03*
X196110153Y-76967184I-2307332J-131019D01*
G01*
%TD*%
G36*
X76450249Y-84073667D02*
G01*
X76482264Y-84137035D01*
X76484349Y-84160407D01*
X76286486Y-130432669D01*
X76266193Y-130500703D01*
X76212339Y-130546966D01*
X76159987Y-130558129D01*
X72610694Y-130544051D01*
X72608691Y-130544027D01*
X68774464Y-130467850D01*
X68774142Y-130467845D01*
X67889660Y-130456751D01*
X67882886Y-130456484D01*
X67003496Y-130398050D01*
X66996747Y-130397419D01*
X66121759Y-130291774D01*
X66115053Y-130290780D01*
X65245490Y-130137961D01*
X65241941Y-130137285D01*
X64434850Y-129971460D01*
X64428921Y-129970092D01*
X63631967Y-129765804D01*
X63626112Y-129764151D01*
X62839978Y-129521638D01*
X62834209Y-129519705D01*
X62060669Y-129239515D01*
X62055000Y-129237305D01*
X61295922Y-128920116D01*
X61290366Y-128917636D01*
X60547174Y-128564023D01*
X60542263Y-128561553D01*
X59793795Y-128164504D01*
X59788560Y-128161565D01*
X59060053Y-127729434D01*
X59054965Y-127726249D01*
X58347901Y-127259932D01*
X58342970Y-127256509D01*
X57658868Y-126757007D01*
X57654105Y-126753352D01*
X56994611Y-126221864D01*
X56990028Y-126217987D01*
X56356593Y-125655686D01*
X56352199Y-125651595D01*
X55744209Y-125057753D01*
X55743775Y-125057327D01*
X55108026Y-124430348D01*
X55103848Y-124426026D01*
X54500438Y-123771298D01*
X54496471Y-123766782D01*
X53924981Y-123084029D01*
X53921234Y-123079329D01*
X53382957Y-122370095D01*
X53379438Y-122365221D01*
X52874096Y-121628931D01*
X52873688Y-121628340D01*
X52327061Y-120841545D01*
X52323735Y-120836505D01*
X51816819Y-120026632D01*
X51813739Y-120021437D01*
X51346232Y-119188242D01*
X51343404Y-119182906D01*
X50916352Y-118328254D01*
X50913783Y-118322789D01*
X50528176Y-117448661D01*
X50525871Y-117443078D01*
X50300962Y-116858922D01*
X52403458Y-116858922D01*
X52422250Y-117073710D01*
X52424153Y-117084505D01*
X52479956Y-117292763D01*
X52483702Y-117303055D01*
X52574820Y-117498460D01*
X52580303Y-117507956D01*
X52703962Y-117684560D01*
X52711018Y-117692968D01*
X52863458Y-117845408D01*
X52871866Y-117852464D01*
X53048470Y-117976123D01*
X53057966Y-117981606D01*
X53253371Y-118072724D01*
X53263663Y-118076470D01*
X53471921Y-118132273D01*
X53482716Y-118134176D01*
X53697504Y-118152968D01*
X53708454Y-118152968D01*
X53923242Y-118134176D01*
X53934037Y-118132273D01*
X54142295Y-118076470D01*
X54152587Y-118072724D01*
X54347992Y-117981606D01*
X54357488Y-117976123D01*
X54534092Y-117852464D01*
X54542500Y-117845408D01*
X54694940Y-117692968D01*
X54701996Y-117684560D01*
X54825655Y-117507956D01*
X54831138Y-117498460D01*
X54922256Y-117303055D01*
X54926002Y-117292763D01*
X54981805Y-117084505D01*
X54983708Y-117073710D01*
X55002500Y-116858922D01*
X55002500Y-116847972D01*
X54983708Y-116633184D01*
X54981805Y-116622389D01*
X54926002Y-116414131D01*
X54922256Y-116403839D01*
X54831138Y-116208434D01*
X54825655Y-116198938D01*
X54701996Y-116022334D01*
X54694940Y-116013926D01*
X54542500Y-115861486D01*
X54534092Y-115854430D01*
X54357488Y-115730771D01*
X54347992Y-115725288D01*
X54152587Y-115634170D01*
X54142295Y-115630424D01*
X53934037Y-115574621D01*
X53923242Y-115572718D01*
X53708454Y-115553926D01*
X53697504Y-115553926D01*
X53482716Y-115572718D01*
X53471921Y-115574621D01*
X53263663Y-115630424D01*
X53253371Y-115634170D01*
X53057966Y-115725288D01*
X53048470Y-115730771D01*
X52871866Y-115854430D01*
X52863458Y-115861486D01*
X52711018Y-116013926D01*
X52703962Y-116022334D01*
X52580303Y-116198938D01*
X52574820Y-116208434D01*
X52483702Y-116403839D01*
X52479956Y-116414131D01*
X52424153Y-116622389D01*
X52422250Y-116633184D01*
X52403458Y-116847972D01*
X52403458Y-116858922D01*
X50300962Y-116858922D01*
X50183889Y-116554850D01*
X50179779Y-116542230D01*
X49963341Y-115735559D01*
X49961719Y-115728767D01*
X49789657Y-114908254D01*
X49788414Y-114901382D01*
X49662077Y-114072615D01*
X49661216Y-114065685D01*
X49580988Y-113231166D01*
X49580513Y-113224199D01*
X49546584Y-112385105D01*
X49546485Y-112380972D01*
X49535827Y-110978736D01*
X49535860Y-110974743D01*
X49569642Y-109572815D01*
X49569801Y-109568825D01*
X49647759Y-108172770D01*
X49649035Y-108160590D01*
X49789976Y-107246691D01*
X49790919Y-107241346D01*
X49971751Y-106331043D01*
X49972923Y-106325742D01*
X50192801Y-105424053D01*
X50194200Y-105418808D01*
X50452712Y-104527429D01*
X50454336Y-104522250D01*
X50751003Y-103642824D01*
X50752849Y-103637719D01*
X51087107Y-102771923D01*
X51089170Y-102766902D01*
X51460435Y-101916245D01*
X51462714Y-101911318D01*
X51870243Y-101077505D01*
X51872731Y-101072680D01*
X52315808Y-100257172D01*
X52318501Y-100252459D01*
X52797520Y-99454749D01*
X52797915Y-99454080D01*
X53327419Y-98547535D01*
X53329898Y-98543469D01*
X53892224Y-97659238D01*
X53894854Y-97655269D01*
X54490205Y-96792893D01*
X54492984Y-96789026D01*
X55120485Y-95949774D01*
X55123408Y-95946015D01*
X55782172Y-95131074D01*
X55785235Y-95127428D01*
X56474335Y-94337944D01*
X56477534Y-94334417D01*
X57195927Y-93571582D01*
X57199256Y-93568177D01*
X57946013Y-92832980D01*
X57949469Y-92829704D01*
X58723447Y-92123270D01*
X58727024Y-92120127D01*
X59527154Y-91443434D01*
X59530847Y-91440429D01*
X60355951Y-90794469D01*
X60359756Y-90791604D01*
X61208697Y-90177271D01*
X61212606Y-90174553D01*
X62084171Y-89592723D01*
X62088181Y-89590155D01*
X62979894Y-89042417D01*
X62986414Y-89038675D01*
X64072589Y-88457697D01*
X64078078Y-88454931D01*
X65518342Y-87772701D01*
X65528039Y-87768595D01*
X66741480Y-87313555D01*
X66743043Y-87312980D01*
X68646128Y-86627869D01*
X68648515Y-86627037D01*
X72711301Y-85255847D01*
X72711358Y-85255828D01*
X76318115Y-84040465D01*
X76389056Y-84037667D01*
X76450249Y-84073667D01*
G37*
G36*
X125715985Y-67418298D02*
G01*
X125747937Y-67481699D01*
X125750000Y-67504407D01*
X125750000Y-81774000D01*
X125729998Y-81842121D01*
X125676342Y-81888614D01*
X125624000Y-81900000D01*
X83438741Y-81900000D01*
X83370620Y-81879998D01*
X83324127Y-81826342D01*
X83314023Y-81756068D01*
X83343517Y-81691488D01*
X83398506Y-81654597D01*
X96002933Y-77407304D01*
X96003101Y-77407247D01*
X100092380Y-76035688D01*
X100092738Y-76035566D01*
X115027247Y-70930402D01*
X115027888Y-70930184D01*
X125583885Y-67384963D01*
X125654829Y-67382237D01*
X125715985Y-67418298D01*
G37*
M02*
